<?xml version="1.0"?><svg xmlns="http://www.w3.org/2000/svg" xmlns:xlink="http://www.w3.org/1999/xlink" viewBox="29.07 26.06 249.93 593.1" preserveAspectRatio="xMidYMid" width="100%" height="100%"><clipPath id="600"><rect x="0.565" y="0.565" width="521.89" height="768.97" /></clipPath><g id="drawing"><rect x="29.07" y="26.06" width="100%" height="100%" fill="rgb(255, 255, 255)" /><g id="page" clip-path="url(#600)"><g><text xml:space="preserve" text-anchor="middle" text-rendering="geometricPrecision"><tspan x="166.77" y="248.02" font-family="Arial" font-size="12" fill="rgb(0, 0, 0)">TDG (imine formation)</tspan></text></g><g><text xml:space="preserve" text-anchor="middle" text-rendering="geometricPrecision"><tspan x="164.77" y="303.57" font-family="Arial" font-size="12" fill="rgb(0, 0, 0)">Pd(OAc)</tspan><tspan font-family="Arial" dy="2.72" font-size="9" fill="rgb(0, 0, 0)">2</tspan><tspan font-family="Arial" dy="-2.72" font-size="12" fill="rgb(0, 0, 0)"> (10 mol%)</tspan><tspan x="164.77" y="321.92" font-family="Arial" font-style="italic" font-size="12" fill="rgb(0, 0, 0)">N</tspan><tspan font-family="Arial" font-size="12" fill="rgb(0, 0, 0)">-Form-Gly-OH (20 mol%)</tspan><tspan x="164.77" y="340.27" font-family="Arial" font-size="12" fill="rgb(0, 0, 0)">Ag</tspan><tspan font-family="Arial" dy="2.72" font-size="9" fill="rgb(0, 0, 0)">2</tspan><tspan font-family="Arial" dy="-2.72" font-size="12" fill="rgb(0, 0, 0)">CO</tspan><tspan font-family="Arial" dy="2.72" font-size="9" fill="rgb(0, 0, 0)">3</tspan><tspan font-family="Arial" dy="-2.72" font-size="12" fill="rgb(0, 0, 0)"> (2.5 eq.)</tspan><tspan x="164.77" y="358.62" font-family="Arial" font-size="12" fill="rgb(0, 0, 0)">Cu(OAc)</tspan><tspan font-family="Arial" dy="2.72" font-size="9" fill="rgb(0, 0, 0)">2</tspan><tspan font-family="Arial" dy="-2.72" font-size="12" fill="rgb(0, 0, 0)"> </tspan><tspan font-family="Arial" font-size="12" fill="rgb(0, 0, 0)">(3.5 eq.) </tspan><tspan x="164.77" y="376.97" font-family="Arial" font-size="12" fill="rgb(0, 0, 0)">DCE, 100 °</tspan><tspan font-family="Arial" font-size="12" fill="rgb(0, 0, 0)">C, 24 h;</tspan><tspan x="164.77" y="395.32" font-family="Arial" font-size="12" fill="rgb(0, 0, 0)"> H</tspan><tspan font-family="Arial" dy="2.72" font-size="9" fill="rgb(0, 0, 0)">3</tspan><tspan font-family="Arial" dy="-2.72" font-size="12" fill="rgb(0, 0, 0)">O</tspan><tspan font-family="Arial" dy="-4.89" font-size="9" fill="rgb(0, 0, 0)">+</tspan><tspan font-family="Arial" dy="4.89" font-size="12" fill="rgb(0, 0, 0)"> work up</tspan></text></g><g id="Charge367"><line x1="160.63" y1="118.93" x2="171.41" y2="118.93" stroke="rgb(0, 0, 0)" stroke-width="0.904" shape-rendering="auto" /><line x1="166.02" y1="113.54" x2="166.02" y2="124.32" stroke="rgb(0, 0, 0)" stroke-width="0.904" shape-rendering="auto" /></g><g id="Solid"><path d="M53.33 40.56 L53.33 40.56 L53.9 40.89 L54.47 41.22 L54.47 68.9 L53.9 69.23 L53.33 69.56 Z" stroke="rgb(0, 0, 0)" stroke-width="0" fill-rule="evenodd" stroke-linejoin="miter" fill="rgb(0, 0, 0)" shape-rendering="geometricPrecision" /><line x1="59" y1="43.83" x2="59" y2="66.29" stroke="rgb(0, 0, 0)" stroke-width="1.13" shape-rendering="auto" /></g><g id="Solid"><path d="M53.33 69.56 L53.33 69.56 L53.9 69.23 L54.47 68.9 L78.45 82.76 L78.45 83.41 L77.89 83.74 Z" stroke="rgb(0, 0, 0)" stroke-width="0" fill-rule="evenodd" stroke-linejoin="miter" fill="rgb(0, 0, 0)" shape-rendering="geometricPrecision" /></g><g id="Solid"><path d="M79.02 83.74 L79.02 83.74 L78.45 83.41 L78.45 82.76 L102.44 68.9 L103 69.23 L103 69.88 Z" stroke="rgb(0, 0, 0)" stroke-width="0" fill-rule="evenodd" stroke-linejoin="miter" fill="rgb(0, 0, 0)" shape-rendering="geometricPrecision" /><line x1="78.45" y1="77.52" x2="97.9" y2="66.28" stroke="rgb(0, 0, 0)" stroke-width="1.13" shape-rendering="auto" /></g><g id="Solid"><path d="M103.57 68.9 L103.57 68.9 L103 69.23 L102.44 68.9 L102.44 41.22 L103 40.89 L103.56 40.56 Z" stroke="rgb(0, 0, 0)" stroke-width="0" fill-rule="evenodd" stroke-linejoin="miter" fill="rgb(0, 0, 0)" shape-rendering="geometricPrecision" /></g><g id="Solid"><path d="M103.56 40.56 L103.56 40.56 L103 40.89 L102.44 41.22 L78.45 27.36 L78.45 26.71 L78.45 26.06 Z" stroke="rgb(0, 0, 0)" stroke-width="0" fill-rule="evenodd" stroke-linejoin="miter" fill="rgb(0, 0, 0)" shape-rendering="geometricPrecision" /><line x1="97.9" y1="43.84" x2="78.45" y2="32.6" stroke="rgb(0, 0, 0)" stroke-width="1.13" shape-rendering="auto" /></g><g id="Solid"><path d="M78.45 26.06 L78.45 26.06 L78.45 26.71 L78.45 27.36 L54.47 41.22 L53.9 40.89 L53.33 40.56 Z" stroke="rgb(0, 0, 0)" stroke-width="0" fill-rule="evenodd" stroke-linejoin="miter" fill="rgb(0, 0, 0)" shape-rendering="geometricPrecision" /></g><g id="Solid"><path d="M77.89 83.74 L77.89 83.74 L78.45 83.41 L79.02 83.74 L79.02 111.42 L78.45 111.75 L77.89 111.42 Z" stroke="rgb(0, 0, 0)" stroke-width="0" fill-rule="evenodd" stroke-linejoin="miter" fill="rgb(0, 0, 0)" shape-rendering="geometricPrecision" /></g><g id="Solid"><path d="M77.89 111.42 L77.89 111.42 L78.45 111.75 L78.45 112.4 L54.47 126.26 L53.9 125.93 L53.33 125.6 Z" stroke="rgb(0, 0, 0)" stroke-width="0" fill-rule="evenodd" stroke-linejoin="miter" fill="rgb(0, 0, 0)" shape-rendering="geometricPrecision" /><line x1="78.45" y1="117.64" x2="59" y2="128.88" stroke="rgb(0, 0, 0)" stroke-width="1.13" shape-rendering="auto" /></g><g id="Solid"><path d="M53.33 125.6 L53.33 125.6 L53.9 125.93 L54.47 126.26 L54.47 153.94 L53.9 154.27 L53.34 153.94 Z" stroke="rgb(0, 0, 0)" stroke-width="0" fill-rule="evenodd" stroke-linejoin="miter" fill="rgb(0, 0, 0)" shape-rendering="geometricPrecision" /></g><g id="Solid"><path d="M53.9 154.92 L53.9 154.92 L53.9 154.27 L54.47 153.94 L78.45 167.8 L78.45 168.45 L78.45 169.1 Z" stroke="rgb(0, 0, 0)" stroke-width="0" fill-rule="evenodd" stroke-linejoin="miter" fill="rgb(0, 0, 0)" shape-rendering="geometricPrecision" /><line x1="59" y1="151.32" x2="78.45" y2="162.56" stroke="rgb(0, 0, 0)" stroke-width="1.13" shape-rendering="auto" /></g><g id="Solid"><path d="M78.45 169.1 L78.45 169.1 L78.45 168.45 L78.45 167.8 L102.44 153.94 L103 154.27 L103.56 154.6 Z" stroke="rgb(0, 0, 0)" stroke-width="0" fill-rule="evenodd" stroke-linejoin="miter" fill="rgb(0, 0, 0)" shape-rendering="geometricPrecision" /></g><g id="Solid"><path d="M103.56 154.6 L103.56 154.6 L103 154.27 L102.44 153.94 L102.44 126.26 L103 125.93 L103.56 125.6 Z" stroke="rgb(0, 0, 0)" stroke-width="0" fill-rule="evenodd" stroke-linejoin="miter" fill="rgb(0, 0, 0)" shape-rendering="geometricPrecision" /><line x1="97.9" y1="151.33" x2="97.9" y2="128.87" stroke="rgb(0, 0, 0)" stroke-width="1.13" shape-rendering="auto" /></g><g id="Solid"><path d="M103.56 125.6 L103.56 125.6 L103 125.93 L102.44 126.26 L78.45 112.4 L78.45 111.75 L79.02 111.42 Z" stroke="rgb(0, 0, 0)" stroke-width="0" fill-rule="evenodd" stroke-linejoin="miter" fill="rgb(0, 0, 0)" shape-rendering="geometricPrecision" /></g><g id="Solid"><path d="M103 69.88 L103 69.88 L103 69.23 L103.57 68.9 L123.08 80.18 L122.8 80.67 L122.52 81.16 Z" stroke="rgb(0, 0, 0)" stroke-width="0" fill-rule="evenodd" stroke-linejoin="miter" fill="rgb(0, 0, 0)" shape-rendering="geometricPrecision" /></g><g><text xml:space="preserve" text-anchor="start" text-rendering="geometricPrecision"><tspan x="123.22" y="88.13" font-family="Arial" font-size="12" fill="rgb(0, 0, 0)">CHO</tspan></text></g><g id="Solid"><path d="M199.98 124.55 L199.98 124.55 L199.7 124.06 L199.42 123.57 L224.25 109.23 L224.25 109.88 L224.25 110.53 Z" stroke="rgb(0, 0, 0)" stroke-width="0" fill-rule="evenodd" stroke-linejoin="miter" fill="rgb(0, 0, 0)" shape-rendering="geometricPrecision" /><line x1="197.15" y1="119.64" x2="221.7" y2="105.46" stroke="rgb(0, 0, 0)" stroke-width="1.13" shape-rendering="auto" /></g><g><text xml:space="preserve" text-anchor="start" text-rendering="geometricPrecision"><tspan x="244.48" y="128.78" font-family="Arial" font-size="12" fill="rgb(0, 0, 0)">CO</tspan><tspan font-family="Arial" dy="2.72" font-size="9" fill="rgb(0, 0, 0)">2</tspan><tspan font-family="Arial" dy="-2.72" font-size="12" fill="rgb(0, 0, 0)">Et</tspan></text></g><g id="Solid"><path d="M224.25 110.53 L224.25 110.53 L224.25 109.88 L224.25 109.23 L244.38 120.86 L244.1 121.35 L243.82 121.84 Z" stroke="rgb(0, 0, 0)" stroke-width="0" fill-rule="evenodd" stroke-linejoin="miter" fill="rgb(0, 0, 0)" shape-rendering="geometricPrecision" /></g><g id="Solid"><path d="M53.34 153.94 L53.34 153.94 L53.9 154.27 L53.9 154.92 L29.63 168.94 L29.35 168.45 L29.07 167.96 Z" stroke="rgb(0, 0, 0)" stroke-width="0" fill-rule="evenodd" stroke-linejoin="miter" fill="rgb(0, 0, 0)" shape-rendering="geometricPrecision" /></g><line x1="163.62" y1="283.1" x2="163.62" y2="258" stroke="rgb(0, 0, 0)" stroke-width="1.13" shape-rendering="auto" /><g id="Arrow"><line x1="165.52" y1="441.67" x2="165.52" y2="416.46" stroke="rgb(0, 0, 0)" stroke-width="1.13" shape-rendering="auto" /><path d="M165.52 450.56 L168.34 439.26 C166.76 441.11 164.28 441.11 162.69 439.26 Z" stroke="rgb(0, 0, 0)" stroke-width="0" fill-rule="evenodd" stroke-linejoin="miter" stroke-miterlimit="13.0613876038636" fill="rgb(0, 0, 0)" shape-rendering="geometricPrecision" /></g><line x1="163.62" y1="215.12" x2="163.62" y2="190.01" stroke="rgb(0, 0, 0)" stroke-width="1.13" shape-rendering="auto" /><g id="Solid"><path d="M100.22 484 L100.22 484 L100.79 484.33 L101.36 484.66 L101.36 512.34 L100.79 512.67 L100.22 513 Z" stroke="rgb(0, 0, 0)" stroke-width="0" fill-rule="evenodd" stroke-linejoin="miter" fill="rgb(0, 0, 0)" shape-rendering="geometricPrecision" /><line x1="105.89" y1="487.27" x2="105.89" y2="509.73" stroke="rgb(0, 0, 0)" stroke-width="1.13" shape-rendering="auto" /></g><g id="Solid"><path d="M100.22 513 L100.22 513 L100.79 512.67 L101.36 512.34 L125.34 526.2 L125.34 526.85 L124.78 527.18 Z" stroke="rgb(0, 0, 0)" stroke-width="0" fill-rule="evenodd" stroke-linejoin="miter" fill="rgb(0, 0, 0)" shape-rendering="geometricPrecision" /></g><g id="Solid"><path d="M125.91 527.18 L125.91 527.18 L125.34 526.85 L125.34 526.2 L149.33 512.34 L149.89 512.67 L149.89 513.32 Z" stroke="rgb(0, 0, 0)" stroke-width="0" fill-rule="evenodd" stroke-linejoin="miter" fill="rgb(0, 0, 0)" shape-rendering="geometricPrecision" /><line x1="125.34" y1="520.96" x2="144.79" y2="509.72" stroke="rgb(0, 0, 0)" stroke-width="1.13" shape-rendering="auto" /></g><g id="Solid"><path d="M150.46 512.34 L150.46 512.34 L149.89 512.67 L149.33 512.34 L149.33 484.66 L149.89 484.33 L150.45 484 Z" stroke="rgb(0, 0, 0)" stroke-width="0" fill-rule="evenodd" stroke-linejoin="miter" fill="rgb(0, 0, 0)" shape-rendering="geometricPrecision" /></g><g id="Solid"><path d="M150.45 484 L150.45 484 L149.89 484.33 L149.33 484.66 L125.34 470.8 L125.34 470.15 L125.34 469.5 Z" stroke="rgb(0, 0, 0)" stroke-width="0" fill-rule="evenodd" stroke-linejoin="miter" fill="rgb(0, 0, 0)" shape-rendering="geometricPrecision" /><line x1="144.79" y1="487.28" x2="125.34" y2="476.04" stroke="rgb(0, 0, 0)" stroke-width="1.13" shape-rendering="auto" /></g><g id="Solid"><path d="M125.34 469.5 L125.34 469.5 L125.34 470.15 L125.34 470.8 L101.36 484.66 L100.79 484.33 L100.22 484 Z" stroke="rgb(0, 0, 0)" stroke-width="0" fill-rule="evenodd" stroke-linejoin="miter" fill="rgb(0, 0, 0)" shape-rendering="geometricPrecision" /></g><g id="Solid"><path d="M124.78 527.18 L124.78 527.18 L125.34 526.85 L125.91 527.18 L125.91 554.86 L125.34 555.19 L124.78 554.86 Z" stroke="rgb(0, 0, 0)" stroke-width="0" fill-rule="evenodd" stroke-linejoin="miter" fill="rgb(0, 0, 0)" shape-rendering="geometricPrecision" /></g><g id="Solid"><path d="M124.78 554.86 L124.78 554.86 L125.34 555.19 L125.34 555.84 L101.36 569.7 L100.79 569.37 L100.22 569.04 Z" stroke="rgb(0, 0, 0)" stroke-width="0" fill-rule="evenodd" stroke-linejoin="miter" fill="rgb(0, 0, 0)" shape-rendering="geometricPrecision" /><line x1="125.34" y1="561.08" x2="105.89" y2="572.32" stroke="rgb(0, 0, 0)" stroke-width="1.13" shape-rendering="auto" /></g><g id="Solid"><path d="M100.22 569.04 L100.22 569.04 L100.79 569.37 L101.36 569.7 L101.36 597.38 L100.79 597.71 L100.23 597.38 Z" stroke="rgb(0, 0, 0)" stroke-width="0" fill-rule="evenodd" stroke-linejoin="miter" fill="rgb(0, 0, 0)" shape-rendering="geometricPrecision" /></g><g id="Solid"><path d="M100.79 598.36 L100.79 598.36 L100.79 597.71 L101.36 597.38 L125.34 611.24 L125.34 611.89 L125.34 612.54 Z" stroke="rgb(0, 0, 0)" stroke-width="0" fill-rule="evenodd" stroke-linejoin="miter" fill="rgb(0, 0, 0)" shape-rendering="geometricPrecision" /><line x1="105.89" y1="594.76" x2="125.34" y2="606" stroke="rgb(0, 0, 0)" stroke-width="1.13" shape-rendering="auto" /></g><g id="Solid"><path d="M125.34 612.54 L125.34 612.54 L125.34 611.89 L125.34 611.24 L149.33 597.38 L149.89 597.71 L149.15 598.79 Z" stroke="rgb(0, 0, 0)" stroke-width="0" fill-rule="evenodd" stroke-linejoin="miter" fill="rgb(0, 0, 0)" shape-rendering="geometricPrecision" /></g><g id="Solid"><path d="M150.46 596.53 L150.46 596.53 L149.89 597.71 L149.33 597.38 L149.33 569.7 L149.89 569.37 L150.45 569.04 Z" stroke="rgb(0, 0, 0)" stroke-width="0" fill-rule="evenodd" stroke-linejoin="miter" fill="rgb(0, 0, 0)" shape-rendering="geometricPrecision" /><line x1="144.79" y1="594.77" x2="144.79" y2="572.31" stroke="rgb(0, 0, 0)" stroke-width="1.13" shape-rendering="auto" /></g><g id="Solid"><path d="M150.45 569.04 L150.45 569.04 L149.89 569.37 L149.33 569.7 L125.34 555.84 L125.34 555.19 L125.91 554.86 Z" stroke="rgb(0, 0, 0)" stroke-width="0" fill-rule="evenodd" stroke-linejoin="miter" fill="rgb(0, 0, 0)" shape-rendering="geometricPrecision" /></g><g><text xml:space="preserve" text-anchor="start" text-rendering="geometricPrecision"><tspan x="170.11" y="531.57" font-family="Arial" font-size="12" fill="rgb(0, 0, 0)">CHO</tspan></text></g><g id="Solid"><path d="M149.89 513.32 L149.89 513.32 L149.89 512.67 L150.46 512.34 L169.98 523.62 L169.7 524.11 L169.42 524.6 Z" stroke="rgb(0, 0, 0)" stroke-width="0" fill-rule="evenodd" stroke-linejoin="miter" fill="rgb(0, 0, 0)" shape-rendering="geometricPrecision" /></g><g id="Solid"><path d="M100.23 597.38 L100.23 597.38 L100.79 597.71 L100.79 598.36 L76.52 612.38 L76.24 611.89 L75.96 611.4 Z" stroke="rgb(0, 0, 0)" stroke-width="0" fill-rule="evenodd" stroke-linejoin="miter" fill="rgb(0, 0, 0)" shape-rendering="geometricPrecision" /></g><g id="Bold"><path d="M149.15 598.79 L149.15 598.79 L149.89 597.71 L150.46 596.53 L175.18 610.81 L174.44 611.89 L173.7 612.97 Z" stroke="rgb(200, 29, 177)" stroke-width="0" fill-rule="evenodd" stroke-linejoin="miter" fill="rgb(200, 29, 177)" shape-rendering="geometricPrecision" /></g><g id="Solid"><path d="M173.7 612.97 L173.7 612.97 L174.44 611.89 L175.18 610.81 L198.98 597.06 L198.98 597.71 L198.98 598.36 Z" stroke="rgb(0, 0, 0)" stroke-width="0" fill-rule="evenodd" stroke-linejoin="miter" fill="rgb(0, 0, 0)" shape-rendering="geometricPrecision" /><line x1="174.44" y1="606" x2="196.43" y2="593.29" stroke="rgb(0, 0, 0)" stroke-width="1.13" shape-rendering="auto" /></g><g><text xml:space="preserve" text-anchor="start" text-rendering="geometricPrecision"><tspan x="219.21" y="616.61" font-family="Arial" font-size="12" fill="rgb(0, 0, 0)">CO</tspan><tspan font-family="Arial" dy="2.72" font-size="9" fill="rgb(0, 0, 0)">2</tspan><tspan font-family="Arial" dy="-2.72" font-size="12" fill="rgb(0, 0, 0)">Et</tspan></text></g><g id="Solid"><path d="M198.98 598.36 L198.98 598.36 L198.98 597.71 L198.98 597.06 L219.08 608.67 L218.8 609.16 L218.52 609.65 Z" stroke="rgb(0, 0, 0)" stroke-width="0" fill-rule="evenodd" stroke-linejoin="miter" fill="rgb(0, 0, 0)" shape-rendering="geometricPrecision" /></g></g></g></svg>