<?xml version="1.0"?><svg xmlns="http://www.w3.org/2000/svg" xmlns:xlink="http://www.w3.org/1999/xlink" viewBox="335.12 74.35 182.01 146.73" preserveAspectRatio="xMidYMid" width="100%" height="100%"><clipPath id="228"><rect x="0.565" y="0.565" width="768.47" height="522.07" /></clipPath><g id="drawing"><rect x="335.12" y="74.35" width="100%" height="100%" fill="rgb(255, 255, 255)" /><g id="page" clip-path="url(#228)"><g><text xml:space="preserve" text-anchor="start" text-rendering="geometricPrecision"><tspan x="432.15" y="120.9" font-family="Arial" font-size="12" fill="rgb(200, 29, 177)">Y</tspan></text></g><g><text xml:space="preserve" text-anchor="start" text-rendering="geometricPrecision"><tspan x="405.84" y="138.43" font-family="Arial" font-size="12" fill="rgb(0, 0, 0)">X</tspan></text></g><g id="Solid"><path d="M342.85 174.49 L342.85 174.49 L342.28 174.22 L341.71 173.95 L359.68 159.78 L360.24 160.05 L360.22 160.79 Z" stroke="rgb(0, 0, 0)" stroke-width="0" fill-rule="evenodd" stroke-linejoin="miter" fill="rgb(0, 0, 0)" shape-rendering="geometricPrecision" /><line x1="346.4" y1="176.22" x2="360.24" y2="165.3" stroke="rgb(0, 0, 0)" stroke-width="1.13" shape-rendering="auto" /></g><g id="Solid"><path d="M342.85 202.3 L342.85 202.3 L342.28 202.57 L341.71 202.84 L341.71 173.95 L342.28 174.22 L342.85 174.49 Z" stroke="rgb(0, 0, 0)" stroke-width="0" fill-rule="evenodd" stroke-linejoin="miter" fill="rgb(0, 0, 0)" shape-rendering="geometricPrecision" /></g><g id="Solid"><path d="M360.22 216 L360.22 216 L360.24 216.74 L360.22 217.44 L341.71 202.84 L342.28 202.57 L342.85 202.3 Z" stroke="rgb(0, 0, 0)" stroke-width="0" fill-rule="evenodd" stroke-linejoin="miter" fill="rgb(0, 0, 0)" shape-rendering="geometricPrecision" /><line x1="360.24" y1="211.49" x2="346.4" y2="200.57" stroke="rgb(0, 0, 0)" stroke-width="1.13" shape-rendering="auto" /></g><g id="WedgeEnd"><path d="M376.9 201.12 L376.9 201.12 L378.2 202.57 L378.77 204.56 L360.22 217.44 L360.24 216.74 L360.22 216 Z" stroke="rgb(0, 0, 0)" stroke-width="0" fill-rule="evenodd" stroke-linejoin="miter" fill="rgb(0, 0, 0)" shape-rendering="geometricPrecision" /></g><g id="Bold"><path d="M376.9 175.67 L376.9 175.67 L378.2 174.22 L379.5 172.75 L379.51 201.89 L378.2 202.57 L376.9 201.12 Z" stroke="rgb(0, 0, 0)" stroke-width="0" fill-rule="evenodd" stroke-linejoin="miter" fill="rgb(0, 0, 0)" shape-rendering="geometricPrecision" /><line x1="372.36" y1="177.05" x2="372.36" y2="199.74" stroke="rgb(0, 0, 0)" stroke-width="1.13" shape-rendering="auto" /></g><g id="WedgeBegin"><path d="M360.22 160.79 L360.22 160.79 L360.24 160.05 L360.81 159.76 L379.5 172.75 L378.2 174.22 L376.9 175.67 Z" stroke="rgb(0, 0, 0)" stroke-width="0" fill-rule="evenodd" stroke-linejoin="miter" fill="rgb(0, 0, 0)" shape-rendering="geometricPrecision" /></g><g><text xml:space="preserve" text-anchor="start" text-rendering="geometricPrecision"><tspan x="484.06" y="212.34" font-family="Arial" font-size="12" fill="rgb(200, 29, 177)">N</tspan></text></g><g><text xml:space="preserve" text-anchor="start" text-rendering="geometricPrecision"><tspan x="449.33" y="205.67" font-family="Arial" font-size="12" fill="rgb(200, 29, 177)">N</tspan></text></g><g id="Solid"><path d="M494.96 79.65 L494.96 79.65 L495.08 79.01 L495.2 78.37 L517.13 97.35 L516.51 97.56 L515.89 97.77 Z" stroke="rgb(200, 29, 177)" stroke-width="0" fill-rule="evenodd" stroke-linejoin="miter" fill="rgb(200, 29, 177)" shape-rendering="geometricPrecision" /><line x1="493.97" y1="84.8" x2="510.94" y2="99.49" stroke="rgb(200, 29, 177)" stroke-width="1.13" shape-rendering="auto" /></g><g id="Solid"><path d="M468.79 88.73 L468.79 88.73 L468.3 88.3 L467.81 87.87 L495.2 78.37 L495.08 79.01 L494.96 79.65 Z" stroke="rgb(200, 29, 177)" stroke-width="0" fill-rule="evenodd" stroke-linejoin="miter" fill="rgb(200, 29, 177)" shape-rendering="geometricPrecision" /></g><g id="Solid"><path d="M463.57 115.93 L463.57 115.93 L462.95 116.14 L462.48 115.58 L467.81 87.87 L468.3 88.3 L468.79 88.73 Z" stroke="rgb(200, 29, 177)" stroke-width="0" fill-rule="evenodd" stroke-linejoin="miter" fill="rgb(200, 29, 177)" shape-rendering="geometricPrecision" /><line x1="468.52" y1="114.21" x2="472.76" y2="92.16" stroke="rgb(200, 29, 177)" stroke-width="1.13" shape-rendering="auto" /></g><g id="Solid"><path d="M462.48 115.58 L462.48 115.58 L462.95 116.14 L462.74 116.71 L439.3 116.74 L439.3 116.18 L439.3 115.61 Z" stroke="rgb(200, 29, 177)" stroke-width="0" fill-rule="evenodd" stroke-linejoin="miter" fill="rgb(200, 29, 177)" shape-rendering="geometricPrecision" /></g><g id="Solid"><path d="M415.36 130.7 L415.36 130.7 L415.05 130.23 L414.74 129.76 L430.74 119.1 L431.05 119.58 L431.36 120.05 Z" stroke="rgb(0, 0, 0)" stroke-width="0" fill-rule="evenodd" stroke-linejoin="miter" fill="rgb(0, 0, 0)" shape-rendering="geometricPrecision" /><line x1="412.31" y1="126.12" x2="428.32" y2="115.47" stroke="rgb(0, 0, 0)" stroke-width="1.13" shape-rendering="auto" /></g><g id="Solid"><path d="M384.77 118.19 L384.77 118.19 L384.79 117.53 L385.36 117.22 L406.65 130.97 L406.34 131.44 L406.03 131.92 Z" stroke="rgb(0, 0, 0)" stroke-width="0" fill-rule="evenodd" stroke-linejoin="miter" fill="rgb(0, 0, 0)" shape-rendering="geometricPrecision" /></g><g id="Solid"><path d="M360.81 132.03 L360.81 132.03 L360.24 131.7 L360.24 131.05 L384.23 117.2 L384.79 117.53 L384.77 118.19 Z" stroke="rgb(0, 0, 0)" stroke-width="0" fill-rule="evenodd" stroke-linejoin="miter" fill="rgb(0, 0, 0)" shape-rendering="geometricPrecision" /></g><g id="Solid"><path d="M335.12 117.86 L335.12 117.86 L335.69 117.53 L336.26 117.2 L360.24 131.05 L360.24 131.7 L359.68 132.03 Z" stroke="rgb(0, 0, 0)" stroke-width="0" fill-rule="evenodd" stroke-linejoin="miter" fill="rgb(0, 0, 0)" shape-rendering="geometricPrecision" /><line x1="340.79" y1="114.58" x2="360.24" y2="125.81" stroke="rgb(0, 0, 0)" stroke-width="1.13" shape-rendering="auto" /></g><g id="Solid"><path d="M335.12 88.85 L335.12 88.85 L335.69 89.18 L336.26 89.51 L336.26 117.2 L335.69 117.53 L335.12 117.86 Z" stroke="rgb(0, 0, 0)" stroke-width="0" fill-rule="evenodd" stroke-linejoin="miter" fill="rgb(0, 0, 0)" shape-rendering="geometricPrecision" /></g><g id="Solid"><path d="M360.24 74.36 L360.24 74.36 L360.24 75.01 L360.24 75.66 L336.26 89.51 L335.69 89.18 L335.12 88.85 Z" stroke="rgb(0, 0, 0)" stroke-width="0" fill-rule="evenodd" stroke-linejoin="miter" fill="rgb(0, 0, 0)" shape-rendering="geometricPrecision" /><line x1="360.24" y1="80.9" x2="340.79" y2="92.13" stroke="rgb(0, 0, 0)" stroke-width="1.13" shape-rendering="auto" /></g><g id="Solid"><path d="M385.35 88.85 L385.35 88.85 L384.79 89.18 L384.23 89.51 L360.24 75.66 L360.24 75.01 L360.24 74.36 Z" stroke="rgb(0, 0, 0)" stroke-width="0" fill-rule="evenodd" stroke-linejoin="miter" fill="rgb(0, 0, 0)" shape-rendering="geometricPrecision" /></g><g id="Solid"><path d="M385.36 117.22 L385.36 117.22 L384.79 117.53 L384.23 117.2 L384.23 89.51 L384.79 89.18 L385.35 88.85 Z" stroke="rgb(0, 0, 0)" stroke-width="0" fill-rule="evenodd" stroke-linejoin="miter" fill="rgb(0, 0, 0)" shape-rendering="geometricPrecision" /><line x1="379.69" y1="114.58" x2="379.69" y2="92.13" stroke="rgb(0, 0, 0)" stroke-width="1.13" shape-rendering="auto" /></g><g id="Solid"><path d="M359.68 132.03 L359.68 132.03 L360.24 131.7 L360.81 132.03 L360.81 159.76 L360.24 160.05 L359.68 159.78 Z" stroke="rgb(0, 0, 0)" stroke-width="0" fill-rule="evenodd" stroke-linejoin="miter" fill="rgb(0, 0, 0)" shape-rendering="geometricPrecision" /></g><g id="Solid"><path d="M484.5 134.05 L484.5 134.05 L484.38 134.69 L483.76 134.9 L462.74 116.71 L462.95 116.14 L463.57 115.93 Z" stroke="rgb(200, 29, 177)" stroke-width="0" fill-rule="evenodd" stroke-linejoin="miter" fill="rgb(200, 29, 177)" shape-rendering="geometricPrecision" /></g><g id="Solid"><path d="M483.76 134.9 L483.76 134.9 L484.38 134.69 L484.87 135.12 L479.65 162.35 L479.04 162.53 L478.54 162.16 Z" stroke="rgb(200, 29, 177)" stroke-width="0" fill-rule="evenodd" stroke-linejoin="miter" fill="rgb(200, 29, 177)" shape-rendering="geometricPrecision" /></g><g id="WedgeEnd"><path d="M495.29 178.58 L495.29 178.58 L493.73 179.78 L492.17 180.96 L478.88 163.25 L479.04 162.53 L479.65 162.35 Z" stroke="rgb(200, 29, 177)" stroke-width="0" fill-rule="evenodd" stroke-linejoin="miter" fill="rgb(200, 29, 177)" shape-rendering="geometricPrecision" /></g><g id="Bold"><path d="M490.69 202.57 L490.69 202.57 L489.41 202.33 L488.12 202.08 L492.17 180.96 L493.73 179.78 L495.29 178.58 Z" stroke="rgb(200, 29, 177)" stroke-width="0" fill-rule="evenodd" stroke-linejoin="miter" fill="rgb(200, 29, 177)" shape-rendering="geometricPrecision" /><line x1="483.7" y1="201.23" x2="487.5" y2="181.42" stroke="rgb(200, 29, 177)" stroke-width="1.13" shape-rendering="auto" /></g><g id="WedgeBegin"><path d="M468.19 218.89 L468.19 218.89 L468.35 218.2 L468.47 217.47 L482.76 208.38 L483.67 210.11 L484.59 211.84 Z" stroke="rgb(200, 29, 177)" stroke-width="0" fill-rule="evenodd" stroke-linejoin="miter" fill="rgb(200, 29, 177)" shape-rendering="geometricPrecision" /></g><g id="Solid"><path d="M457.64 206.51 L457.64 206.51 L458.07 206.14 L458.5 205.77 L468.47 217.47 L468.35 218.2 L468.19 218.89 Z" stroke="rgb(200, 29, 177)" stroke-width="0" fill-rule="evenodd" stroke-linejoin="miter" fill="rgb(200, 29, 177)" shape-rendering="geometricPrecision" /><line x1="460.82" y1="203.8" x2="469.22" y2="213.65" stroke="rgb(200, 29, 177)" stroke-width="1.13" shape-rendering="auto" /></g><g id="Solid"><path d="M458.5 172.74 L458.5 172.74 L459 173.11 L459.5 173.48 L455.23 195.73 L454.67 195.63 L454.12 195.52 Z" stroke="rgb(200, 29, 177)" stroke-width="0" fill-rule="evenodd" stroke-linejoin="miter" fill="rgb(200, 29, 177)" shape-rendering="geometricPrecision" /></g><g id="Solid"><path d="M478.54 162.16 L478.54 162.16 L479.04 162.53 L478.88 163.25 L459.5 173.48 L459 173.11 L458.5 172.74 Z" stroke="rgb(200, 29, 177)" stroke-width="0" fill-rule="evenodd" stroke-linejoin="miter" fill="rgb(200, 29, 177)" shape-rendering="geometricPrecision" /><line x1="478.05" y1="167.66" x2="462.64" y2="175.8" stroke="rgb(200, 29, 177)" stroke-width="1.13" shape-rendering="auto" /></g><g id="Solid"><path d="M510.68 124.97 L510.68 124.97 L511.17 125.4 L511.66 125.83 L484.87 135.12 L484.38 134.69 L484.5 134.05 Z" stroke="rgb(200, 29, 177)" stroke-width="0" fill-rule="evenodd" stroke-linejoin="miter" fill="rgb(200, 29, 177)" shape-rendering="geometricPrecision" /><line x1="506.71" y1="121.54" x2="485.49" y2="128.9" stroke="rgb(200, 29, 177)" stroke-width="1.13" shape-rendering="auto" /></g><g id="Solid"><path d="M515.89 97.77 L515.89 97.77 L516.51 97.56 L517.13 97.35 L511.66 125.83 L511.17 125.4 L510.68 124.97 Z" stroke="rgb(200, 29, 177)" stroke-width="0" fill-rule="evenodd" stroke-linejoin="miter" fill="rgb(200, 29, 177)" shape-rendering="geometricPrecision" /></g><g><text xml:space="preserve" text-anchor="start" text-rendering="geometricPrecision"><tspan x="393.62" y="221.08" font-family="Arial" font-weight="bold" font-size="12" fill="rgb(0, 0, 0)">H</tspan></text></g><g id="Bold"><path d="M378.77 204.56 L378.77 204.56 L378.2 202.57 L379.51 201.89 L394.02 212.01 L393.27 213.08 L392.52 214.15 Z" stroke="rgb(200, 29, 177)" stroke-width="0" fill-rule="evenodd" stroke-linejoin="miter" fill="rgb(200, 29, 177)" shape-rendering="geometricPrecision" /></g><g id="Oval"><path d="M443.5 104.45 C443.55 104.5 443.65 104.6 443.55 104.5 C443.85 104.8 443.95 104.9 443.85 104.8 C444.15 105.1 444.25 105.2 444.15 105.1 C444.45 105.4 444.55 105.5 444.45 105.4 C444.88 105.7 444.95 105.8 444.88 105.7 C445.1 106.05 445.15 106.1 445.1 106.05 C445.35 106.3 445.45 106.4 445.35 106.3 C445.65 106.6 445.75 106.7 445.65 106.6 C445.95 106.9 446.05 107 445.95 106.9 C446.2 107.15 446.3 107.35 446.2 107.15 C446.45 107.5 446.55 107.6 446.45 107.5 C446.75 107.8 446.8 107.85 446.75 107.8 C446.95 108.1 447.05 108.2 446.95 108.1 C447.2 108.45 447.25 108.5 447.2 108.45 C447.45 108.7 447.5 108.75 447.45 108.7 C447.65 109 447.75 109.1 447.65 109 C447.9 109.35 447.95 109.4 447.9 109.35 C448.1 109.65 448.15 109.7 448.1 109.65 C448.3 109.95 448.35 110 448.3 109.95 C448.5 110.25 448.55 110.3 448.5 110.25 C448.7 110.55 448.75 110.6 448.7 110.55 C448.9 110.85 448.95 110.9 448.9 110.85 C449.1 111.15 449.2 111.35 449.1 111.15 C449.35 111.6 449.4 111.65 449.35 111.6 C449.6 112.05 449.65 112.1 449.6 112.05 C449.8 112.35 449.9 112.55 449.8 112.35 C450.1 112.95 450.2 113.15 450.1 112.95 C450.4 113.55 450.5 113.85 450.4 113.55 C450.7 114.25 450.8 114.45 450.7 114.25 C451 114.95 451.1 115.25 451 114.95 C451.3 115.75 451.4 115.95 451.3 115.75 C451.6 116.55 451.7 116.85 451.6 116.55 C451.9 117.45 452 117.85 451.9 117.45 C452.2 118.55 452.3 118.95 452.2 118.55 C452.5 119.85 452.6 120.35 452.5 119.85 C452.8 121.55 452.9 122.35 452.8 121.55 C453 127.55 452.9 128.65 453 127.55 C452.7 130.15 452.6 130.65 452.7 130.15 C452.4 131.65 452.3 132.05 452.4 131.65 C452.1 132.85 452 133.25 452.1 132.85 C451.8 133.85 451.7 134.15 451.8 133.85 C451.5 134.75 451.4 135.05 451.5 134.75 C451.2 135.55 451.1 135.85 451.2 135.55 C450.9 136.35 450.8 136.55 450.9 136.35 C450.6 137.05 450.5 137.25 450.6 137.05 C450.3 137.65 450.2 137.85 450.3 137.65 C450 138.25 449.9 138.45 450 138.25 C449.7 138.85 449.6 139.05 449.7 138.85 C449.5 139.15 449.4 139.35 449.5 139.15 C449.2 139.75 449.15 139.8 449.2 139.75 C449 140.05 448.95 140.1 449 140.05 C448.8 140.35 448.7 140.55 448.8 140.35 C448.6 140.65 448.5 140.85 448.6 140.65 C448.4 140.95 448.3 141.15 448.4 140.95 C448.2 141.25 448.1 141.45 448.2 141.25 C447.95 141.6 447.9 141.65 447.95 141.6 C447.75 141.9 447.7 141.95 447.75 141.9 C447.55 142.2 447.45 142.3 447.55 142.2 C447.3 142.55 447.25 142.6 447.3 142.55 C447.05 142.8 447 142.85 447.05 142.8 C446.85 143.1 446.75 143.2 446.85 143.1 C446.6 143.35 446.5 143.55 446.6 143.35 C446.35 143.7 446.25 143.8 446.35 143.7 C446.05 144 445.95 144.1 446.05 144 C445.8 144.35 445.75 144.4 445.8 144.35 C445.55 144.6 445.45 144.7 445.55 144.6 C445.25 144.9 445.15 145 445.25 144.9 C444.95 145.2 444.85 145.3 444.95 145.2 C444.65 145.5 444.55 145.6 444.65 145.5 C444.35 145.8 444.25 145.9 444.35 145.8 C444.08 146.1 443.83 146.2 444.08 146.1 C443.65 146.4 443.55 146.5 443.65 146.4 C443.35 146.7 443.27 146.8 443.35 146.7 C442.95 147 442.85 147.1 442.95 147 C442.52 147.3 442.45 147.4 442.52 147.3 C442.27 147.6 442.02 147.7 442.27 147.6 C441.88 147.9 441.62 148 441.88 147.9 C441.48 148.2 441.23 148.3 441.48 148.2 C440.92 148.5 440.88 148.6 440.92 148.5 C440.58 148.8 440.33 148.9 440.58 148.8 C440.02 149.1 439.98 149.2 440.02 149.1 C439.52 149.4 439.48 149.5 439.52 149.4 C439.05 149.7 438.83 149.8 439.05 149.7 C438.55 150 438.35 150.1 438.55 150 C437.95 150.3 437.75 150.4 437.95 150.3 C437.35 150.6 437.15 150.7 437.35 150.6 C436.75 150.9 436.55 151 436.75 150.9 C436.05 151.2 435.85 151.3 436.05 151.2 C435.35 151.5 435.05 151.6 435.35 151.5 C434.55 151.8 434.25 151.9 434.55 151.8 C433.65 152.1 433.25 152.2 433.65 152.1 C432.65 152.4 432.25 152.5 432.65 152.4 C431.35 152.7 430.95 152.8 431.35 152.7 C429.85 153 429.25 153.1 429.85 153 C427.45 153.3 422.95 153.3 427.45 153.3 C421.15 153.1 420.55 153 421.15 153.1 C419.45 152.8 419.05 152.7 419.45 152.8 C418.15 152.5 417.75 152.4 418.15 152.5 C417.15 152.2 416.75 152.1 417.15 152.2 C416.15 151.9 415.85 151.8 416.15 151.9 C415.35 151.6 415.05 151.5 415.35 151.6 C414.55 151.3 414.35 151.2 414.55 151.3 C413.85 151 413.65 150.9 413.85 151 C413.25 150.7 413.05 150.6 413.25 150.7 C412.65 150.4 412.45 150.3 412.65 150.4 C412.05 150.1 411.85 150 412.05 150.1 C411.58 149.8 411.35 149.7 411.58 149.8 C410.92 149.5 410.88 149.4 410.92 149.5 C410.42 149.2 410.38 149.1 410.42 149.2 C410.08 148.9 409.83 148.8 410.08 148.9 C409.52 148.6 409.48 148.5 409.52 148.6 C409.17 148.3 408.92 148.2 409.17 148.3 C408.77 148 408.52 147.9 408.77 148 C408.38 147.7 408.12 147.6 408.38 147.7 C407.95 147.4 407.88 147.3 407.95 147.4 C407.55 147.1 407.45 147 407.55 147.1 C407.12 146.8 407.05 146.7 407.12 146.8 C406.85 146.5 406.75 146.4 406.85 146.5 C406.58 146.2 406.33 146.1 406.58 146.2 C406.15 145.9 406.05 145.8 406.15 145.9 C405.85 145.6 405.75 145.5 405.85 145.6 C405.55 145.3 405.45 145.2 405.55 145.3 C405.25 145 405.15 144.9 405.25 145 C404.95 144.7 404.85 144.6 404.95 144.7 C404.65 144.4 404.6 144.35 404.65 144.4 C404.45 144.1 404.38 144 404.45 144.1 C404.65 144.1 404.75 144.2 404.65 144.1 C405.08 144.4 405.15 144.5 405.08 144.4 C405.48 144.7 405.52 144.8 405.48 144.7 C405.85 145 405.92 145.1 405.85 145 C406.23 145.3 406.48 145.4 406.23 145.3 C406.77 145.6 406.83 145.7 406.77 145.6 C407.27 145.9 407.33 146 407.27 145.9 C407.62 146.2 407.85 146.3 407.62 146.2 C408.27 146.5 408.33 146.6 408.27 146.5 C408.75 146.8 408.95 146.9 408.75 146.8 C409.35 147.1 409.55 147.2 409.35 147.1 C409.95 147.4 410.15 147.5 409.95 147.4 C410.65 147.7 410.85 147.8 410.65 147.7 C411.35 148 411.55 148.1 411.35 148 C412.05 148.3 412.35 148.4 412.05 148.3 C412.95 148.6 413.25 148.7 412.95 148.6 C413.85 148.9 414.15 149 413.85 148.9 C414.85 149.2 415.35 149.3 414.85 149.2 C416.25 149.5 416.75 149.6 416.25 149.5 C417.95 149.8 418.75 149.9 417.95 149.8 C423.85 150 425.05 149.9 423.85 150 C426.45 149.7 427.05 149.6 426.45 149.7 C427.95 149.4 428.45 149.3 427.95 149.4 C429.15 149.1 429.55 149 429.15 149.1 C430.25 148.8 430.55 148.7 430.25 148.8 C431.15 148.5 431.45 148.4 431.15 148.5 C431.95 148.2 432.15 148.1 431.95 148.2 C432.65 147.9 432.95 147.8 432.65 147.9 C433.35 147.6 433.55 147.5 433.35 147.6 C434.05 147.3 434.25 147.2 434.05 147.3 C434.65 147 434.88 146.9 434.65 147 C435.15 146.7 435.35 146.6 435.15 146.7 C435.77 146.4 435.83 146.3 435.77 146.4 C436.27 146.1 436.33 146 436.27 146.1 C436.77 145.8 436.83 145.7 436.77 145.8 C437.12 145.5 437.38 145.4 437.12 145.5 C437.67 145.2 437.73 145.1 437.67 145.2 C438.05 144.9 438.12 144.8 438.05 144.9 C438.42 144.6 438.67 144.5 438.42 144.6 C438.85 144.3 438.92 144.2 438.85 144.3 C439.25 144 439.33 143.9 439.25 144 C439.65 143.7 439.75 143.6 439.65 143.7 C439.95 143.4 440.02 143.3 439.95 143.4 C440.35 143.1 440.45 143 440.35 143.1 C440.65 142.8 440.75 142.7 440.65 142.8 C440.95 142.5 441.05 142.4 440.95 142.5 C441.25 142.2 441.33 142.1 441.25 142.2 C441.65 141.9 441.7 141.85 441.65 141.9 C441.85 141.6 441.95 141.5 441.85 141.6 C442.15 141.3 442.25 141.2 442.15 141.3 C442.45 141 442.55 140.9 442.45 141 C442.75 140.7 442.8 140.65 442.75 140.7 C442.95 140.4 443.05 140.3 442.95 140.4 C443.25 140.1 443.35 140 443.25 140.1 C443.5 139.75 443.55 139.7 443.5 139.75 C443.75 139.5 443.8 139.45 443.75 139.5 C443.95 139.2 444.05 139.1 443.95 139.2 C444.2 138.95 444.3 138.75 444.2 138.95 C444.4 138.65 444.5 138.45 444.4 138.65 C444.65 138.3 444.7 138.25 444.65 138.3 C444.85 138 444.9 137.95 444.85 138 C445.05 137.7 445.1 137.65 445.05 137.7 C445.25 137.4 445.3 137.35 445.25 137.4 C445.5 136.95 445.55 136.9 445.5 136.95 C445.7 136.65 445.75 136.6 445.7 136.65 C445.9 136.35 446 136.15 445.9 136.35 C446.15 135.9 446.2 135.85 446.15 135.9 C446.4 135.45 446.5 135.25 446.4 135.45 C446.7 134.85 446.8 134.65 446.7 134.85 C447 134.25 447.1 134.05 447 134.25 C447.3 133.65 447.4 133.45 447.3 133.65 C447.6 132.95 447.7 132.75 447.6 132.95 C447.9 132.15 448 131.95 447.9 132.15 C448.2 131.35 448.3 131.05 448.2 131.35 C448.5 130.45 448.6 130.15 448.5 130.45 C448.8 129.45 448.9 129.05 448.8 129.45 C449.1 128.25 449.2 127.75 449.1 128.25 C449.4 126.65 449.5 125.95 449.4 126.65 C449.7 123.85 449.7 120.55 449.7 123.85 C449.5 118.45 449.4 117.75 449.5 118.45 C449.2 116.65 449.1 116.25 449.2 116.65 C448.9 115.35 448.8 114.95 448.9 115.35 C448.6 114.25 448.5 113.95 448.6 114.25 C448.3 113.35 448.2 113.05 448.3 113.35 C448 112.45 447.9 112.25 448 112.45 C447.7 111.65 447.6 111.45 447.7 111.65 C447.4 110.95 447.3 110.75 447.4 110.95 C447.1 110.35 447 110.15 447.1 110.35 C446.8 109.75 446.7 109.55 446.8 109.75 C446.5 109.15 446.4 108.95 446.5 109.15 C446.2 108.55 446.15 108.5 446.2 108.55 C446 108.25 445.9 108.05 446 108.25 C445.75 107.8 445.7 107.75 445.75 107.8 C445.55 107.5 445.5 107.45 445.55 107.5 C445.3 107.05 445.25 107 445.3 107.05 C445.1 106.75 445.05 106.7 445.1 106.75 C444.9 106.45 444.85 106.4 444.9 106.45 C444.7 106.15 444.65 106.1 444.7 106.15 C444.5 105.95 444.4 105.75 444.5 105.95 C444.3 105.65 444.2 105.45 444.3 105.65 C444.05 105.3 443.95 105.2 444.05 105.3 C443.8 104.95 443.75 104.9 443.8 104.95 C443.55 104.7 443.5 104.65 443.55 104.7 " stroke="rgb(213, 195, 211)" stroke-width="0.07" fill-rule="evenodd" stroke-linejoin="bevel" fill="rgb(213, 195, 211)" shape-rendering="geometricPrecision" /><circle cx="421.91" cy="122.23" r="27.315" stroke="rgb(87, 12, 77)" stroke-width="1.13" fill="none" /></g></g></g></svg>