<?xml version="1.0"?><svg xmlns="http://www.w3.org/2000/svg" xmlns:xlink="http://www.w3.org/1999/xlink" viewBox="4.81 245.13 763.59 197.47" preserveAspectRatio="xMidYMid" width="100%" height="100%"><clipPath id="481"><rect x="0.565" y="0.565" width="768.47" height="522.07" /></clipPath><g id="drawing"><rect x="4.81" y="245.13" width="100%" height="100%" fill="rgb(255, 255, 255)" /><g id="page" clip-path="url(#481)"><g id="Arrow"><line x1="538.17" y1="322.07" x2="444.4" y2="322.07" stroke="rgb(0, 0, 0)" stroke-width="1.13" shape-rendering="auto" /><path d="M547.06 322.07 L535.76 319.24 C537.61 320.83 537.61 323.31 535.76 324.9 Z" stroke="rgb(0, 0, 0)" stroke-width="0" fill-rule="evenodd" stroke-linejoin="miter" stroke-miterlimit="13.0613876038637" fill="rgb(0, 0, 0)" shape-rendering="geometricPrecision" /></g><g><text xml:space="preserve" text-anchor="middle" text-rendering="geometricPrecision"><tspan x="432.43" y="303" font-family="Arial" font-size="12" fill="rgb(0, 0, 0)">TDG (imine formation)</tspan></text></g><g><text xml:space="preserve" text-anchor="middle" text-rendering="geometricPrecision"><tspan x="432.43" y="351.55" font-family="Arial" font-size="12" fill="rgb(0, 0, 0)">Pd(OAc)</tspan><tspan font-family="Arial" dy="2.72" font-size="9" fill="rgb(0, 0, 0)">2</tspan><tspan font-family="Arial" dy="-2.72" font-size="12" fill="rgb(0, 0, 0)"> (10 mol%), </tspan><tspan font-family="Arial" font-style="italic" font-size="12" fill="rgb(0, 0, 0)">N</tspan><tspan font-family="Arial" font-size="12" fill="rgb(0, 0, 0)">-Form-Gly-OH (20 mol%)</tspan><tspan x="432.43" y="369.95" font-family="Arial" font-size="12" fill="rgb(0, 0, 0)">Ag</tspan><tspan font-family="Arial" dy="2.72" font-size="9" fill="rgb(0, 0, 0)">2</tspan><tspan font-family="Arial" dy="-2.72" font-size="12" fill="rgb(0, 0, 0)">CO</tspan><tspan font-family="Arial" dy="2.72" font-size="9" fill="rgb(0, 0, 0)">3</tspan><tspan font-family="Arial" dy="-2.72" font-size="12" fill="rgb(0, 0, 0)"> (2.5 eq.), Cu(OAc)</tspan><tspan font-family="Arial" dy="2.72" font-size="9" fill="rgb(0, 0, 0)">2</tspan><tspan font-family="Arial" dy="-2.72" font-size="12" fill="rgb(0, 0, 0)"> </tspan><tspan font-family="Arial" font-size="12" fill="rgb(0, 0, 0)">(3.5 eq.) </tspan><tspan x="432.43" y="388.35" font-family="Arial" font-size="12" fill="rgb(0, 0, 0)">DCE, 100 °</tspan><tspan font-family="Arial" font-size="12" fill="rgb(0, 0, 0)">C, 24 h; H</tspan><tspan font-family="Arial" dy="2.72" font-size="9" fill="rgb(0, 0, 0)">3</tspan><tspan font-family="Arial" dy="-2.72" font-size="12" fill="rgb(0, 0, 0)">O</tspan><tspan font-family="Arial" dy="-4.89" font-size="9" fill="rgb(0, 0, 0)">+</tspan><tspan font-family="Arial" dy="4.89" font-size="12" fill="rgb(0, 0, 0)"> work up</tspan></text></g><g id="Charge367"><line x1="162.36" y1="337.38" x2="173.14" y2="337.38" stroke="rgb(0, 0, 0)" stroke-width="0.904" shape-rendering="auto" /><line x1="167.75" y1="331.99" x2="167.75" y2="342.77" stroke="rgb(0, 0, 0)" stroke-width="0.904" shape-rendering="auto" /></g><g id="Solid"><path d="M41.06 279.5 L41.06 279.5 L41.63 279.83 L42.2 280.16 L42.2 307.84 L41.63 308.17 L41.06 308.5 Z" stroke="rgb(0, 0, 0)" stroke-width="0" fill-rule="evenodd" stroke-linejoin="miter" fill="rgb(0, 0, 0)" shape-rendering="geometricPrecision" /><line x1="46.73" y1="282.77" x2="46.73" y2="305.23" stroke="rgb(0, 0, 0)" stroke-width="1.13" shape-rendering="auto" /></g><g id="Solid"><g id="Bond's parts"><path d="M42.03 307.9 L42.03 307.9 L42.25 307.9 L42.45 308 L42.65 308.1 L42.88 308.2 L42.92 308.3 L43.15 308.4 L43.35 308.5 L43.58 308.6 L43.62 308.7 L43.85 308.8 L44.08 308.9 L44.12 309 L44.35 309.1 L44.55 309.2 L44.78 309.3 L44.83 309.4 L45.05 309.5 L45.25 309.6 L45.47 309.7 L45.53 309.8 L45.75 309.9 L45.97 310 L46.03 310.1 L46.25 310.2 L46.45 310.3 L46.67 310.4 L46.72 310.5 L46.95 310.6 L47.15 310.7 L47.38 310.8 L47.42 310.9 L47.65 311 L47.85 311.1 L48.08 311.2 L48.12 311.3 L48.35 311.4 L48.58 311.5 L48.62 311.6 L48.85 311.7 L49.05 311.8 L49.28 311.9 L49.33 312 L49.55 312.1 L49.75 312.2 L49.97 312.3 L50.03 312.4 L50.25 312.5 L50.45 312.6 L50.67 312.7 L50.72 312.8 L50.95 312.9 L51.17 313 L51.22 313.1 L51.45 313.2 L51.65 313.3 L51.88 313.4 L51.92 313.5 L52.15 313.6 L52.35 313.7 L52.58 313.8 L52.62 313.9 L52.85 314 L53.08 314.1 L53.12 314.2 L53.35 314.3 L53.55 314.4 L53.78 314.5 L53.83 314.6 L54.05 314.7 L54.25 314.8 L54.47 314.9 L54.53 315 L54.75 315.1 L54.95 315.2 L55.17 315.3 L55.22 315.4 L55.45 315.5 L55.67 315.6 L55.72 315.7 L55.95 315.8 L56.15 315.9 L56.38 316 L56.42 316.1 L56.65 316.2 L56.85 316.3 L57.08 316.4 L57.12 316.5 L57.35 316.6 L57.58 316.7 L57.62 316.8 L57.85 316.9 L58.05 317 L58.28 317.1 L58.33 317.2 L58.55 317.3 L58.75 317.4 L58.97 317.5 L59.03 317.6 L59.25 317.7 L59.45 317.8 L59.67 317.9 L59.72 318 L59.95 318.1 L60.17 318.2 L60.22 318.3 L60.45 318.4 L60.65 318.5 L60.88 318.6 L60.92 318.7 L61.15 318.8 L61.35 318.9 L61.58 319 L61.62 319.1 L61.85 319.2 L62.08 319.3 L62.12 319.4 L62.35 319.5 L62.55 319.6 L62.78 319.7 L62.83 319.8 L63.05 319.9 L63.25 320 L63.47 320.1 L63.53 320.2 L63.75 320.3 L63.95 320.4 L64.18 320.5 L64.22 320.6 L64.45 320.7 L64.68 320.8 L64.72 320.9 L64.95 321 L65.15 321.1 L65.38 321.2 L65.43 321.3 L65.65 321.4 L65.85 321.5 L66.07 321.6 L66.1 321.65 L66.1 322.35 L66.05 322.4 L65.97 322.5 L65.75 322.6 L65.43 322.6 L65.38 322.5 L65.15 322.4 L64.95 322.3 L64.72 322.2 L64.68 322.1 L64.45 322 L64.25 321.9 L64.03 321.8 L63.97 321.7 L63.75 321.6 L63.53 321.5 L63.47 321.4 L63.25 321.3 L63.05 321.2 L62.83 321.1 L62.78 321 L62.55 320.9 L62.35 320.8 L62.12 320.7 L62.08 320.6 L61.85 320.5 L61.62 320.4 L61.58 320.3 L61.35 320.2 L61.15 320.1 L60.92 320 L60.88 319.9 L60.65 319.8 L60.45 319.7 L60.22 319.6 L60.17 319.5 L59.95 319.4 L59.75 319.3 L59.53 319.2 L59.47 319.1 L59.25 319 L59.03 318.9 L58.97 318.8 L58.75 318.7 L58.55 318.6 L58.33 318.5 L58.28 318.4 L58.05 318.3 L57.85 318.2 L57.62 318.1 L57.58 318 L57.35 317.9 L57.15 317.8 L56.92 317.7 L56.88 317.6 L56.65 317.5 L56.42 317.4 L56.38 317.3 L56.15 317.2 L55.95 317.1 L55.72 317 L55.67 316.9 L55.45 316.8 L55.25 316.7 L55.03 316.6 L54.97 316.5 L54.75 316.4 L54.53 316.3 L54.47 316.2 L54.25 316.1 L54.05 316 L53.83 315.9 L53.78 315.8 L53.55 315.7 L53.35 315.6 L53.12 315.5 L53.08 315.4 L52.85 315.3 L52.65 315.2 L52.42 315.1 L52.38 315 L52.15 314.9 L51.92 314.8 L51.88 314.7 L51.65 314.6 L51.45 314.5 L51.22 314.4 L51.17 314.3 L50.95 314.2 L50.75 314.1 L50.53 314 L50.47 313.9 L50.25 313.8 L50.03 313.7 L49.97 313.6 L49.75 313.5 L49.55 313.4 L49.33 313.3 L49.28 313.2 L49.05 313.1 L48.85 313 L48.62 312.9 L48.58 312.8 L48.35 312.7 L48.15 312.6 L47.92 312.5 L47.88 312.4 L47.65 312.3 L47.42 312.2 L47.38 312.1 L47.15 312 L46.95 311.9 L46.72 311.8 L46.67 311.7 L46.45 311.6 L46.25 311.5 L46.03 311.4 L45.97 311.3 L45.75 311.2 L45.53 311.1 L45.47 311 L45.25 310.9 L45.05 310.8 L44.83 310.7 L44.78 310.6 L44.55 310.5 L44.35 310.4 L44.12 310.3 L44.08 310.2 L43.85 310.1 L43.65 310 L43.42 309.9 L43.38 309.8 L43.15 309.7 L42.92 309.6 L42.88 309.5 L42.65 309.4 L42.45 309.3 L42.22 309.2 L42.17 309.1 L41.95 309 L41.75 308.9 L41.53 308.8 L41.47 308.7 L41.25 308.6 L41.05 308.5 L41.25 308.4 L41.47 308.3 L41.53 308.2 L41.75 308.1 L41.97 308 Z" stroke="rgb(0, 0, 0)" stroke-width="0" fill-rule="evenodd" stroke-linejoin="miter" fill="rgb(0, 0, 0)" shape-rendering="geometricPrecision" /></g></g><g id="Solid"><path d="M66.75 322.68 L66.75 322.68 L66.18 322.35 L66.18 321.7 L90.16 307.84 L90.72 308.17 L90.72 308.82 Z" stroke="rgb(0, 0, 0)" stroke-width="0" fill-rule="evenodd" stroke-linejoin="miter" fill="rgb(0, 0, 0)" shape-rendering="geometricPrecision" /><line x1="66.18" y1="316.46" x2="85.62" y2="305.23" stroke="rgb(0, 0, 0)" stroke-width="1.13" shape-rendering="auto" /></g><g id="Solid"><path d="M91.29 307.84 L91.29 307.84 L90.72 308.17 L90.16 307.84 L90.16 280.16 L90.72 279.83 L91.28 279.5 Z" stroke="rgb(0, 0, 0)" stroke-width="0" fill-rule="evenodd" stroke-linejoin="miter" fill="rgb(0, 0, 0)" shape-rendering="geometricPrecision" /></g><g id="Solid"><path d="M91.28 279.5 L91.28 279.5 L90.72 279.83 L90.16 280.16 L66.18 266.3 L66.18 265.65 L66.18 265 Z" stroke="rgb(0, 0, 0)" stroke-width="0" fill-rule="evenodd" stroke-linejoin="miter" fill="rgb(0, 0, 0)" shape-rendering="geometricPrecision" /><line x1="85.62" y1="282.77" x2="66.18" y2="271.54" stroke="rgb(0, 0, 0)" stroke-width="1.13" shape-rendering="auto" /></g><g id="Solid"><path d="M66.18 265 L66.18 265 L66.18 265.65 L66.18 266.3 L42.2 280.16 L41.63 279.83 L41.06 279.5 Z" stroke="rgb(0, 0, 0)" stroke-width="0" fill-rule="evenodd" stroke-linejoin="miter" fill="rgb(0, 0, 0)" shape-rendering="geometricPrecision" /></g><g id="Solid"><path d="M65.62 322.68 L65.62 322.68 L66.18 322.35 L66.75 322.68 L66.75 350.36 L66.18 350.69 L65.62 350.36 Z" stroke="rgb(0, 0, 0)" stroke-width="0" fill-rule="evenodd" stroke-linejoin="miter" fill="rgb(0, 0, 0)" shape-rendering="geometricPrecision" /></g><g id="Solid"><path d="M65.62 350.36 L65.62 350.36 L66.18 350.69 L66.18 351.34 L42.2 365.2 L41.63 364.87 L41.06 364.54 Z" stroke="rgb(0, 0, 0)" stroke-width="0" fill-rule="evenodd" stroke-linejoin="miter" fill="rgb(0, 0, 0)" shape-rendering="geometricPrecision" /><line x1="66.18" y1="356.58" x2="46.73" y2="367.82" stroke="rgb(0, 0, 0)" stroke-width="1.13" shape-rendering="auto" /></g><g id="Solid"><path d="M41.06 364.54 L41.06 364.54 L41.63 364.87 L42.2 365.2 L42.2 392.88 L41.63 393.21 L41.07 392.88 Z" stroke="rgb(0, 0, 0)" stroke-width="0" fill-rule="evenodd" stroke-linejoin="miter" fill="rgb(0, 0, 0)" shape-rendering="geometricPrecision" /></g><g id="Solid"><path d="M41.63 393.86 L41.63 393.86 L41.63 393.21 L42.2 392.88 L66.18 406.74 L66.18 407.39 L66.18 408.04 Z" stroke="rgb(0, 0, 0)" stroke-width="0" fill-rule="evenodd" stroke-linejoin="miter" fill="rgb(0, 0, 0)" shape-rendering="geometricPrecision" /><line x1="46.73" y1="390.26" x2="66.18" y2="401.5" stroke="rgb(0, 0, 0)" stroke-width="1.13" shape-rendering="auto" /></g><g id="Solid"><path d="M66.18 408.04 L66.18 408.04 L66.18 407.39 L66.18 406.74 L90.16 392.88 L90.72 393.21 L91.28 393.54 Z" stroke="rgb(0, 0, 0)" stroke-width="0" fill-rule="evenodd" stroke-linejoin="miter" fill="rgb(0, 0, 0)" shape-rendering="geometricPrecision" /></g><g id="Solid"><path d="M91.28 393.54 L91.28 393.54 L90.72 393.21 L90.16 392.88 L90.16 365.2 L90.72 364.87 L91.28 364.54 Z" stroke="rgb(0, 0, 0)" stroke-width="0" fill-rule="evenodd" stroke-linejoin="miter" fill="rgb(0, 0, 0)" shape-rendering="geometricPrecision" /><line x1="85.62" y1="390.27" x2="85.62" y2="367.81" stroke="rgb(0, 0, 0)" stroke-width="1.13" shape-rendering="auto" /></g><g id="Solid"><path d="M91.28 364.54 L91.28 364.54 L90.72 364.87 L90.16 365.2 L66.18 351.34 L66.18 350.69 L66.75 350.36 Z" stroke="rgb(0, 0, 0)" stroke-width="0" fill-rule="evenodd" stroke-linejoin="miter" fill="rgb(0, 0, 0)" shape-rendering="geometricPrecision" /></g><g id="Solid"><path d="M90.72 308.82 L90.72 308.82 L90.72 308.17 L91.29 307.84 L110.88 319.16 L110.6 319.65 L110.32 320.14 Z" stroke="rgb(0, 0, 0)" stroke-width="0" fill-rule="evenodd" stroke-linejoin="miter" fill="rgb(0, 0, 0)" shape-rendering="geometricPrecision" /></g><g><text xml:space="preserve" text-anchor="start" text-rendering="geometricPrecision"><tspan x="110.95" y="327.07" font-family="Arial" font-size="12" fill="rgb(0, 0, 0)">CHO</tspan></text></g><g id="Solid"><path d="M200.71 345.49 L200.71 345.49 L200.43 345 L200.15 344.51 L224.97 330.18 L224.97 330.83 L224.97 331.48 Z" stroke="rgb(0, 0, 0)" stroke-width="0" fill-rule="evenodd" stroke-linejoin="miter" fill="rgb(0, 0, 0)" shape-rendering="geometricPrecision" /><line x1="197.88" y1="340.58" x2="222.42" y2="326.41" stroke="rgb(0, 0, 0)" stroke-width="1.13" shape-rendering="auto" /></g><g><text xml:space="preserve" text-anchor="start" text-rendering="geometricPrecision"><tspan x="245.2" y="349.72" font-family="Arial" font-size="12" fill="rgb(0, 0, 0)">CO</tspan><tspan font-family="Arial" dy="2.72" font-size="9" fill="rgb(0, 0, 0)">2</tspan><tspan font-family="Arial" dy="-2.72" font-size="12" fill="rgb(0, 0, 0)">Et</tspan></text></g><g id="Solid"><path d="M224.97 331.48 L224.97 331.48 L224.97 330.83 L224.97 330.18 L245.08 341.79 L244.8 342.28 L244.52 342.77 Z" stroke="rgb(0, 0, 0)" stroke-width="0" fill-rule="evenodd" stroke-linejoin="miter" fill="rgb(0, 0, 0)" shape-rendering="geometricPrecision" /></g><g><text xml:space="preserve" text-anchor="start" text-rendering="geometricPrecision"><tspan x="413.68" y="325.5" font-family="Arial" font-style="italic" font-size="12" fill="rgb(0, 0, 0)">then</tspan></text></g><line x1="406.88" y1="321.97" x2="315.43" y2="321.97" stroke="rgb(0, 0, 0)" stroke-width="1.13" shape-rendering="auto" /><g id="Solid"><path d="M41.07 392.88 L41.07 392.88 L41.63 393.21 L41.63 393.86 L17.36 407.88 L17.08 407.39 L16.8 406.9 Z" stroke="rgb(0, 0, 0)" stroke-width="0" fill-rule="evenodd" stroke-linejoin="miter" fill="rgb(0, 0, 0)" shape-rendering="geometricPrecision" /></g><g id="Solid"><path d="M602.06 280 L602.06 280 L602.63 280.33 L603.2 280.66 L603.2 308.34 L602.63 308.67 L602.06 309 Z" stroke="rgb(0, 0, 0)" stroke-width="0" fill-rule="evenodd" stroke-linejoin="miter" fill="rgb(0, 0, 0)" shape-rendering="geometricPrecision" /><line x1="607.73" y1="283.27" x2="607.73" y2="305.73" stroke="rgb(0, 0, 0)" stroke-width="1.13" shape-rendering="auto" /></g><g id="Solid"><path d="M602.06 309 L602.06 309 L602.63 308.67 L603.2 308.34 L627.18 322.2 L627.18 322.85 L626.62 323.18 Z" stroke="rgb(0, 0, 0)" stroke-width="0" fill-rule="evenodd" stroke-linejoin="miter" fill="rgb(0, 0, 0)" shape-rendering="geometricPrecision" /></g><g id="Solid"><path d="M627.75 323.18 L627.75 323.18 L627.18 322.85 L627.18 322.2 L651.16 308.34 L651.72 308.67 L651.72 309.32 Z" stroke="rgb(0, 0, 0)" stroke-width="0" fill-rule="evenodd" stroke-linejoin="miter" fill="rgb(0, 0, 0)" shape-rendering="geometricPrecision" /><line x1="627.18" y1="316.96" x2="646.62" y2="305.73" stroke="rgb(0, 0, 0)" stroke-width="1.13" shape-rendering="auto" /></g><g id="Solid"><path d="M652.29 308.34 L652.29 308.34 L651.72 308.67 L651.16 308.34 L651.16 280.66 L651.72 280.33 L652.28 280 Z" stroke="rgb(0, 0, 0)" stroke-width="0" fill-rule="evenodd" stroke-linejoin="miter" fill="rgb(0, 0, 0)" shape-rendering="geometricPrecision" /></g><g id="Solid"><path d="M652.28 280 L652.28 280 L651.72 280.33 L651.16 280.66 L627.18 266.8 L627.18 266.15 L627.18 265.5 Z" stroke="rgb(0, 0, 0)" stroke-width="0" fill-rule="evenodd" stroke-linejoin="miter" fill="rgb(0, 0, 0)" shape-rendering="geometricPrecision" /><line x1="646.62" y1="283.27" x2="627.18" y2="272.04" stroke="rgb(0, 0, 0)" stroke-width="1.13" shape-rendering="auto" /></g><g id="Solid"><path d="M627.18 265.5 L627.18 265.5 L627.18 266.15 L627.18 266.8 L603.2 280.66 L602.63 280.33 L602.06 280 Z" stroke="rgb(0, 0, 0)" stroke-width="0" fill-rule="evenodd" stroke-linejoin="miter" fill="rgb(0, 0, 0)" shape-rendering="geometricPrecision" /></g><g id="Solid"><path d="M626.62 323.18 L626.62 323.18 L627.18 322.85 L627.75 323.18 L627.75 350.86 L627.18 351.19 L626.62 350.86 Z" stroke="rgb(0, 0, 0)" stroke-width="0" fill-rule="evenodd" stroke-linejoin="miter" fill="rgb(0, 0, 0)" shape-rendering="geometricPrecision" /></g><g id="Solid"><path d="M626.62 350.86 L626.62 350.86 L627.18 351.19 L627.18 351.84 L603.2 365.7 L602.63 365.37 L602.06 365.04 Z" stroke="rgb(0, 0, 0)" stroke-width="0" fill-rule="evenodd" stroke-linejoin="miter" fill="rgb(0, 0, 0)" shape-rendering="geometricPrecision" /><line x1="627.18" y1="357.08" x2="607.73" y2="368.32" stroke="rgb(0, 0, 0)" stroke-width="1.13" shape-rendering="auto" /></g><g id="Solid"><path d="M602.06 365.04 L602.06 365.04 L602.63 365.37 L603.2 365.7 L603.2 393.38 L602.63 393.71 L602.07 393.38 Z" stroke="rgb(0, 0, 0)" stroke-width="0" fill-rule="evenodd" stroke-linejoin="miter" fill="rgb(0, 0, 0)" shape-rendering="geometricPrecision" /></g><g id="Solid"><path d="M602.63 394.36 L602.63 394.36 L602.63 393.71 L603.2 393.38 L627.18 407.24 L627.18 407.89 L627.18 408.54 Z" stroke="rgb(0, 0, 0)" stroke-width="0" fill-rule="evenodd" stroke-linejoin="miter" fill="rgb(0, 0, 0)" shape-rendering="geometricPrecision" /><line x1="607.73" y1="390.76" x2="627.18" y2="402" stroke="rgb(0, 0, 0)" stroke-width="1.13" shape-rendering="auto" /></g><g id="Solid"><path d="M627.18 408.54 L627.18 408.54 L627.18 407.89 L627.18 407.24 L651.16 393.38 L651.72 393.71 L650.98 394.79 Z" stroke="rgb(0, 0, 0)" stroke-width="0" fill-rule="evenodd" stroke-linejoin="miter" fill="rgb(0, 0, 0)" shape-rendering="geometricPrecision" /></g><g id="Solid"><path d="M652.29 392.53 L652.29 392.53 L651.72 393.71 L651.16 393.38 L651.16 365.7 L651.72 365.37 L652.28 365.04 Z" stroke="rgb(0, 0, 0)" stroke-width="0" fill-rule="evenodd" stroke-linejoin="miter" fill="rgb(0, 0, 0)" shape-rendering="geometricPrecision" /><line x1="646.62" y1="390.77" x2="646.62" y2="368.31" stroke="rgb(0, 0, 0)" stroke-width="1.13" shape-rendering="auto" /></g><g id="Solid"><path d="M652.28 365.04 L652.28 365.04 L651.72 365.37 L651.16 365.7 L627.18 351.84 L627.18 351.19 L627.75 350.86 Z" stroke="rgb(0, 0, 0)" stroke-width="0" fill-rule="evenodd" stroke-linejoin="miter" fill="rgb(0, 0, 0)" shape-rendering="geometricPrecision" /></g><g id="Solid"><path d="M651.72 309.32 L651.72 309.32 L651.72 308.67 L652.29 308.34 L671.88 319.66 L671.6 320.15 L671.32 320.64 Z" stroke="rgb(0, 0, 0)" stroke-width="0" fill-rule="evenodd" stroke-linejoin="miter" fill="rgb(0, 0, 0)" shape-rendering="geometricPrecision" /></g><g><text xml:space="preserve" text-anchor="start" text-rendering="geometricPrecision"><tspan x="671.95" y="327.57" font-family="Arial" font-size="12" fill="rgb(0, 0, 0)">CHO</tspan></text></g><g id="Solid"><path d="M602.07 393.38 L602.07 393.38 L602.63 393.71 L602.63 394.36 L578.36 408.38 L578.08 407.89 L577.8 407.4 Z" stroke="rgb(0, 0, 0)" stroke-width="0" fill-rule="evenodd" stroke-linejoin="miter" fill="rgb(0, 0, 0)" shape-rendering="geometricPrecision" /></g><g id="Bold"><path d="M650.98 394.79 L650.98 394.79 L651.72 393.71 L652.29 392.53 L677.01 406.81 L676.27 407.89 L675.53 408.97 Z" stroke="rgb(200, 29, 177)" stroke-width="0" fill-rule="evenodd" stroke-linejoin="miter" fill="rgb(200, 29, 177)" shape-rendering="geometricPrecision" /></g><g id="Solid"><path d="M675.53 408.97 L675.53 408.97 L676.27 407.89 L677.01 406.81 L700.82 393.06 L700.82 393.71 L700.82 394.36 Z" stroke="rgb(0, 0, 0)" stroke-width="0" fill-rule="evenodd" stroke-linejoin="miter" fill="rgb(0, 0, 0)" shape-rendering="geometricPrecision" /><line x1="676.27" y1="402" x2="698.27" y2="389.29" stroke="rgb(0, 0, 0)" stroke-width="1.13" shape-rendering="auto" /></g><g id="Solid"><path d="M700.82 394.36 L700.82 394.36 L700.82 393.71 L700.82 393.06 L720.98 404.7 L720.7 405.19 L720.42 405.68 Z" stroke="rgb(0, 0, 0)" stroke-width="0" fill-rule="evenodd" stroke-linejoin="miter" fill="rgb(0, 0, 0)" shape-rendering="geometricPrecision" /></g><g><text xml:space="preserve" text-anchor="start" text-rendering="geometricPrecision"><tspan x="721.05" y="412.61" font-family="Arial" font-size="12" fill="rgb(0, 0, 0)">CO</tspan><tspan font-family="Arial" dy="2.72" font-size="9" fill="rgb(0, 0, 0)">2</tspan><tspan font-family="Arial" dy="-2.72" font-size="12" fill="rgb(0, 0, 0)">Et</tspan></text></g><g id="Rectangle"><path d="M762.25 251.25 L762.25 251.25 L766.85 251.25 L766.85 441.05 L10.85 441.05 L10.85 436.45 L762.25 436.45 " stroke="rgb(192, 192, 192)" stroke-width="0" fill-rule="evenodd" stroke-linejoin="bevel" fill="rgb(192, 192, 192)" shape-rendering="geometricPrecision" /><path d="M6.38 246.7 L6.38 246.7 L762.3 246.7 L762.3 436.5 L6.38 436.5 Z" stroke="rgb(0, 0, 0)" stroke-width="1.13" fill-rule="evenodd" stroke-linejoin="miter" fill="none" shape-rendering="geometricPrecision" /></g></g></g></svg>