<?xml version="1.0"?><svg xmlns="http://www.w3.org/2000/svg" xmlns:xlink="http://www.w3.org/1999/xlink" viewBox="105.82 40.27 274.22 377.32" preserveAspectRatio="xMidYMid" width="100%" height="100%"><clipPath id="382"><rect x="0.565" y="0.565" width="768.47" height="522.07" /></clipPath><g id="drawing"><rect x="105.82" y="40.27" width="100%" height="100%" fill="rgb(255, 255, 255)" /><g id="page" clip-path="url(#382)"><g><text xml:space="preserve" text-anchor="start" text-rendering="geometricPrecision"><tspan x="126.33" y="92.61" font-family="Arial" font-size="12" fill="rgb(0, 0, 0)">N</tspan></text></g><g id="Solid"><path d="M106.39 102.55 L106.39 102.55 L106.11 102.06 L105.83 101.57 L125.72 90.09 L126 90.58 L126.28 91.07 Z" stroke="rgb(0, 0, 0)" stroke-width="0" fill-rule="evenodd" stroke-linejoin="miter" fill="rgb(0, 0, 0)" shape-rendering="geometricPrecision" /></g><g id="Solid"><path d="M135.12 91.11 L135.12 91.11 L135.4 90.63 L135.68 90.14 L155.21 101.41 L155.21 102.06 L155.21 102.71 Z" stroke="rgb(0, 0, 0)" stroke-width="0" fill-rule="evenodd" stroke-linejoin="miter" fill="rgb(0, 0, 0)" shape-rendering="geometricPrecision" /></g><g id="Solid"><path d="M155.21 102.71 L155.21 102.71 L155.21 102.06 L155.21 101.41 L179.76 87.24 L179.76 87.89 L179.76 88.54 Z" stroke="rgb(0, 0, 0)" stroke-width="0" fill-rule="evenodd" stroke-linejoin="miter" fill="rgb(0, 0, 0)" shape-rendering="geometricPrecision" /></g><g id="Solid"><path d="M179.76 88.54 L179.76 88.54 L179.76 87.89 L179.76 87.24 L204.58 101.57 L204.3 102.06 L204.02 102.55 Z" stroke="rgb(0, 0, 0)" stroke-width="0" fill-rule="evenodd" stroke-linejoin="miter" fill="rgb(0, 0, 0)" shape-rendering="geometricPrecision" /></g><g id="Solid"><path d="M131.23 82.6 L131.23 82.6 L130.66 82.6 L130.1 82.6 L130.1 59.54 L130.66 59.54 L131.22 59.54 Z" stroke="rgb(0, 0, 0)" stroke-width="0" fill-rule="evenodd" stroke-linejoin="miter" fill="rgb(0, 0, 0)" shape-rendering="geometricPrecision" /></g><g id="Arrow"><line x1="239.36" y1="339.21" x2="239.36" y2="285.31" stroke="rgb(0, 0, 0)" stroke-width="1.13" shape-rendering="auto" /><path d="M239.36 348.1 L242.18 336.8 C240.6 338.65 238.12 338.65 236.53 336.8 Z" stroke="rgb(0, 0, 0)" stroke-width="0" fill-rule="evenodd" stroke-linejoin="miter" stroke-miterlimit="13.0613876038635" fill="rgb(0, 0, 0)" shape-rendering="geometricPrecision" /></g><g id="Solid"><path d="M329.81 54.77 L329.81 54.77 L330.38 55.1 L330.95 55.43 L330.95 83.11 L330.38 83.44 L329.82 83.11 Z" stroke="rgb(0, 0, 0)" stroke-width="0" fill-rule="evenodd" stroke-linejoin="miter" fill="rgb(0, 0, 0)" shape-rendering="geometricPrecision" /><line x1="335.48" y1="58.04" x2="335.48" y2="80.5" stroke="rgb(0, 0, 0)" stroke-width="1.13" shape-rendering="auto" /></g><g id="Solid"><path d="M330.38 84.09 L330.38 84.09 L330.38 83.44 L330.95 83.11 L354.93 96.97 L354.93 97.62 L354.93 98.27 Z" stroke="rgb(0, 0, 0)" stroke-width="0" fill-rule="evenodd" stroke-linejoin="miter" fill="rgb(0, 0, 0)" shape-rendering="geometricPrecision" /></g><g id="Solid"><path d="M354.93 98.27 L354.93 98.27 L354.93 97.62 L354.93 96.97 L378.91 83.11 L379.47 83.44 L380.03 83.77 Z" stroke="rgb(0, 0, 0)" stroke-width="0" fill-rule="evenodd" stroke-linejoin="miter" fill="rgb(0, 0, 0)" shape-rendering="geometricPrecision" /><line x1="354.93" y1="91.73" x2="374.37" y2="80.5" stroke="rgb(0, 0, 0)" stroke-width="1.13" shape-rendering="auto" /></g><g id="Solid"><path d="M380.03 83.77 L380.03 83.77 L379.47 83.44 L378.91 83.11 L378.91 55.43 L379.47 55.1 L380.03 54.77 Z" stroke="rgb(0, 0, 0)" stroke-width="0" fill-rule="evenodd" stroke-linejoin="miter" fill="rgb(0, 0, 0)" shape-rendering="geometricPrecision" /></g><g id="Solid"><path d="M380.03 54.77 L380.03 54.77 L379.47 55.1 L378.91 55.43 L354.93 41.57 L354.93 40.92 L354.93 40.27 Z" stroke="rgb(0, 0, 0)" stroke-width="0" fill-rule="evenodd" stroke-linejoin="miter" fill="rgb(0, 0, 0)" shape-rendering="geometricPrecision" /><line x1="374.37" y1="58.04" x2="354.93" y2="46.81" stroke="rgb(0, 0, 0)" stroke-width="1.13" shape-rendering="auto" /></g><g id="Solid"><path d="M354.93 40.27 L354.93 40.27 L354.93 40.92 L354.93 41.57 L330.95 55.43 L330.38 55.1 L329.81 54.77 Z" stroke="rgb(0, 0, 0)" stroke-width="0" fill-rule="evenodd" stroke-linejoin="miter" fill="rgb(0, 0, 0)" shape-rendering="geometricPrecision" /></g><g id="Solid"><path d="M329.82 83.11 L329.82 83.11 L330.38 83.44 L330.38 84.09 L310.38 95.64 L310.1 95.15 L309.82 94.67 Z" stroke="rgb(0, 0, 0)" stroke-width="0" fill-rule="evenodd" stroke-linejoin="miter" fill="rgb(0, 0, 0)" shape-rendering="geometricPrecision" /></g><g><text xml:space="preserve" text-anchor="start" text-rendering="geometricPrecision"><tspan x="301.83" y="102.34" font-family="Arial" font-size="12" fill="rgb(0, 0, 0)">B</tspan></text></g><g id="Solid"><path d="M301.78 94.63 L301.78 94.63 L301.5 95.12 L301.22 95.61 L286.32 87 L286.6 86.51 L286.88 86.02 Z" stroke="rgb(0, 0, 0)" stroke-width="0" fill-rule="evenodd" stroke-linejoin="miter" fill="rgb(0, 0, 0)" shape-rendering="geometricPrecision" /></g><g><text xml:space="preserve" text-anchor="end" text-rendering="geometricPrecision"><tspan x="285.95" y="88.17" font-family="Arial" font-size="12" fill="rgb(0, 0, 0)">HO</tspan></text></g><g id="Solid"><path d="M305.27 103.9 L305.27 103.9 L305.83 103.9 L306.4 103.9 L306.4 120.5 L305.83 120.5 L305.27 120.5 Z" stroke="rgb(0, 0, 0)" stroke-width="0" fill-rule="evenodd" stroke-linejoin="miter" fill="rgb(0, 0, 0)" shape-rendering="geometricPrecision" /></g><g><text xml:space="preserve" text-anchor="start" text-rendering="geometricPrecision"><tspan x="301.15" y="130.69" font-family="Arial" font-size="12" fill="rgb(0, 0, 0)">OH</tspan></text></g><g><text xml:space="preserve" text-anchor="middle" text-rendering="geometricPrecision"><tspan x="238.99" y="201.75" font-family="Arial" font-size="12" fill="rgb(0, 0, 0)">Pd(OAc)</tspan><tspan font-family="Arial" dy="2.72" font-size="9" fill="rgb(0, 0, 0)">2</tspan><tspan font-family="Arial" dy="-2.72" font-size="12" fill="rgb(0, 0, 0)"> (10 mol%)</tspan><tspan x="238.99" y="220.1" font-family="Arial" font-style="italic" font-size="12" fill="rgb(0, 0, 0)">N</tspan><tspan font-family="Arial" font-size="12" fill="rgb(0, 0, 0)">-acetyl </tspan><tspan font-family="Arial" font-style="italic" font-size="12" fill="rgb(0, 0, 0)">tert</tspan><tspan font-family="Arial" font-size="12" fill="rgb(0, 0, 0)">-leucine (25 mol%)</tspan><tspan x="238.99" y="238.45" font-family="Arial" font-size="12" fill="rgb(0, 0, 0)">Ag</tspan><tspan font-family="Arial" dy="2.72" font-size="9" fill="rgb(0, 0, 0)">2</tspan><tspan font-family="Arial" dy="-2.72" font-size="12" fill="rgb(0, 0, 0)">CO</tspan><tspan font-family="Arial" dy="2.72" font-size="9" fill="rgb(0, 0, 0)">3</tspan><tspan font-family="Arial" dy="-2.72" font-size="12" fill="rgb(0, 0, 0)"> (2.5 eq.)</tspan><tspan x="238.99" y="256.8" font-family="Arial" font-size="12" fill="rgb(0, 0, 0)">Benzoquinone (2 eq.)</tspan><tspan x="238.99" y="275.15" font-family="Arial" font-size="12" fill="rgb(0, 0, 0)">Air, NMP, 50 °</tspan><tspan font-family="Arial" font-size="12" fill="rgb(0, 0, 0)">C, 87%</tspan></text></g><g id="Solid"><path d="M153.89 417 L153.89 417 L153.61 416.51 L153.33 416.02 L173.22 404.54 L173.5 405.03 L173.78 405.52 Z" stroke="rgb(0, 0, 0)" stroke-width="0" fill-rule="evenodd" stroke-linejoin="miter" fill="rgb(0, 0, 0)" shape-rendering="geometricPrecision" /></g><g><text xml:space="preserve" text-anchor="start" text-rendering="geometricPrecision"><tspan x="173.83" y="407.06" font-family="Arial" font-size="12" fill="rgb(0, 0, 0)">N</tspan></text></g><g id="Solid"><path d="M182.62 405.56 L182.62 405.56 L182.9 405.08 L183.18 404.59 L202.71 415.86 L202.71 416.51 L202.71 417.16 Z" stroke="rgb(0, 0, 0)" stroke-width="0" fill-rule="evenodd" stroke-linejoin="miter" fill="rgb(0, 0, 0)" shape-rendering="geometricPrecision" /></g><g id="Solid"><path d="M202.71 417.16 L202.71 417.16 L202.71 416.51 L202.71 415.86 L227.26 401.69 L227.26 402.34 L227.26 402.99 Z" stroke="rgb(0, 0, 0)" stroke-width="0" fill-rule="evenodd" stroke-linejoin="miter" fill="rgb(0, 0, 0)" shape-rendering="geometricPrecision" /></g><g id="Solid"><path d="M227.26 402.99 L227.26 402.99 L227.26 402.34 L227.26 401.69 L251.06 415.43 L251.8 416.51 L252.54 417.59 Z" stroke="rgb(0, 0, 0)" stroke-width="0" fill-rule="evenodd" stroke-linejoin="miter" fill="rgb(0, 0, 0)" shape-rendering="geometricPrecision" /></g><g id="Solid"><path d="M178.73 397 L178.73 397 L178.16 397 L177.6 397 L177.6 373.99 L178.16 373.99 L178.72 373.99 Z" stroke="rgb(0, 0, 0)" stroke-width="0" fill-rule="evenodd" stroke-linejoin="miter" fill="rgb(0, 0, 0)" shape-rendering="geometricPrecision" /></g><g id="Bold"><path d="M252.54 417.59 L252.54 417.59 L251.8 416.51 L251.06 415.43 L275.79 401.16 L276.35 402.34 L277.09 403.42 Z" stroke="rgb(200, 29, 177)" stroke-width="0" fill-rule="evenodd" stroke-linejoin="miter" fill="rgb(200, 29, 177)" shape-rendering="geometricPrecision" /></g><g id="Solid"><path d="M277.09 403.42 L277.09 403.42 L276.35 402.34 L276.92 402.01 L300.9 415.86 L300.9 416.51 L300.9 417.16 Z" stroke="rgb(0, 0, 0)" stroke-width="0" fill-rule="evenodd" stroke-linejoin="miter" fill="rgb(0, 0, 0)" shape-rendering="geometricPrecision" /><line x1="281.45" y1="399.39" x2="300.9" y2="410.62" stroke="rgb(0, 0, 0)" stroke-width="1.13" shape-rendering="auto" /></g><g id="Solid"><path d="M300.9 417.16 L300.9 417.16 L300.9 416.51 L300.9 415.86 L324.89 402.01 L325.45 402.34 L326.01 402.67 Z" stroke="rgb(0, 0, 0)" stroke-width="0" fill-rule="evenodd" stroke-linejoin="miter" fill="rgb(0, 0, 0)" shape-rendering="geometricPrecision" /></g><g id="Solid"><path d="M326.01 402.67 L326.01 402.67 L325.45 402.34 L324.89 402.01 L324.89 374.32 L325.45 373.99 L326.01 373.66 Z" stroke="rgb(0, 0, 0)" stroke-width="0" fill-rule="evenodd" stroke-linejoin="miter" fill="rgb(0, 0, 0)" shape-rendering="geometricPrecision" /><line x1="320.35" y1="399.39" x2="320.35" y2="376.94" stroke="rgb(0, 0, 0)" stroke-width="1.13" shape-rendering="auto" /></g><g id="Solid"><path d="M326.01 373.66 L326.01 373.66 L325.45 373.99 L324.89 374.32 L300.9 360.47 L300.9 359.82 L300.9 359.17 Z" stroke="rgb(0, 0, 0)" stroke-width="0" fill-rule="evenodd" stroke-linejoin="miter" fill="rgb(0, 0, 0)" shape-rendering="geometricPrecision" /></g><g id="Solid"><path d="M300.9 359.17 L300.9 359.17 L300.9 359.82 L300.9 360.47 L276.92 374.32 L276.35 373.99 L275.78 373.66 Z" stroke="rgb(0, 0, 0)" stroke-width="0" fill-rule="evenodd" stroke-linejoin="miter" fill="rgb(0, 0, 0)" shape-rendering="geometricPrecision" /><line x1="300.9" y1="365.71" x2="281.45" y2="376.94" stroke="rgb(0, 0, 0)" stroke-width="1.13" shape-rendering="auto" /></g><g id="Solid"><path d="M275.78 373.66 L275.78 373.66 L276.35 373.99 L276.92 374.32 L276.92 402.01 L276.35 402.34 L275.79 401.16 Z" stroke="rgb(0, 0, 0)" stroke-width="0" fill-rule="evenodd" stroke-linejoin="miter" fill="rgb(0, 0, 0)" shape-rendering="geometricPrecision" /></g><g id="Charge367"><line x1="230.11" y1="87.88" x2="240.89" y2="87.88" stroke="rgb(0, 0, 0)" stroke-width="0.904" shape-rendering="auto" /><line x1="235.5" y1="82.49" x2="235.5" y2="93.27" stroke="rgb(0, 0, 0)" stroke-width="0.904" shape-rendering="auto" /></g><line x1="238.99" y1="179.76" x2="238.99" y2="129" stroke="rgb(0, 0, 0)" stroke-width="1.13" shape-rendering="auto" /></g></g></svg>