<?xml version="1.0"?><svg xmlns="http://www.w3.org/2000/svg" xmlns:xlink="http://www.w3.org/1999/xlink" viewBox="293.07 15.49 362.12 186.26" preserveAspectRatio="xMidYMid" width="100%" height="100%"><clipPath id="261"><rect x="0.375" y="0.375" width="768.85" height="522.45" /></clipPath><g id="drawing"><rect x="293.07" y="15.49" width="100%" height="100%" fill="rgb(255, 255, 255)" /><g id="page" clip-path="url(#261)"><path d="M616.95 162.74 C611.61 166.48 610.3 173.85 614.04 179.19 C614.7 180.13 615.49 180.97 616.39 181.69 " stroke="rgb(0, 0, 0)" stroke-width="0.99" fill-rule="evenodd" stroke-linejoin="bevel" fill="none" shape-rendering="geometricPrecision" /><path d="M604.57 30.29 C599.23 34.02 597.92 41.39 601.65 46.73 C602.31 47.67 603.1 48.51 604 49.23 " stroke="rgb(0, 0, 0)" stroke-width="1" fill-rule="evenodd" stroke-linejoin="bevel" fill="none" shape-rendering="geometricPrecision" /><path d="M447.5 37.58 C442.16 41.31 440.85 48.68 444.58 54.02 C445.24 54.96 446.03 55.8 446.93 56.52 " stroke="rgb(0, 0, 0)" stroke-width="1" fill-rule="evenodd" stroke-linejoin="bevel" fill="none" shape-rendering="geometricPrecision" /><path d="M455.67 161.97 C450.33 165.71 449.02 173.08 452.76 178.42 C453.42 179.36 454.21 180.2 455.11 180.92 " stroke="rgb(0, 0, 0)" stroke-width="1" fill-rule="evenodd" stroke-linejoin="bevel" fill="none" shape-rendering="geometricPrecision" /><path d="M311.85 36.8 C306.51 40.53 305.2 47.9 308.93 53.24 C309.59 54.18 310.38 55.02 311.28 55.74 " stroke="rgb(0, 0, 0)" stroke-width="1" fill-rule="evenodd" stroke-linejoin="bevel" fill="none" shape-rendering="geometricPrecision" /><g id="Arrow"><line x1="621.65" y1="128.12" x2="621.65" y2="91.64" stroke="rgb(0, 0, 0)" stroke-width="0.75" shape-rendering="auto" /><path d="M621.65 132.75 L623.52 125.25 C622.35 127.5 620.95 127.5 619.77 125.25 Z" stroke="rgb(0, 0, 0)" stroke-width="0" fill-rule="evenodd" stroke-linejoin="miter" stroke-miterlimit="11.0763220026205" fill="rgb(0, 0, 0)" shape-rendering="geometricPrecision" /></g><g><text xml:space="preserve" text-anchor="start" text-rendering="geometricPrecision"><tspan x="544.7" y="165.13" font-family="Arial" font-size="12" fill="rgb(0, 0, 0)">+</tspan></text></g><line x1="478.58" y1="43.24" x2="462.48" y2="37.15" stroke="rgb(0, 0, 0)" stroke-width="0.75" stroke-dasharray="2.6" shape-rendering="auto" /><g><text xml:space="preserve" text-anchor="start" text-rendering="geometricPrecision"><tspan x="375.64" y="42.74" font-family="Arial" font-size="12" fill="rgb(0, 0, 0)">+</tspan></text></g><line x1="632.49" y1="36.46" x2="619.04" y2="30.38" stroke="rgb(0, 0, 0)" stroke-width="0.75" stroke-dasharray="2.6" shape-rendering="auto" /><g><text xml:space="preserve" text-anchor="start" text-rendering="geometricPrecision"><tspan x="589.91" y="114.06" font-family="Arial" font-size="12" fill="rgb(0, 0, 0)">+</tspan></text></g><g id="Arrow"><line x1="416.54" y1="52.81" x2="367.83" y2="52.81" stroke="rgb(0, 0, 0)" stroke-width="0.75" shape-rendering="auto" /><path d="M421.17 52.81 L413.67 50.94 C415.92 52.11 415.92 53.51 413.67 54.68 Z" stroke="rgb(0, 0, 0)" stroke-width="0" fill-rule="evenodd" stroke-linejoin="miter" stroke-miterlimit="11.0763220026203" fill="rgb(0, 0, 0)" shape-rendering="geometricPrecision" /></g><line x1="630.97" y1="43.14" x2="614.61" y2="47.64" stroke="rgb(0, 0, 0)" stroke-width="0.75" stroke-dasharray="2.6" shape-rendering="auto" /><line x1="634.16" y1="47.13" x2="628.28" y2="57.32" stroke="rgb(0, 0, 0)" stroke-width="0.75" stroke-dasharray="2.6" shape-rendering="auto" /><g id="Spline"><path d="M310.73 33.25 C310.73 28.68 314.44 24.98 319 24.98 C323.56 24.98 327.26 28.68 327.26 33.25 C327.26 37.81 323.56 41.51 319 41.51 C314.44 41.51 310.73 37.81 310.73 33.25 Z" stroke="rgb(255, 204, 0)" stroke-width="0.75" fill-rule="evenodd" stroke-linejoin="bevel" fill="rgb(255, 204, 0)" shape-rendering="geometricPrecision" /></g><g id="Spline"><path d="M386.29 37.89 C386.29 33.33 389.99 29.63 394.55 29.63 C399.11 29.63 402.81 33.33 402.81 37.89 C402.81 42.45 399.11 46.15 394.55 46.15 C389.99 46.15 386.29 42.45 386.29 37.89 Z" stroke="rgb(255, 128, 255)" stroke-width="0.75" fill-rule="evenodd" stroke-linejoin="bevel" fill="rgb(255, 128, 255)" shape-rendering="geometricPrecision" /></g><g id="Spline"><path d="M477.81 47.13 C477.81 42.57 481.52 38.87 486.08 38.87 C490.64 38.87 494.34 42.57 494.34 47.13 C494.34 51.69 490.64 55.4 486.08 55.4 C481.52 55.4 477.81 51.69 477.81 47.13 Z" stroke="rgb(255, 128, 255)" stroke-width="0.75" fill-rule="evenodd" stroke-linejoin="bevel" fill="rgb(255, 128, 255)" shape-rendering="geometricPrecision" /></g><g id="Spline"><path d="M446.38 34.03 C446.38 29.47 450.08 25.76 454.65 25.76 C459.21 25.76 462.91 29.47 462.91 34.03 C462.91 38.59 459.21 42.29 454.65 42.29 C450.08 42.29 446.38 38.59 446.38 34.03 Z" stroke="rgb(255, 204, 0)" stroke-width="0.75" fill-rule="evenodd" stroke-linejoin="bevel" fill="rgb(255, 204, 0)" shape-rendering="geometricPrecision" /></g><g id="Spline"><path d="M603.45 26.74 C603.45 22.18 607.16 18.47 611.72 18.47 C616.28 18.47 619.98 22.18 619.98 26.74 C619.98 31.3 616.28 35 611.72 35 C607.16 35 603.45 31.3 603.45 26.74 Z" stroke="rgb(255, 204, 0)" stroke-width="0.75" fill-rule="evenodd" stroke-linejoin="bevel" fill="rgb(255, 204, 0)" shape-rendering="geometricPrecision" /></g><g id="Spline"><path d="M626.11 41.47 C626.11 36.91 629.81 33.2 634.37 33.2 C638.93 33.2 642.64 36.91 642.64 41.47 C642.64 46.03 638.93 49.73 634.37 49.73 C629.81 49.73 626.11 46.03 626.11 41.47 Z" stroke="rgb(255, 128, 255)" stroke-width="0.75" fill-rule="evenodd" stroke-linejoin="bevel" fill="rgb(255, 128, 255)" shape-rendering="geometricPrecision" /></g><g id="Spline"><path d="M615.84 159.19 C615.84 154.63 619.54 150.93 624.1 150.93 C628.66 150.93 632.37 154.63 632.37 159.19 C632.37 163.75 628.66 167.45 624.1 167.45 C619.54 167.45 615.84 163.75 615.84 159.19 Z" stroke="rgb(255, 204, 0)" stroke-width="0.75" fill-rule="evenodd" stroke-linejoin="bevel" fill="rgb(255, 204, 0)" shape-rendering="geometricPrecision" /></g><g id="Spline"><path d="M602.26 109.03 C602.26 105.39 605.23 102.44 608.89 102.44 C612.56 102.44 615.53 105.39 615.53 109.03 C615.53 112.67 612.56 115.63 608.89 115.63 C605.23 115.63 602.26 112.67 602.26 109.03 Z" stroke="rgb(153, 204, 0)" stroke-width="0.75" fill-rule="evenodd" stroke-linejoin="bevel" fill="rgb(153, 204, 0)" shape-rendering="geometricPrecision" /></g><g id="Spline"><path d="M633.39 183.04 C633.39 179.4 636.36 176.45 640.02 176.45 C643.69 176.45 646.66 179.4 646.66 183.04 C646.66 186.68 643.69 189.64 640.02 189.64 C636.36 189.64 633.39 186.68 633.39 183.04 Z" stroke="rgb(153, 204, 0)" stroke-width="0.75" fill-rule="evenodd" stroke-linejoin="bevel" fill="rgb(153, 204, 0)" shape-rendering="geometricPrecision" /></g><g id="Spline"><path d="M555.72 160.64 C555.72 157 558.69 154.04 562.36 154.04 C566.02 154.04 568.99 157 568.99 160.64 C568.99 164.28 566.02 167.23 562.36 167.23 C558.69 167.23 555.72 164.28 555.72 160.64 Z" stroke="rgb(0, 204, 255)" stroke-width="0.75" fill-rule="evenodd" stroke-linejoin="bevel" fill="rgb(0, 204, 255)" shape-rendering="geometricPrecision" /></g><g id="Spline"><path d="M553.51 188.84 C553.51 184.27 557.21 180.57 561.78 180.57 C566.34 180.57 570.04 184.27 570.04 188.84 C570.04 193.4 566.34 197.1 561.78 197.1 C557.21 197.1 553.51 193.4 553.51 188.84 Z" stroke="rgb(255, 204, 0)" stroke-width="0.75" fill-rule="evenodd" stroke-linejoin="bevel" fill="rgb(255, 204, 0)" shape-rendering="geometricPrecision" /></g><g id="Spline"><path d="M472.33 182.27 C472.33 178.63 475.3 175.68 478.97 175.68 C482.63 175.68 485.6 178.63 485.6 182.27 C485.6 185.91 482.63 188.87 478.97 188.87 C475.3 188.87 472.33 185.91 472.33 182.27 Z" stroke="rgb(153, 204, 0)" stroke-width="0.75" fill-rule="evenodd" stroke-linejoin="bevel" fill="rgb(153, 204, 0)" shape-rendering="geometricPrecision" /></g><g id="Spline"><path d="M454.1 158.89 C454.1 155.25 457.08 152.3 460.74 152.3 C464.4 152.3 467.38 155.25 467.38 158.89 C467.38 162.53 464.4 165.49 460.74 165.49 C457.08 165.49 454.1 162.53 454.1 158.89 Z" stroke="rgb(0, 204, 255)" stroke-width="0.75" fill-rule="evenodd" stroke-linejoin="bevel" fill="rgb(0, 204, 255)" shape-rendering="geometricPrecision" /></g><g><text xml:space="preserve" text-anchor="start" text-rendering="geometricPrecision"><tspan x="311.77" y="61.78" font-family="Arial" font-size="12" fill="rgb(0, 0, 0)">C</tspan></text></g><g><text xml:space="preserve" text-anchor="start" text-rendering="geometricPrecision"><tspan x="328.77" y="61.78" font-family="Arial" font-size="12" fill="rgb(0, 0, 0)">H</tspan></text></g><g><text xml:space="preserve" text-anchor="start" text-rendering="geometricPrecision"><tspan x="447.68" y="62.69" font-family="Arial" font-size="12" fill="rgb(0, 0, 0)">C</tspan></text></g><g><text xml:space="preserve" text-anchor="start" text-rendering="geometricPrecision"><tspan x="464.68" y="62.69" font-family="Arial" font-size="12" fill="rgb(0, 0, 0)">H</tspan></text></g><g><text xml:space="preserve" text-anchor="start" text-rendering="geometricPrecision"><tspan x="621.74" y="69.2" font-family="Arial" font-size="12" fill="rgb(0, 0, 0)">H</tspan></text></g><g><text xml:space="preserve" text-anchor="start" text-rendering="geometricPrecision"><tspan x="604.55" y="55.37" font-family="Arial" font-size="12" fill="rgb(0, 0, 0)">C</tspan></text></g><g><text xml:space="preserve" text-anchor="start" text-rendering="geometricPrecision"><tspan x="616.97" y="187.79" font-family="Arial" font-size="12" fill="rgb(0, 0, 0)">C</tspan></text></g><g id="Solid"><path d="M322 57.55 L322 57.55 L322 57.05 L322 56.55 L327.8 56.55 L327.8 57.05 L327.8 57.55 Z" stroke="rgb(0, 0, 0)" stroke-width="0" fill-rule="evenodd" stroke-linejoin="miter" fill="rgb(0, 0, 0)" shape-rendering="geometricPrecision" /></g><g><text xml:space="preserve" text-anchor="start" text-rendering="geometricPrecision"><tspan x="455.77" y="187.02" font-family="Arial" font-size="12" fill="rgb(0, 0, 0)">C</tspan></text></g><g id="Solid"><path d="M457.9 58.46 L457.9 58.46 L457.9 57.96 L457.9 57.46 L463.7 57.46 L463.7 57.96 L463.7 58.46 Z" stroke="rgb(0, 0, 0)" stroke-width="0" fill-rule="evenodd" stroke-linejoin="miter" fill="rgb(0, 0, 0)" shape-rendering="geometricPrecision" /></g><g id="Dash"><path d="M615.97 56.99 L615.97 56.99 L616.6 56.21 L614.57 54.58 L614.26 54.97 L613.94 55.36 Z" stroke="rgb(0, 0, 0)" stroke-width="0" fill-rule="evenodd" stroke-linejoin="miter" fill="rgb(0, 0, 0)" shape-rendering="geometricPrecision" /><path d="M618.8 59.26 L618.8 59.26 L619.43 58.49 L621.46 60.12 L621.14 60.51 L620.83 60.89 Z" stroke="rgb(0, 0, 0)" stroke-width="0" fill-rule="evenodd" stroke-linejoin="miter" fill="rgb(0, 0, 0)" shape-rendering="geometricPrecision" /></g><g id="Solid"><path d="M627.15 183.56 L627.15 183.56 L627.15 183.06 L627.15 182.56 L632.99 182.56 L632.99 183.06 L632.99 183.56 Z" stroke="rgb(0, 0, 0)" stroke-width="0" fill-rule="evenodd" stroke-linejoin="miter" fill="rgb(0, 0, 0)" shape-rendering="geometricPrecision" /></g><g id="Solid"><path d="M545.64 189.93 L545.64 189.93 L545.64 189.43 L545.64 188.93 L550.27 188.93 L550.27 189.43 L550.27 189.93 Z" stroke="rgb(0, 0, 0)" stroke-width="0" fill-rule="evenodd" stroke-linejoin="miter" fill="rgb(0, 0, 0)" shape-rendering="geometricPrecision" /></g><g id="Solid"><path d="M465.95 182.79 L465.95 182.79 L465.95 182.29 L465.95 181.79 L471.79 181.79 L471.79 182.29 L471.79 182.79 Z" stroke="rgb(0, 0, 0)" stroke-width="0" fill-rule="evenodd" stroke-linejoin="miter" fill="rgb(0, 0, 0)" shape-rendering="geometricPrecision" /></g><g><text xml:space="preserve" text-anchor="start" text-rendering="geometricPrecision"><tspan x="312.58" y="37.22" font-family="Arial" font-size="9" fill="rgb(0, 0, 0)">DG</tspan></text></g><g><text xml:space="preserve" text-anchor="start" text-rendering="geometricPrecision"><tspan x="390.8" y="41.53" font-family="Arial" font-size="9" fill="rgb(0, 0, 0)">M</tspan></text></g><g><text xml:space="preserve" text-anchor="start" text-rendering="geometricPrecision"><tspan x="482.33" y="50.77" font-family="Arial" font-size="9" fill="rgb(0, 0, 0)">M</tspan></text></g><g><text xml:space="preserve" text-anchor="start" text-rendering="geometricPrecision"><tspan x="617.68" y="163.17" font-family="Arial" font-size="9" fill="rgb(0, 0, 0)">DG</tspan></text></g><g><text xml:space="preserve" text-anchor="start" text-rendering="geometricPrecision"><tspan x="475.9" y="186.01" font-family="Arial" font-size="9" fill="rgb(0, 0, 0)">X</tspan></text></g><g><text xml:space="preserve" text-anchor="start" text-rendering="geometricPrecision"><tspan x="605.3" y="30.72" font-family="Arial" font-size="9" fill="rgb(0, 0, 0)">DG</tspan></text></g><g><text xml:space="preserve" text-anchor="start" text-rendering="geometricPrecision"><tspan x="630.54" y="45.1" font-family="Arial" font-size="9" fill="rgb(0, 0, 0)">M</tspan></text></g><g><text xml:space="preserve" text-anchor="start" text-rendering="geometricPrecision"><tspan x="605.82" y="112.78" font-family="Arial" font-size="9" fill="rgb(0, 0, 0)">X</tspan></text></g><g><text xml:space="preserve" text-anchor="start" text-rendering="geometricPrecision"><tspan x="637.02" y="186.97" font-family="Arial" font-size="9" fill="rgb(0, 0, 0)">X</tspan></text></g><g><text xml:space="preserve" text-anchor="start" text-rendering="geometricPrecision"><tspan x="559.29" y="164.4" font-family="Arial" font-size="9" fill="rgb(0, 0, 0)">Y</tspan></text></g><g><text xml:space="preserve" text-anchor="start" text-rendering="geometricPrecision"><tspan x="555.36" y="192.81" font-family="Arial" font-size="9" fill="rgb(0, 0, 0)">DG</tspan></text></g><g><text xml:space="preserve" text-anchor="start" text-rendering="geometricPrecision"><tspan x="448.23" y="38.01" font-family="Arial" font-size="9" fill="rgb(0, 0, 0)">DG</tspan></text></g><g><text xml:space="preserve" text-anchor="start" text-rendering="geometricPrecision"><tspan x="457.67" y="162.66" font-family="Arial" font-size="9" fill="rgb(0, 0, 0)">Y</tspan></text></g><g id="Rectangle"><path d="M497.95 143.85 L497.95 143.85 L500.95 143.85 L500.95 200.85 L439.55 200.85 L439.55 197.85 L497.95 197.85 " stroke="rgb(192, 192, 192)" stroke-width="0" fill-rule="evenodd" stroke-linejoin="bevel" fill="rgb(192, 192, 192)" shape-rendering="geometricPrecision" /><path d="M436.51 140.82 L436.51 140.82 L497.99 140.82 L497.99 197.88 L436.51 197.88 Z" stroke="rgb(0, 0, 0)" stroke-width="0.75" fill-rule="evenodd" stroke-linejoin="miter" fill="none" shape-rendering="geometricPrecision" /></g><g id="Arrow"><line x1="568.8" y1="52.06" x2="520.08" y2="52.06" stroke="rgb(0, 0, 0)" stroke-width="0.75" shape-rendering="auto" /><path d="M573.42 52.06 L565.92 50.18 C568.17 51.36 568.17 52.76 565.92 53.94 Z" stroke="rgb(0, 0, 0)" stroke-width="0" fill-rule="evenodd" stroke-linejoin="miter" stroke-miterlimit="11.0763220026203" fill="rgb(0, 0, 0)" shape-rendering="geometricPrecision" /></g><g id="Arrow"><line x1="583.42" y1="173.56" x2="534.7" y2="173.56" stroke="rgb(0, 0, 0)" stroke-width="0.75" shape-rendering="auto" /><path d="M530.08 173.56 L537.58 175.44 C535.33 174.26 535.33 172.86 537.58 171.68 Z" stroke="rgb(0, 0, 0)" stroke-width="0" fill-rule="evenodd" stroke-linejoin="miter" stroke-miterlimit="11.0763220026203" fill="rgb(0, 0, 0)" shape-rendering="geometricPrecision" /></g><g id="Rectangle"><path d="M353.45 19.95 L353.45 19.95 L356.45 19.95 L356.45 79.15 L296.95 79.15 L296.95 76.15 L353.45 76.15 " stroke="rgb(192, 192, 192)" stroke-width="0" fill-rule="evenodd" stroke-linejoin="bevel" fill="rgb(192, 192, 192)" shape-rendering="geometricPrecision" /><path d="M293.94 16.94 L293.94 16.94 L353.46 16.94 L353.46 76.16 L293.94 76.16 Z" stroke="rgb(0, 0, 0)" stroke-width="0.75" fill-rule="evenodd" stroke-linejoin="miter" fill="none" shape-rendering="geometricPrecision" /></g><g id="Spline"><path d="M637.79 110.03 C637.79 105.47 641.49 101.77 646.05 101.77 C650.61 101.77 654.31 105.47 654.31 110.03 C654.31 114.59 650.61 118.3 646.05 118.3 C641.49 118.3 637.79 114.59 637.79 110.03 Z" stroke="rgb(255, 128, 255)" stroke-width="0.75" fill-rule="evenodd" stroke-linejoin="bevel" fill="rgb(255, 128, 255)" shape-rendering="geometricPrecision" /></g><g><text xml:space="preserve" text-anchor="start" text-rendering="geometricPrecision"><tspan x="642.3" y="113.78" font-family="Arial" font-size="9" fill="rgb(0, 0, 0)">M</tspan></text></g><g id="Solid"><path d="M629.14 110.53 L629.14 110.53 L629.14 110.03 L629.14 109.53 L633.77 109.53 L633.77 110.03 L633.77 110.53 Z" stroke="rgb(0, 0, 0)" stroke-width="0" fill-rule="evenodd" stroke-linejoin="miter" fill="rgb(0, 0, 0)" shape-rendering="geometricPrecision" /></g><g id="Spline"><path d="M302.79 149.03 C302.79 144.47 306.49 140.77 311.05 140.77 C315.61 140.77 319.31 144.47 319.31 149.03 C319.31 153.59 315.61 157.3 311.05 157.3 C306.49 157.3 302.79 153.59 302.79 149.03 Z" stroke="rgb(255, 128, 255)" stroke-width="0.75" fill-rule="evenodd" stroke-linejoin="bevel" fill="rgb(255, 128, 255)" shape-rendering="geometricPrecision" /></g><g><text xml:space="preserve" text-anchor="start" text-rendering="geometricPrecision"><tspan x="307.3" y="152.78" font-family="Arial" font-size="9" fill="rgb(0, 0, 0)">M</tspan></text></g><g id="Spline"><path d="M302.51 177.84 C302.51 173.27 306.21 169.57 310.78 169.57 C315.34 169.57 319.04 173.27 319.04 177.84 C319.04 182.4 315.34 186.1 310.78 186.1 C306.21 186.1 302.51 182.4 302.51 177.84 Z" stroke="rgb(255, 204, 0)" stroke-width="0.75" fill-rule="evenodd" stroke-linejoin="bevel" fill="rgb(255, 204, 0)" shape-rendering="geometricPrecision" /></g><g><text xml:space="preserve" text-anchor="start" text-rendering="geometricPrecision"><tspan x="304.36" y="181.81" font-family="Arial" font-size="9" fill="rgb(0, 0, 0)">DG</tspan></text></g><g><text xml:space="preserve" text-anchor="start" text-rendering="geometricPrecision"><tspan x="326" y="154" font-family="Arial" font-size="9" fill="rgb(0, 0, 0)">= Metal</tspan></text></g><g><text xml:space="preserve" text-anchor="start" text-rendering="geometricPrecision"><tspan x="326" y="182" font-family="Arial" font-size="9" fill="rgb(0, 0, 0)">= Directing Group</tspan></text></g><g id="Rectangle"><path d="M294.44 131.94 L294.44 131.94 L404.5 131.94 L404.5 196.5 L294.44 196.5 Z" stroke="rgb(0, 0, 0)" stroke-width="0.75" fill-rule="evenodd" stroke-dasharray="2.6" stroke-linejoin="miter" fill="none" shape-rendering="geometricPrecision" /></g></g></g></svg>