<?xml version="1.0"?><svg xmlns="http://www.w3.org/2000/svg" xmlns:xlink="http://www.w3.org/1999/xlink" viewBox="201.76 59.91 95.03 537.22" preserveAspectRatio="xMidYMid" width="100%" height="100%"><clipPath id="280"><rect x="0.375" y="0.375" width="522.21" height="769.29" /></clipPath><g id="drawing"><rect x="201.76" y="59.91" width="100%" height="100%" fill="rgb(255, 255, 255)" /><g id="page" clip-path="url(#280)"><path d="M227.7 448.99 C222.36 452.73 221.05 460.1 224.79 465.44 C225.45 466.38 226.24 467.22 227.14 467.94 " stroke="rgb(0, 0, 0)" stroke-width="0.99" fill-rule="evenodd" stroke-linejoin="bevel" fill="none" shape-rendering="geometricPrecision" /><path d="M227.75 251.83 C222.41 255.56 221.1 262.93 224.83 268.27 C225.49 269.21 226.28 270.05 227.18 270.77 " stroke="rgb(0, 0, 0)" stroke-width="1" fill-rule="evenodd" stroke-linejoin="bevel" fill="none" shape-rendering="geometricPrecision" /><path d="M233.17 557.47 C227.83 561.21 226.52 568.58 230.26 573.92 C230.92 574.86 231.71 575.7 232.61 576.42 " stroke="rgb(0, 0, 0)" stroke-width="1" fill-rule="evenodd" stroke-linejoin="bevel" fill="none" shape-rendering="geometricPrecision" /><path d="M239.85 146.8 C234.51 150.53 233.2 157.9 236.93 163.24 C237.59 164.18 238.38 165.02 239.28 165.74 " stroke="rgb(0, 0, 0)" stroke-width="1" fill-rule="evenodd" stroke-linejoin="bevel" fill="none" shape-rendering="geometricPrecision" /><g id="Arrow"><line x1="243.18" y1="518.24" x2="243.18" y2="497.09" stroke="rgb(0, 0, 0)" stroke-width="0.75" shape-rendering="auto" /><path d="M243.18 522.87 L245.05 515.37 C243.88 517.62 242.48 517.62 241.3 515.37 Z" stroke="rgb(0, 0, 0)" stroke-width="0" fill-rule="evenodd" stroke-linejoin="miter" stroke-miterlimit="11.0763220026202" fill="rgb(0, 0, 0)" shape-rendering="geometricPrecision" /></g><g id="Arrow"><line x1="245.15" y1="417.12" x2="245.15" y2="395.98" stroke="rgb(0, 0, 0)" stroke-width="0.75" shape-rendering="auto" /><path d="M245.15 421.75 L247.02 414.25 C245.85 416.5 244.45 416.5 243.27 414.25 Z" stroke="rgb(0, 0, 0)" stroke-width="0" fill-rule="evenodd" stroke-linejoin="miter" stroke-miterlimit="11.0763220026203" fill="rgb(0, 0, 0)" shape-rendering="geometricPrecision" /></g><g id="Arrow"><line x1="245.32" y1="312.64" x2="245.32" y2="291.49" stroke="rgb(0, 0, 0)" stroke-width="0.75" shape-rendering="auto" /><path d="M245.32 317.27 L247.19 309.77 C246.02 312.02 244.62 312.02 243.44 309.77 Z" stroke="rgb(0, 0, 0)" stroke-width="0" fill-rule="evenodd" stroke-linejoin="miter" stroke-miterlimit="11.0763220026203" fill="rgb(0, 0, 0)" shape-rendering="geometricPrecision" /></g><g><text xml:space="preserve" text-anchor="start" text-rendering="geometricPrecision"><tspan x="247.7" y="513.13" font-family="Arial" font-size="12" fill="rgb(0, 0, 0)">+</tspan></text></g><line x1="258.83" y1="257.49" x2="242.73" y2="251.4" stroke="rgb(0, 0, 0)" stroke-width="0.75" stroke-dasharray="2.6" shape-rendering="auto" /><g><text xml:space="preserve" text-anchor="start" text-rendering="geometricPrecision"><tspan x="251.14" y="220.24" font-family="Arial" font-size="12" fill="rgb(0, 0, 0)">+</tspan></text></g><g><text xml:space="preserve" text-anchor="start" text-rendering="geometricPrecision"><tspan x="214.41" y="410.28" font-family="Arial" font-size="12" fill="rgb(0, 0, 0)">+</tspan></text></g><g id="Arrow"><line x1="245.58" y1="225.96" x2="245.58" y2="204.81" stroke="rgb(0, 0, 0)" stroke-width="0.75" shape-rendering="auto" /><path d="M245.58 230.59 L247.45 223.09 C246.28 225.34 244.88 225.34 243.7 223.09 Z" stroke="rgb(0, 0, 0)" stroke-width="0" fill-rule="evenodd" stroke-linejoin="miter" stroke-miterlimit="11.0763220026203" fill="rgb(0, 0, 0)" shape-rendering="geometricPrecision" /></g><g id="Spline"><path d="M238.73 143.25 C238.73 138.68 242.44 134.98 247 134.98 C251.56 134.98 255.26 138.68 255.26 143.25 C255.26 147.81 251.56 151.51 247 151.51 C242.44 151.51 238.73 147.81 238.73 143.25 Z" stroke="rgb(255, 204, 0)" stroke-width="0.75" fill-rule="evenodd" stroke-linejoin="bevel" fill="rgb(255, 204, 0)" shape-rendering="geometricPrecision" /></g><g id="Spline"><path d="M261.79 215.39 C261.79 210.83 265.49 207.13 270.05 207.13 C274.61 207.13 278.31 210.83 278.31 215.39 C278.31 219.95 274.61 223.65 270.05 223.65 C265.49 223.65 261.79 219.95 261.79 215.39 Z" stroke="rgb(255, 128, 255)" stroke-width="0.75" fill-rule="evenodd" stroke-linejoin="bevel" fill="rgb(255, 128, 255)" shape-rendering="geometricPrecision" /></g><g id="Spline"><path d="M258.06 261.38 C258.06 256.82 261.77 253.12 266.33 253.12 C270.89 253.12 274.59 256.82 274.59 261.38 C274.59 265.94 270.89 269.65 266.33 269.65 C261.77 269.65 258.06 265.94 258.06 261.38 Z" stroke="rgb(255, 128, 255)" stroke-width="0.75" fill-rule="evenodd" stroke-linejoin="bevel" fill="rgb(255, 128, 255)" shape-rendering="geometricPrecision" /></g><g id="Spline"><path d="M226.63 248.28 C226.63 243.72 230.33 240.01 234.9 240.01 C239.46 240.01 243.16 243.72 243.16 248.28 C243.16 252.84 239.46 256.54 234.9 256.54 C230.33 256.54 226.63 252.84 226.63 248.28 Z" stroke="rgb(255, 204, 0)" stroke-width="0.75" fill-rule="evenodd" stroke-linejoin="bevel" fill="rgb(255, 204, 0)" shape-rendering="geometricPrecision" /></g><g id="Spline"><path d="M226.59 445.44 C226.59 440.88 230.29 437.18 234.85 437.18 C239.41 437.18 243.12 440.88 243.12 445.44 C243.12 450 239.41 453.7 234.85 453.7 C230.29 453.7 226.59 450 226.59 445.44 Z" stroke="rgb(255, 204, 0)" stroke-width="0.75" fill-rule="evenodd" stroke-linejoin="bevel" fill="rgb(255, 204, 0)" shape-rendering="geometricPrecision" /></g><g id="Spline"><path d="M223.72 406.35 C223.72 402.71 226.7 399.76 230.36 399.76 C234.02 399.76 237 402.71 237 406.35 C237 409.99 234.02 412.94 230.36 412.94 C226.7 412.94 223.72 409.99 223.72 406.35 Z" stroke="rgb(153, 204, 0)" stroke-width="0.75" fill-rule="evenodd" stroke-linejoin="bevel" fill="rgb(153, 204, 0)" shape-rendering="geometricPrecision" /></g><g id="Spline"><path d="M243.92 469.29 C243.92 465.65 246.89 462.7 250.55 462.7 C254.22 462.7 257.19 465.65 257.19 469.29 C257.19 472.93 254.22 475.89 250.55 475.89 C246.89 475.89 243.92 472.93 243.92 469.29 Z" stroke="rgb(153, 204, 0)" stroke-width="0.75" fill-rule="evenodd" stroke-linejoin="bevel" fill="rgb(153, 204, 0)" shape-rendering="geometricPrecision" /></g><g id="Spline"><path d="M256.72 508.64 C256.72 505 259.69 502.04 263.36 502.04 C267.02 502.04 270 505 270 508.64 C270 512.28 267.02 515.23 263.36 515.23 C259.69 515.23 256.72 512.28 256.72 508.64 Z" stroke="rgb(0, 204, 255)" stroke-width="0.75" fill-rule="evenodd" stroke-linejoin="bevel" fill="rgb(0, 204, 255)" shape-rendering="geometricPrecision" /></g><g id="Spline"><path d="M218.51 507.84 C218.51 503.27 222.21 499.57 226.78 499.57 C231.34 499.57 235.04 503.27 235.04 507.84 C235.04 512.4 231.34 516.1 226.78 516.1 C222.21 516.1 218.51 512.4 218.51 507.84 Z" stroke="rgb(255, 204, 0)" stroke-width="0.75" fill-rule="evenodd" stroke-linejoin="bevel" fill="rgb(255, 204, 0)" shape-rendering="geometricPrecision" /></g><g id="Spline"><path d="M249.42 577.77 C249.42 574.13 252.4 571.18 256.06 571.18 C259.72 571.18 262.7 574.13 262.7 577.77 C262.7 581.41 259.72 584.37 256.06 584.37 C252.4 584.37 249.42 581.41 249.42 577.77 Z" stroke="rgb(153, 204, 0)" stroke-width="0.75" fill-rule="evenodd" stroke-linejoin="bevel" fill="rgb(153, 204, 0)" shape-rendering="geometricPrecision" /></g><g id="Spline"><path d="M231.6 554.39 C231.6 550.75 234.58 547.8 238.24 547.8 C241.9 547.8 244.88 550.75 244.88 554.39 C244.88 558.03 241.9 560.99 238.24 560.99 C234.58 560.99 231.6 558.03 231.6 554.39 Z" stroke="rgb(0, 204, 255)" stroke-width="0.75" fill-rule="evenodd" stroke-linejoin="bevel" fill="rgb(0, 204, 255)" shape-rendering="geometricPrecision" /></g><g><text xml:space="preserve" text-anchor="start" text-rendering="geometricPrecision"><tspan x="239.77" y="171.78" font-family="Arial" font-size="12" fill="rgb(0, 0, 0)">C</tspan></text></g><g><text xml:space="preserve" text-anchor="start" text-rendering="geometricPrecision"><tspan x="256.77" y="171.78" font-family="Arial" font-size="12" fill="rgb(0, 0, 0)">H</tspan></text></g><g><text xml:space="preserve" text-anchor="start" text-rendering="geometricPrecision"><tspan x="227.93" y="276.94" font-family="Arial" font-size="12" fill="rgb(0, 0, 0)">C</tspan></text></g><g><text xml:space="preserve" text-anchor="start" text-rendering="geometricPrecision"><tspan x="244.93" y="276.94" font-family="Arial" font-size="12" fill="rgb(0, 0, 0)">H</tspan></text></g><g><text xml:space="preserve" text-anchor="start" text-rendering="geometricPrecision"><tspan x="227.72" y="474.04" font-family="Arial" font-size="12" fill="rgb(0, 0, 0)">C</tspan></text></g><g><text xml:space="preserve" text-anchor="start" text-rendering="geometricPrecision"><tspan x="233.27" y="582.52" font-family="Arial" font-size="12" fill="rgb(0, 0, 0)">C</tspan></text></g><g id="Solid"><path d="M250 167.55 L250 167.55 L250 167.05 L250 166.55 L255.8 166.55 L255.8 167.05 L255.8 167.55 Z" stroke="rgb(0, 0, 0)" stroke-width="0" fill-rule="evenodd" stroke-linejoin="miter" fill="rgb(0, 0, 0)" shape-rendering="geometricPrecision" /></g><g id="Solid"><path d="M238.2 272.71 L238.2 272.71 L238.2 272.21 L238.2 271.71 L243.9 271.71 L243.9 272.21 L243.9 272.71 Z" stroke="rgb(0, 0, 0)" stroke-width="0" fill-rule="evenodd" stroke-linejoin="miter" fill="rgb(0, 0, 0)" shape-rendering="geometricPrecision" /></g><g id="Solid"><path d="M237.93 469.81 L237.93 469.81 L237.94 469.31 L237.94 468.81 L243.74 468.81 L243.74 469.31 L243.74 469.81 Z" stroke="rgb(0, 0, 0)" stroke-width="0" fill-rule="evenodd" stroke-linejoin="miter" fill="rgb(0, 0, 0)" shape-rendering="geometricPrecision" /></g><g id="Solid"><path d="M210.64 508.93 L210.64 508.93 L210.64 508.43 L210.64 507.93 L215.27 507.93 L215.27 508.43 L215.27 508.93 Z" stroke="rgb(0, 0, 0)" stroke-width="0" fill-rule="evenodd" stroke-linejoin="miter" fill="rgb(0, 0, 0)" shape-rendering="geometricPrecision" /></g><g id="Solid"><path d="M243.45 578.29 L243.45 578.29 L243.45 577.79 L243.45 577.29 L249.29 577.29 L249.29 577.79 L249.29 578.29 Z" stroke="rgb(0, 0, 0)" stroke-width="0" fill-rule="evenodd" stroke-linejoin="miter" fill="rgb(0, 0, 0)" shape-rendering="geometricPrecision" /></g><g><text xml:space="preserve" text-anchor="start" text-rendering="geometricPrecision"><tspan x="240.58" y="147.22" font-family="Arial" font-size="9" fill="rgb(0, 0, 0)">DG</tspan></text></g><g><text xml:space="preserve" text-anchor="start" text-rendering="geometricPrecision"><tspan x="266.3" y="219.03" font-family="Arial" font-size="9" fill="rgb(0, 0, 0)">M</tspan></text></g><g><text xml:space="preserve" text-anchor="start" text-rendering="geometricPrecision"><tspan x="262.58" y="265.02" font-family="Arial" font-size="9" fill="rgb(0, 0, 0)">M</tspan></text></g><g><text xml:space="preserve" text-anchor="start" text-rendering="geometricPrecision"><tspan x="228.43" y="449.42" font-family="Arial" font-size="9" fill="rgb(0, 0, 0)">DG</tspan></text></g><g><text xml:space="preserve" text-anchor="start" text-rendering="geometricPrecision"><tspan x="252.99" y="581.45" font-family="Arial" font-size="9" fill="rgb(0, 0, 0)">X</tspan></text></g><g><text xml:space="preserve" text-anchor="start" text-rendering="geometricPrecision"><tspan x="227.36" y="410.11" font-family="Arial" font-size="9" fill="rgb(0, 0, 0)">X</tspan></text></g><g><text xml:space="preserve" text-anchor="start" text-rendering="geometricPrecision"><tspan x="247.55" y="472.97" font-family="Arial" font-size="9" fill="rgb(0, 0, 0)">X</tspan></text></g><g><text xml:space="preserve" text-anchor="start" text-rendering="geometricPrecision"><tspan x="260.29" y="512.4" font-family="Arial" font-size="9" fill="rgb(0, 0, 0)">Y</tspan></text></g><g><text xml:space="preserve" text-anchor="start" text-rendering="geometricPrecision"><tspan x="220.36" y="511.81" font-family="Arial" font-size="9" fill="rgb(0, 0, 0)">DG</tspan></text></g><g><text xml:space="preserve" text-anchor="start" text-rendering="geometricPrecision"><tspan x="228.48" y="252.26" font-family="Arial" font-size="9" fill="rgb(0, 0, 0)">DG</tspan></text></g><g><text xml:space="preserve" text-anchor="start" text-rendering="geometricPrecision"><tspan x="235.17" y="558.16" font-family="Arial" font-size="9" fill="rgb(0, 0, 0)">Y</tspan></text></g><g id="Rectangle"><path d="M280.55 539.35 L280.55 539.35 L283.55 539.35 L283.55 596.35 L212.95 596.35 L212.95 593.35 L280.55 593.35 " stroke="rgb(192, 192, 192)" stroke-width="0" fill-rule="evenodd" stroke-linejoin="bevel" fill="rgb(192, 192, 192)" shape-rendering="geometricPrecision" /><path d="M209.99 536.32 L209.99 536.32 L280.55 536.32 L280.55 593.38 L209.99 593.38 Z" stroke="rgb(0, 0, 0)" stroke-width="0.75" fill-rule="evenodd" stroke-linejoin="miter" fill="none" shape-rendering="geometricPrecision" /></g><g id="Rectangle"><path d="M283.45 126.45 L283.45 126.45 L286.45 126.45 L286.45 189.15 L218.25 189.15 L218.25 186.15 L283.45 186.15 " stroke="rgb(192, 192, 192)" stroke-width="0" fill-rule="evenodd" stroke-linejoin="bevel" fill="rgb(192, 192, 192)" shape-rendering="geometricPrecision" /><path d="M215.26 123.49 L215.26 123.49 L283.5 123.49 L283.5 186.13 L215.26 186.13 Z" stroke="rgb(0, 0, 0)" stroke-width="0.75" fill-rule="evenodd" stroke-linejoin="miter" fill="none" shape-rendering="geometricPrecision" /></g><path d="M228.07 341.89 C222.73 345.62 221.42 352.99 225.15 358.33 C225.81 359.27 226.6 360.11 227.5 360.83 " stroke="rgb(0, 0, 0)" stroke-width="1" fill-rule="evenodd" stroke-linejoin="bevel" fill="none" shape-rendering="geometricPrecision" /><line x1="255.99" y1="348.06" x2="242.54" y2="341.98" stroke="rgb(0, 0, 0)" stroke-width="0.75" stroke-dasharray="2.6" shape-rendering="auto" /><line x1="254.47" y1="354.74" x2="238.11" y2="359.24" stroke="rgb(0, 0, 0)" stroke-width="0.75" stroke-dasharray="2.6" shape-rendering="auto" /><line x1="257.66" y1="358.74" x2="251.78" y2="368.92" stroke="rgb(0, 0, 0)" stroke-width="0.75" stroke-dasharray="2.6" shape-rendering="auto" /><g id="Spline"><path d="M226.95 338.34 C226.95 333.78 230.66 330.08 235.22 330.08 C239.78 330.08 243.48 333.78 243.48 338.34 C243.48 342.9 239.78 346.61 235.22 346.61 C230.66 346.61 226.95 342.9 226.95 338.34 Z" stroke="rgb(255, 204, 0)" stroke-width="0.75" fill-rule="evenodd" stroke-linejoin="bevel" fill="rgb(255, 204, 0)" shape-rendering="geometricPrecision" /></g><g id="Spline"><path d="M249.61 353.07 C249.61 348.51 253.31 344.81 257.87 344.81 C262.43 344.81 266.14 348.51 266.14 353.07 C266.14 357.63 262.43 361.34 257.87 361.34 C253.31 361.34 249.61 357.63 249.61 353.07 Z" stroke="rgb(255, 128, 255)" stroke-width="0.75" fill-rule="evenodd" stroke-linejoin="bevel" fill="rgb(255, 128, 255)" shape-rendering="geometricPrecision" /></g><g><text xml:space="preserve" text-anchor="start" text-rendering="geometricPrecision"><tspan x="245.24" y="380.8" font-family="Arial" font-size="12" fill="rgb(0, 0, 0)">H</tspan></text></g><g><text xml:space="preserve" text-anchor="start" text-rendering="geometricPrecision"><tspan x="228.05" y="366.97" font-family="Arial" font-size="12" fill="rgb(0, 0, 0)">C</tspan></text></g><g id="Dash"><path d="M239.37 368.51 L239.37 368.51 L240 367.73 L237.97 366.1 L237.66 366.49 L237.35 366.88 Z" stroke="rgb(0, 0, 0)" stroke-width="0" fill-rule="evenodd" stroke-linejoin="miter" fill="rgb(0, 0, 0)" shape-rendering="geometricPrecision" /><path d="M242.3 370.87 L242.3 370.87 L242.93 370.09 L244.95 371.72 L244.64 372.11 L244.33 372.5 Z" stroke="rgb(0, 0, 0)" stroke-width="0" fill-rule="evenodd" stroke-linejoin="miter" fill="rgb(0, 0, 0)" shape-rendering="geometricPrecision" /></g><g><text xml:space="preserve" text-anchor="start" text-rendering="geometricPrecision"><tspan x="228.8" y="342.32" font-family="Arial" font-size="9" fill="rgb(0, 0, 0)">DG</tspan></text></g><g><text xml:space="preserve" text-anchor="start" text-rendering="geometricPrecision"><tspan x="254.04" y="356.71" font-family="Arial" font-size="9" fill="rgb(0, 0, 0)">M</tspan></text></g><g id="Spline"><path d="M202.79 71.16 C202.79 66.6 206.49 62.89 211.05 62.89 C215.61 62.89 219.31 66.6 219.31 71.16 C219.31 75.72 215.61 79.42 211.05 79.42 C206.49 79.42 202.79 75.72 202.79 71.16 Z" stroke="rgb(255, 128, 255)" stroke-width="0.75" fill-rule="evenodd" stroke-linejoin="bevel" fill="rgb(255, 128, 255)" shape-rendering="geometricPrecision" /></g><g><text xml:space="preserve" text-anchor="start" text-rendering="geometricPrecision"><tspan x="207.3" y="74.9" font-family="Arial" font-size="9" fill="rgb(0, 0, 0)">M</tspan></text></g><g id="Spline"><path d="M202.51 99.96 C202.51 95.4 206.21 91.7 210.78 91.7 C215.34 91.7 219.04 95.4 219.04 99.96 C219.04 104.52 215.34 108.23 210.78 108.23 C206.21 108.23 202.51 104.52 202.51 99.96 Z" stroke="rgb(255, 204, 0)" stroke-width="0.75" fill-rule="evenodd" stroke-linejoin="bevel" fill="rgb(255, 204, 0)" shape-rendering="geometricPrecision" /></g><g><text xml:space="preserve" text-anchor="start" text-rendering="geometricPrecision"><tspan x="204.36" y="103.94" font-family="Arial" font-size="9" fill="rgb(0, 0, 0)">DG</tspan></text></g><g><text xml:space="preserve" text-anchor="start" text-rendering="geometricPrecision"><tspan x="226" y="76.13" font-family="Arial" font-size="9" fill="rgb(0, 0, 0)">= Metal</tspan></text></g><g><text xml:space="preserve" text-anchor="start" text-rendering="geometricPrecision"><tspan x="226" y="104.13" font-family="Arial" font-size="9" fill="rgb(0, 0, 0)">= Directing Group</tspan></text></g><g id="Solid"><path d="M253.76 407.3 L253.76 407.3 L253.76 406.8 L253.76 406.3 L258.4 406.3 L258.4 406.8 L258.4 407.3 Z" stroke="rgb(0, 0, 0)" stroke-width="0" fill-rule="evenodd" stroke-linejoin="miter" fill="rgb(0, 0, 0)" shape-rendering="geometricPrecision" /></g><g id="Spline"><path d="M261.79 407.01 C261.79 402.45 265.49 398.75 270.05 398.75 C274.61 398.75 278.31 402.45 278.31 407.01 C278.31 411.58 274.61 415.28 270.05 415.28 C265.49 415.28 261.79 411.58 261.79 407.01 Z" stroke="rgb(255, 128, 255)" stroke-width="0.75" fill-rule="evenodd" stroke-linejoin="bevel" fill="rgb(255, 128, 255)" shape-rendering="geometricPrecision" /></g><g><text xml:space="preserve" text-anchor="start" text-rendering="geometricPrecision"><tspan x="266.3" y="410.65" font-family="Arial" font-size="9" fill="rgb(0, 0, 0)">M</tspan></text></g></g></g></svg>