<?xml version="1.0"?><svg xmlns="http://www.w3.org/2000/svg" xmlns:xlink="http://www.w3.org/1999/xlink" viewBox="310.33 158.65 147.42 107.67" preserveAspectRatio="xMidYMid" width="100%" height="100%"><clipPath id="44"><rect x="0.3" y="0.3" width="769" height="522.6" /></clipPath><g id="drawing"><rect x="310.33" y="158.65" width="100%" height="100%" fill="rgb(255, 255, 255)" /><g id="page" clip-path="url(#44)"><g><text xml:space="preserve" text-anchor="start" text-rendering="geometricPrecision"><tspan x="365.44" y="176.91" font-family="Arial" font-weight="bold" font-size="7" fill="rgb(182, 0, 182)">H</tspan></text></g><g><text xml:space="preserve" text-anchor="start" text-rendering="geometricPrecision"><tspan x="390.36" y="191.3" font-family="Arial" font-size="7" fill="rgb(0, 0, 0)">N</tspan></text></g><g><text xml:space="preserve" text-anchor="start" text-rendering="geometricPrecision"><tspan x="415.33" y="176.9" font-family="Arial" font-weight="bold" font-size="7" fill="rgb(0, 174, 43)">H</tspan></text></g><g><text xml:space="preserve" text-anchor="start" text-rendering="geometricPrecision"><tspan x="427.8" y="198.5" font-family="Arial" font-weight="bold" font-size="7" fill="rgb(0, 174, 43)">H</tspan></text></g><g><text xml:space="preserve" text-anchor="start" text-rendering="geometricPrecision"><tspan x="427.8" y="184.1" font-family="Arial" font-weight="bold" font-size="7" fill="rgb(0, 174, 43)">H</tspan></text></g><g><text xml:space="preserve" text-anchor="start" text-rendering="geometricPrecision"><tspan x="402.65" y="212.92" font-family="Arial" font-size="7" fill="rgb(0, 0, 0)">O</tspan></text></g><g><text xml:space="preserve" text-anchor="start" text-rendering="geometricPrecision"><tspan x="390.35" y="220.12" font-family="Arial" font-weight="bold" font-size="7" fill="rgb(182, 0, 182)">H</tspan></text></g><g><text xml:space="preserve" text-anchor="start" text-rendering="geometricPrecision"><tspan x="365.47" y="234.52" font-family="Arial" font-weight="bold" font-size="7" fill="rgb(182, 0, 182)">H</tspan></text></g><g><text xml:space="preserve" text-anchor="end" text-rendering="geometricPrecision"><tspan x="345.72" y="220.2" font-family="Arial" font-size="7" fill="rgb(0, 0, 0)">HO</tspan></text></g><g><text xml:space="preserve" text-anchor="start" text-rendering="geometricPrecision"><tspan x="340.48" y="191.31" font-family="Arial" font-weight="bold" font-size="7" fill="rgb(182, 0, 182)">H</tspan></text></g><g id="Solid"><path d="M355.18 195.91 L355.18 195.91 L355.48 195.74 L355.78 195.91 L355.78 210.04 L355.48 210.21 L355.18 210.04 Z" stroke="rgb(0, 0, 0)" stroke-width="0" fill-rule="evenodd" stroke-linejoin="miter" fill="rgb(0, 0, 0)" shape-rendering="geometricPrecision" /></g><g id="Solid"><path d="M355.48 210.56 L355.48 210.56 L355.48 210.21 L355.78 210.04 L368 216.99 L368 217.34 L367.7 217.51 Z" stroke="rgb(0, 0, 0)" stroke-width="0" fill-rule="evenodd" stroke-linejoin="miter" fill="rgb(0, 0, 0)" shape-rendering="geometricPrecision" /><line x1="358.07" y1="208.7" x2="367.99" y2="214.35" stroke="rgb(0, 0, 0)" stroke-width="0.6" shape-rendering="auto" /></g><g id="Solid"><path d="M368.3 217.51 L368.3 217.51 L368 217.34 L368 216.99 L380.1 209.98 L380.4 210.15 L380.4 210.5 Z" stroke="rgb(0, 0, 0)" stroke-width="0" fill-rule="evenodd" stroke-linejoin="miter" fill="rgb(0, 0, 0)" shape-rendering="geometricPrecision" /></g><g id="Solid"><path d="M380.7 209.98 L380.7 209.98 L380.4 210.15 L380.1 209.98 L380.1 195.9 L380.4 195.73 L380.7 195.9 Z" stroke="rgb(0, 0, 0)" stroke-width="0" fill-rule="evenodd" stroke-linejoin="miter" fill="rgb(0, 0, 0)" shape-rendering="geometricPrecision" /><line x1="377.8" y1="208.65" x2="377.8" y2="197.23" stroke="rgb(0, 0, 0)" stroke-width="0.6" shape-rendering="auto" /></g><g id="Solid"><path d="M380.4 195.38 L380.4 195.38 L380.4 195.73 L380.1 195.9 L367.97 188.89 L367.97 188.54 L368.27 188.37 Z" stroke="rgb(0, 0, 0)" stroke-width="0" fill-rule="evenodd" stroke-linejoin="miter" fill="rgb(0, 0, 0)" shape-rendering="geometricPrecision" /></g><g id="Solid"><path d="M367.67 188.37 L367.67 188.37 L367.97 188.54 L367.97 188.89 L355.78 195.91 L355.48 195.74 L355.48 195.39 Z" stroke="rgb(0, 0, 0)" stroke-width="0" fill-rule="evenodd" stroke-linejoin="miter" fill="rgb(0, 0, 0)" shape-rendering="geometricPrecision" /><line x1="367.97" y1="191.54" x2="358.07" y2="197.24" stroke="rgb(0, 0, 0)" stroke-width="0.6" shape-rendering="auto" /></g><g id="Solid"><path d="M368.27 188.37 L368.27 188.37 L367.97 188.54 L367.67 188.37 L367.67 178.6 L367.97 178.6 L368.27 178.6 Z" stroke="rgb(0, 0, 0)" stroke-width="0" fill-rule="evenodd" stroke-linejoin="miter" fill="rgb(0, 0, 0)" shape-rendering="geometricPrecision" /></g><g id="Solid"><path d="M380.7 195.9 L380.7 195.9 L380.4 195.73 L380.4 195.38 L389.36 190.21 L389.51 190.47 L389.66 190.73 Z" stroke="rgb(0, 0, 0)" stroke-width="0" fill-rule="evenodd" stroke-linejoin="miter" fill="rgb(0, 0, 0)" shape-rendering="geometricPrecision" /></g><g id="Solid"><path d="M396.14 190.74 L396.14 190.74 L396.29 190.48 L396.44 190.22 L405.37 195.38 L405.37 195.73 L405.37 196.08 Z" stroke="rgb(0, 0, 0)" stroke-width="0" fill-rule="evenodd" stroke-linejoin="miter" fill="rgb(0, 0, 0)" shape-rendering="geometricPrecision" /></g><g id="Solid"><path d="M405.37 196.08 L405.37 196.08 L405.37 195.73 L405.37 195.38 L417.55 188.35 L417.85 188.52 L417.85 188.87 Z" stroke="rgb(0, 0, 0)" stroke-width="0" fill-rule="evenodd" stroke-linejoin="miter" fill="rgb(0, 0, 0)" shape-rendering="geometricPrecision" /></g><g id="Solid"><path d="M418.15 188 L418.15 188 L417.85 188.52 L417.55 188.35 L417.55 178.5 L417.85 178.5 L418.15 178.5 Z" stroke="rgb(0, 0, 0)" stroke-width="0" fill-rule="evenodd" stroke-linejoin="miter" fill="rgb(0, 0, 0)" shape-rendering="geometricPrecision" /></g><g id="Solid"><path d="M417.85 188.87 L417.85 188.87 L417.85 188.52 L418.45 188.52 L427.16 193.55 L427.01 193.81 L426.86 194.07 Z" stroke="rgb(0, 0, 0)" stroke-width="0" fill-rule="evenodd" stroke-linejoin="miter" fill="rgb(0, 0, 0)" shape-rendering="geometricPrecision" /></g><g id="Solid"><path d="M418.45 188.52 L418.45 188.52 L417.85 188.52 L418.15 188 L426.86 182.97 L427.01 183.23 L427.16 183.49 Z" stroke="rgb(0, 0, 0)" stroke-width="0" fill-rule="evenodd" stroke-linejoin="miter" fill="rgb(0, 0, 0)" shape-rendering="geometricPrecision" /></g><g id="Solid"><line x1="406.67" y1="195.73" x2="406.67" y2="206.3" stroke="rgb(0, 0, 0)" stroke-width="0.6" shape-rendering="auto" /><path d="M404.37 195.5 L404.37 195.5 L403.77 195.15 L403.77 206.3 L404.37 206.3 Z" stroke="rgb(0, 0, 0)" stroke-width="0" fill-rule="evenodd" stroke-linejoin="miter" fill="rgb(0, 0, 0)" shape-rendering="geometricPrecision" /><path d="M406.97 195.15 L406.97 195.15 L406.37 195.5 L406.37 206.3 L406.97 206.3 Z" stroke="rgb(0, 0, 0)" stroke-width="0" fill-rule="evenodd" stroke-linejoin="miter" fill="rgb(0, 0, 0)" shape-rendering="geometricPrecision" /></g><g id="Solid"><path d="M380.4 210.5 L380.4 210.5 L380.4 210.15 L380.7 209.98 L389.66 215.15 L389.51 215.41 L389.36 215.67 Z" stroke="rgb(0, 0, 0)" stroke-width="0" fill-rule="evenodd" stroke-linejoin="miter" fill="rgb(0, 0, 0)" shape-rendering="geometricPrecision" /></g><g id="Solid"><path d="M367.7 217.51 L367.7 217.51 L368 217.34 L368.3 217.51 L368.3 228 L368 228 L367.7 228 Z" stroke="rgb(0, 0, 0)" stroke-width="0" fill-rule="evenodd" stroke-linejoin="miter" fill="rgb(0, 0, 0)" shape-rendering="geometricPrecision" /></g><g id="Solid"><path d="M355.18 210.04 L355.18 210.04 L355.48 210.21 L355.48 210.56 L346.74 215.61 L346.59 215.35 L346.44 215.09 Z" stroke="rgb(0, 0, 0)" stroke-width="0" fill-rule="evenodd" stroke-linejoin="miter" fill="rgb(0, 0, 0)" shape-rendering="geometricPrecision" /></g><g id="Solid"><path d="M355.48 195.39 L355.48 195.39 L355.48 195.74 L355.18 195.91 L346.24 190.75 L346.39 190.49 L346.54 190.23 Z" stroke="rgb(0, 0, 0)" stroke-width="0" fill-rule="evenodd" stroke-linejoin="miter" fill="rgb(0, 0, 0)" shape-rendering="geometricPrecision" /></g><g><text xml:space="preserve" text-anchor="start" text-rendering="geometricPrecision"><tspan x="390.36" y="176.9" font-family="Arial" font-size="7" fill="rgb(0, 0, 0)">H</tspan></text></g><g id="Solid"><path d="M393.19 184.7 L393.19 184.7 L392.89 184.7 L392.59 184.7 L392.59 178.5 L392.89 178.5 L393.19 178.5 Z" stroke="rgb(0, 0, 0)" stroke-width="0" fill-rule="evenodd" stroke-linejoin="miter" fill="rgb(0, 0, 0)" shape-rendering="geometricPrecision" /></g><g><text xml:space="preserve" text-anchor="start" text-rendering="geometricPrecision"><tspan x="361.56" y="252.13" font-family="Arial" font-size="8" fill="rgb(0, 0, 0)">Paracetamol</tspan></text></g><g id="Rectangle"><path d="M454.65 161.75 L454.65 161.75 L457.05 161.75 L457.05 265.65 L313.35 265.65 L313.35 263.25 L454.65 263.25 " stroke="rgb(192, 192, 192)" stroke-width="0" fill-rule="evenodd" stroke-linejoin="bevel" fill="rgb(192, 192, 192)" shape-rendering="geometricPrecision" /><path d="M311 159.33 L311 159.33 L454.68 159.33 L454.68 263.25 L311 263.25 Z" stroke="rgb(0, 0, 0)" stroke-width="0.6" fill-rule="evenodd" stroke-linejoin="miter" fill="none" shape-rendering="geometricPrecision" /></g></g></g></svg>