<?xml version="1.0"?><svg xmlns="http://www.w3.org/2000/svg" xmlns:xlink="http://www.w3.org/1999/xlink" viewBox="359.7 101.5 186.82 223.76" preserveAspectRatio="xMidYMid" width="100%" height="100%"><clipPath id="157"><rect x="0.3" y="0.3" width="769" height="522.6" /></clipPath><g id="drawing"><rect x="359.7" y="101.5" width="100%" height="100%" fill="rgb(255, 255, 255)" /><g id="page" clip-path="url(#157)"><g><text xml:space="preserve" text-anchor="start" text-rendering="geometricPrecision"><tspan x="433.05" y="307.13" font-family="Arial" font-size="8" fill="rgb(0, 0, 0)">Remdesivir</tspan></text></g><g id="Rectangle"><path d="M543.35 104.65 L543.35 104.65 L545.75 104.65 L545.75 324.45 L362.85 324.45 L362.85 322.05 L543.35 322.05 " stroke="rgb(192, 192, 192)" stroke-width="0" fill-rule="evenodd" stroke-linejoin="bevel" fill="rgb(192, 192, 192)" shape-rendering="geometricPrecision" /><path d="M360.5 102.3 L360.5 102.3 L543.32 102.3 L543.32 322.06 L360.5 322.06 Z" stroke="rgb(0, 0, 0)" stroke-width="0.6" fill-rule="evenodd" stroke-linejoin="miter" fill="none" shape-rendering="geometricPrecision" /></g><g><text xml:space="preserve" text-anchor="start" text-rendering="geometricPrecision"><tspan x="452.76" y="176.76" font-family="Arial" font-size="7" fill="rgb(0, 0, 0)">O</tspan></text></g><g><text xml:space="preserve" text-anchor="end" text-rendering="geometricPrecision"><tspan x="443.15" y="211.88" font-family="Arial" font-size="7" fill="rgb(0, 0, 0)">HN</tspan></text></g><g><text xml:space="preserve" text-anchor="start" text-rendering="geometricPrecision"><tspan x="442.74" y="225.59" font-family="Arial" font-size="7" fill="rgb(0, 0, 0)">P</tspan></text></g><g><text xml:space="preserve" text-anchor="start" text-rendering="geometricPrecision"><tspan x="456.44" y="228.57" font-family="Arial" font-size="7" fill="rgb(0, 0, 0)">O</tspan></text></g><g><text xml:space="preserve" text-anchor="end" text-rendering="geometricPrecision"><tspan x="495.12" y="199.74" font-family="Arial" font-size="7" fill="rgb(0, 0, 0)">HO</tspan></text></g><g><text xml:space="preserve" text-anchor="start" text-rendering="geometricPrecision"><tspan x="513.95" y="213.92" font-family="Arial" font-size="7" fill="rgb(0, 0, 0)">OH</tspan></text></g><g><text xml:space="preserve" text-anchor="start" text-rendering="geometricPrecision"><tspan x="481.99" y="250.18" font-family="Arial" font-size="7" fill="rgb(0, 0, 0)">N</tspan></text></g><g><text xml:space="preserve" text-anchor="start" text-rendering="geometricPrecision"><tspan x="469.51" y="242.98" font-family="Arial" font-size="7" fill="rgb(0, 0, 0)">N</tspan></text></g><g><text xml:space="preserve" text-anchor="start" text-rendering="geometricPrecision"><tspan x="457.04" y="264.59" font-family="Arial" font-size="7" fill="rgb(0, 0, 0)">N</tspan></text></g><g><text xml:space="preserve" text-anchor="start" text-rendering="geometricPrecision"><tspan x="469.51" y="283.31" font-family="Arial" font-size="7" fill="rgb(0, 0, 0)">NH</tspan><tspan font-family="Arial" dy="1.58" font-size="5.25" fill="rgb(0, 0, 0)">2</tspan></text></g><g><text xml:space="preserve" text-anchor="start" text-rendering="geometricPrecision"><tspan x="518.53" y="257.38" font-family="Arial" font-weight="bold" font-size="7" fill="rgb(0, 179, 179)">H</tspan></text></g><g><text xml:space="preserve" text-anchor="start" text-rendering="geometricPrecision"><tspan x="499.4" y="282.94" font-family="Arial" font-weight="bold" font-size="7" fill="rgb(0, 179, 179)">H</tspan></text></g><g><text xml:space="preserve" text-anchor="start" text-rendering="geometricPrecision"><tspan x="444.53" y="242.95" font-family="Microsoft Sans Serif" font-weight="bold" font-size="7" fill="rgb(0, 179, 179)">H</tspan></text></g><g><text xml:space="preserve" text-anchor="start" text-rendering="geometricPrecision"><tspan x="525.5" y="226.7" font-family="Arial" font-size="7" fill="rgb(0, 0, 0)">N</tspan></text></g><g><text xml:space="preserve" text-anchor="start" text-rendering="geometricPrecision"><tspan x="486" y="233.99" font-family="Arial" font-size="7" fill="rgb(0, 0, 0)">O</tspan></text></g><g><text xml:space="preserve" text-anchor="start" text-rendering="geometricPrecision"><tspan x="431.65" y="237.72" font-family="Arial" font-size="7" fill="rgb(0, 0, 0)">O</tspan></text></g><g><text xml:space="preserve" text-anchor="start" text-rendering="geometricPrecision"><tspan x="411.82" y="259.34" font-family="Arial" font-weight="bold" font-size="7" fill="rgb(157, 22, 140)">H</tspan></text></g><g><text xml:space="preserve" text-anchor="start" text-rendering="geometricPrecision"><tspan x="383.84" y="252.61" font-family="Arial" font-weight="bold" font-size="7" fill="rgb(157, 22, 140)">H</tspan></text></g><g><text xml:space="preserve" text-anchor="start" text-rendering="geometricPrecision"><tspan x="375.67" y="225.01" font-family="Arial" font-weight="bold" font-size="7" fill="rgb(157, 22, 140)">H</tspan></text></g><g><text xml:space="preserve" text-anchor="start" text-rendering="geometricPrecision"><tspan x="395.49" y="204.13" font-family="Arial" font-weight="bold" font-size="7" fill="rgb(157, 22, 140)">H</tspan></text></g><g><text xml:space="preserve" text-anchor="start" text-rendering="geometricPrecision"><tspan x="423.48" y="210.86" font-family="Arial" font-weight="bold" font-size="7" fill="rgb(157, 22, 140)">H</tspan></text></g><g><text xml:space="preserve" text-anchor="start" text-rendering="geometricPrecision"><tspan x="431.07" y="223.19" font-family="Arial" font-size="7" fill="rgb(0, 0, 0)">O</tspan></text></g><g><text xml:space="preserve" text-anchor="start" text-rendering="geometricPrecision"><tspan x="431.85" y="185.06" font-family="Arial" font-size="7" fill="rgb(0, 0, 0)">O</tspan></text></g><g><text xml:space="preserve" text-anchor="start" text-rendering="geometricPrecision"><tspan x="441.04" y="135.22" font-family="Microsoft Sans Serif" font-weight="bold" font-size="7" fill="rgb(0, 174, 43)">H</tspan></text></g><g><text xml:space="preserve" text-anchor="start" text-rendering="geometricPrecision"><tspan x="451.22" y="125.04" font-family="Microsoft Sans Serif" font-weight="bold" font-size="7" fill="rgb(0, 174, 43)">H</tspan></text></g><g><text xml:space="preserve" text-anchor="start" text-rendering="geometricPrecision"><tspan x="468.86" y="170.49" font-family="Microsoft Sans Serif" font-weight="bold" font-size="7" fill="rgb(0, 174, 43)">H</tspan></text></g><g><text xml:space="preserve" text-anchor="start" text-rendering="geometricPrecision"><tspan x="482.77" y="166.76" font-family="Microsoft Sans Serif" font-weight="bold" font-size="7" fill="rgb(0, 174, 43)">H</tspan></text></g><g id="Solid"><path d="M461.32 150.43 L461.32 150.43 L461.23 150.1 L461.47 149.86 L475.05 153.5 L475.14 153.83 L474.77 154.04 Z" stroke="rgb(0, 0, 0)" stroke-width="0" fill-rule="evenodd" stroke-linejoin="miter" fill="rgb(0, 0, 0)" shape-rendering="geometricPrecision" /></g><g id="Solid"><path d="M460.9 150.01 L460.9 150.01 L461.23 150.1 L461.32 150.43 L451.38 160.37 L451.04 160.29 L450.7 160.21 Z" stroke="rgb(0, 0, 0)" stroke-width="0" fill-rule="evenodd" stroke-linejoin="miter" fill="rgb(0, 0, 0)" shape-rendering="geometricPrecision" /></g><g id="Solid"><path d="M450.7 160.21 L450.7 160.21 L451.04 160.29 L451.38 160.37 L454.57 170.19 L454.29 170.28 L454 170.37 Z" stroke="rgb(0, 0, 0)" stroke-width="0" fill-rule="evenodd" stroke-linejoin="miter" fill="rgb(0, 0, 0)" shape-rendering="geometricPrecision" /></g><g id="Solid"><path d="M452.31 177.07 L452.31 177.07 L452.53 177.27 L452.75 177.47 L446.18 184.76 L445.84 184.69 L445.5 184.62 Z" stroke="rgb(0, 0, 0)" stroke-width="0" fill-rule="evenodd" stroke-linejoin="miter" fill="rgb(0, 0, 0)" shape-rendering="geometricPrecision" /></g><g id="Solid"><path d="M445.5 184.62 L445.5 184.62 L445.84 184.69 L446.18 184.76 L450.62 198.47 L450.28 198.4 L449.94 198.33 Z" stroke="rgb(0, 0, 0)" stroke-width="0" fill-rule="evenodd" stroke-linejoin="miter" fill="rgb(0, 0, 0)" shape-rendering="geometricPrecision" /></g><g id="Wedged Hash Begin Bond"><path d="M450.22 198.69 L450.22 198.69 L450.34 198.11 L450.95 198.15 L450.79 198.9 Z" stroke="rgb(0, 0, 0)" stroke-width="0" fill-rule="evenodd" stroke-linejoin="miter" fill="rgb(0, 0, 0)" shape-rendering="geometricPrecision" /><path d="M452.81 199.64 L452.81 199.64 L453.09 198.29 L453.7 198.33 L453.38 199.85 Z" stroke="rgb(0, 0, 0)" stroke-width="0" fill-rule="evenodd" stroke-linejoin="miter" fill="rgb(0, 0, 0)" shape-rendering="geometricPrecision" /><path d="M455.4 200.6 L455.4 200.6 L455.85 198.48 L456.45 198.52 L455.97 200.8 Z" stroke="rgb(0, 0, 0)" stroke-width="0" fill-rule="evenodd" stroke-linejoin="miter" fill="rgb(0, 0, 0)" shape-rendering="geometricPrecision" /><path d="M457.99 201.55 L457.99 201.55 L458.6 198.67 L459.2 198.71 L458.55 201.76 Z" stroke="rgb(0, 0, 0)" stroke-width="0" fill-rule="evenodd" stroke-linejoin="miter" fill="rgb(0, 0, 0)" shape-rendering="geometricPrecision" /><path d="M460.57 202.5 L460.57 202.5 L461.35 198.85 L461.96 198.89 L461.14 202.71 Z" stroke="rgb(0, 0, 0)" stroke-width="0" fill-rule="evenodd" stroke-linejoin="miter" fill="rgb(0, 0, 0)" shape-rendering="geometricPrecision" /></g><g id="Solid"><path d="M449.94 198.33 L449.94 198.33 L450.28 198.4 L450.62 198.47 L443.89 205.93 L443.67 205.73 L443.45 205.53 Z" stroke="rgb(0, 0, 0)" stroke-width="0" fill-rule="evenodd" stroke-linejoin="miter" fill="rgb(0, 0, 0)" shape-rendering="geometricPrecision" /></g><g id="Solid"><path d="M441.65 213.21 L441.65 213.21 L441.93 213.12 L442.22 213.03 L444.14 218.99 L443.86 219.08 L443.57 219.17 Z" stroke="rgb(0, 0, 0)" stroke-width="0" fill-rule="evenodd" stroke-linejoin="miter" fill="rgb(0, 0, 0)" shape-rendering="geometricPrecision" /></g><g id="Solid"><path d="M448.4 223.83 L448.4 223.83 L448.47 223.54 L448.53 223.24 L455.4 224.7 L455.33 224.99 L455.27 225.28 Z" stroke="rgb(0, 0, 0)" stroke-width="0" fill-rule="evenodd" stroke-linejoin="miter" fill="rgb(0, 0, 0)" shape-rendering="geometricPrecision" /></g><g id="Solid"><path d="M462.17 222.91 L462.17 222.91 L461.95 222.71 L461.72 222.51 L468.58 214.88 L468.8 215.08 L469.02 215.28 Z" stroke="rgb(0, 0, 0)" stroke-width="0" fill-rule="evenodd" stroke-linejoin="miter" fill="rgb(0, 0, 0)" shape-rendering="geometricPrecision" /></g><g id="Wedged Hash Begin Bond"><path d="M482.94 217.76 L482.94 217.76 L482.82 218.34 L482.22 218.29 L482.37 217.57 Z" stroke="rgb(0, 0, 0)" stroke-width="0" fill-rule="evenodd" stroke-linejoin="miter" fill="rgb(0, 0, 0)" shape-rendering="geometricPrecision" /><path d="M480.31 216.88 L480.31 216.88 L480.05 218.08 L479.45 218.03 L479.74 216.69 Z" stroke="rgb(0, 0, 0)" stroke-width="0" fill-rule="evenodd" stroke-linejoin="miter" fill="rgb(0, 0, 0)" shape-rendering="geometricPrecision" /><path d="M477.68 216 L477.68 216 L477.29 217.82 L476.69 217.77 L477.1 215.81 Z" stroke="rgb(0, 0, 0)" stroke-width="0" fill-rule="evenodd" stroke-linejoin="miter" fill="rgb(0, 0, 0)" shape-rendering="geometricPrecision" /><path d="M475.04 215.12 L475.04 215.12 L474.53 217.56 L473.93 217.51 L474.47 214.93 Z" stroke="rgb(0, 0, 0)" stroke-width="0" fill-rule="evenodd" stroke-linejoin="miter" fill="rgb(0, 0, 0)" shape-rendering="geometricPrecision" /><path d="M472.41 214.24 L472.41 214.24 L471.76 217.3 L471.16 217.25 L471.84 214.05 Z" stroke="rgb(0, 0, 0)" stroke-width="0" fill-rule="evenodd" stroke-linejoin="miter" fill="rgb(0, 0, 0)" shape-rendering="geometricPrecision" /><path d="M469.78 213.36 L469.78 213.36 L469 217.04 L468.4 216.99 L469.2 213.17 Z" stroke="rgb(0, 0, 0)" stroke-width="0" fill-rule="evenodd" stroke-linejoin="miter" fill="rgb(0, 0, 0)" shape-rendering="geometricPrecision" /></g><g id="Solid"><path d="M493.26 208.32 L493.26 208.32 L493.59 208.42 L493.63 208.79 L483.24 218.13 L482.88 218.05 L482.52 217.97 Z" stroke="rgb(0, 0, 0)" stroke-width="0" fill-rule="evenodd" stroke-linejoin="miter" fill="rgb(0, 0, 0)" shape-rendering="geometricPrecision" /></g><g id="WedgeBegin"><path d="M493.89 208.25 L493.89 208.25 L493.59 208.42 L493.26 208.32 L490.93 201.69 L492.87 201.49 L494.81 201.29 Z" stroke="rgb(0, 0, 0)" stroke-width="0" fill-rule="evenodd" stroke-linejoin="miter" fill="rgb(0, 0, 0)" shape-rendering="geometricPrecision" /></g><g id="Solid"><path d="M506.06 215.29 L506.06 215.29 L506.06 215.64 L505.71 215.79 L493.63 208.79 L493.59 208.42 L493.89 208.25 Z" stroke="rgb(0, 0, 0)" stroke-width="0" fill-rule="evenodd" stroke-linejoin="miter" fill="rgb(0, 0, 0)" shape-rendering="geometricPrecision" /></g><g id="WedgeBegin"><path d="M506.31 215.88 L506.31 215.88 L506.06 215.64 L506.06 215.29 L512.07 210.98 L512.83 212.78 L513.59 214.57 Z" stroke="rgb(0, 0, 0)" stroke-width="0" fill-rule="evenodd" stroke-linejoin="miter" fill="rgb(0, 0, 0)" shape-rendering="geometricPrecision" /></g><g id="Solid"><path d="M503.07 228.81 L503.07 228.81 L502.65 229.27 L502.41 229 L505.71 215.79 L506.06 215.64 L506.31 215.88 Z" stroke="rgb(0, 0, 0)" stroke-width="0" fill-rule="evenodd" stroke-linejoin="miter" fill="rgb(0, 0, 0)" shape-rendering="geometricPrecision" /></g><g id="Solid"><path d="M502.22 229.63 L502.22 229.63 L502.65 229.27 L502.88 229.55 L498.53 242.91 L498.2 242.96 L497.96 242.72 Z" stroke="rgb(0, 0, 0)" stroke-width="0" fill-rule="evenodd" stroke-linejoin="miter" fill="rgb(0, 0, 0)" shape-rendering="geometricPrecision" /></g><g id="Solid"><path d="M488.11 246.55 L488.11 246.55 L488.02 246.27 L487.93 245.98 L497.96 242.72 L498.2 242.96 L498.09 243.31 Z" stroke="rgb(0, 0, 0)" stroke-width="0" fill-rule="evenodd" stroke-linejoin="miter" fill="rgb(0, 0, 0)" shape-rendering="geometricPrecision" /></g><g id="Solid"><path d="M481.36 245.25 L481.36 245.25 L481.21 245.51 L481.06 245.77 L475.24 242.4 L475.39 242.14 L475.54 241.88 Z" stroke="rgb(0, 0, 0)" stroke-width="0" fill-rule="evenodd" stroke-linejoin="miter" fill="rgb(0, 0, 0)" shape-rendering="geometricPrecision" /></g><g id="Solid"><path d="M468.56 241.87 L468.56 241.87 L468.71 242.13 L468.86 242.39 L459.86 247.58 L459.56 247.41 L459.56 247.06 Z" stroke="rgb(0, 0, 0)" stroke-width="0" fill-rule="evenodd" stroke-linejoin="miter" fill="rgb(0, 0, 0)" shape-rendering="geometricPrecision" /><line x1="469.76" y1="243.94" x2="461.66" y2="248.62" stroke="rgb(0, 0, 0)" stroke-width="0.6" shape-rendering="auto" /></g><g id="Solid"><path d="M459.26 247.58 L459.26 247.58 L459.56 247.41 L459.86 247.58 L459.86 258 L459.56 258 L459.26 258 Z" stroke="rgb(0, 0, 0)" stroke-width="0" fill-rule="evenodd" stroke-linejoin="miter" fill="rgb(0, 0, 0)" shape-rendering="geometricPrecision" /></g><g id="Solid"><path d="M462.84 264.05 L462.84 264.05 L462.99 263.79 L463.14 263.53 L472.04 268.66 L472.04 269.01 L471.74 269.18 Z" stroke="rgb(0, 0, 0)" stroke-width="0" fill-rule="evenodd" stroke-linejoin="miter" fill="rgb(0, 0, 0)" shape-rendering="geometricPrecision" /><line x1="464.03" y1="261.98" x2="472.04" y2="266.61" stroke="rgb(0, 0, 0)" stroke-width="0.6" shape-rendering="auto" /></g><g id="Solid"><path d="M471.74 269.18 L471.74 269.18 L472.04 269.01 L472.34 269.18 L472.34 276.7 L472.04 276.7 L471.74 276.7 Z" stroke="rgb(0, 0, 0)" stroke-width="0" fill-rule="evenodd" stroke-linejoin="miter" fill="rgb(0, 0, 0)" shape-rendering="geometricPrecision" /></g><g id="Solid"><path d="M472.34 269.18 L472.34 269.18 L472.04 269.01 L472.04 268.66 L484.21 261.64 L484.51 261.81 L484.54 262.14 Z" stroke="rgb(0, 0, 0)" stroke-width="0" fill-rule="evenodd" stroke-linejoin="miter" fill="rgb(0, 0, 0)" shape-rendering="geometricPrecision" /></g><g id="Solid"><path d="M484.81 261.59 L484.81 261.59 L484.51 261.81 L484.21 261.64 L484.21 251.8 L484.51 251.8 L484.81 251.8 Z" stroke="rgb(0, 0, 0)" stroke-width="0" fill-rule="evenodd" stroke-linejoin="miter" fill="rgb(0, 0, 0)" shape-rendering="geometricPrecision" /></g><g id="Solid"><path d="M498.09 265.91 L498.09 265.91 L498.2 266.26 L497.95 266.49 L484.54 262.14 L484.51 261.81 L484.81 261.59 Z" stroke="rgb(0, 0, 0)" stroke-width="0" fill-rule="evenodd" stroke-linejoin="miter" fill="rgb(0, 0, 0)" shape-rendering="geometricPrecision" /><line x1="497.21" y1="263.21" x2="487.1" y2="259.93" stroke="rgb(0, 0, 0)" stroke-width="0.6" shape-rendering="auto" /></g><g id="Solid"><path d="M506.3 254.61 L506.3 254.61 L506.67 254.61 L506.82 254.91 L498.53 266.32 L498.2 266.26 L498.09 265.91 Z" stroke="rgb(0, 0, 0)" stroke-width="0" fill-rule="evenodd" stroke-linejoin="miter" fill="rgb(0, 0, 0)" shape-rendering="geometricPrecision" /></g><g id="Solid"><path d="M498.09 243.31 L498.09 243.31 L498.2 242.96 L498.53 242.91 L506.82 254.31 L506.67 254.61 L506.3 254.61 Z" stroke="rgb(0, 0, 0)" stroke-width="0" fill-rule="evenodd" stroke-linejoin="miter" fill="rgb(0, 0, 0)" shape-rendering="geometricPrecision" /><line x1="497.21" y1="246.01" x2="503.46" y2="254.61" stroke="rgb(0, 0, 0)" stroke-width="0.6" shape-rendering="auto" /></g><g id="Solid"><path d="M506.82 254.91 L506.82 254.91 L506.67 254.61 L506.82 254.31 L517.5 254.31 L517.5 254.61 L517.5 254.91 Z" stroke="rgb(0, 0, 0)" stroke-width="0" fill-rule="evenodd" stroke-linejoin="miter" fill="rgb(0, 0, 0)" shape-rendering="geometricPrecision" /></g><g id="Solid"><path d="M497.95 266.49 L497.95 266.49 L498.2 266.26 L498.53 266.32 L501.23 276.38 L500.94 276.45 L500.65 276.53 Z" stroke="rgb(0, 0, 0)" stroke-width="0" fill-rule="evenodd" stroke-linejoin="miter" fill="rgb(0, 0, 0)" shape-rendering="geometricPrecision" /></g><g id="Solid"><path d="M459.56 247.06 L459.56 247.06 L459.56 247.41 L459.26 247.58 L450.44 242.48 L450.59 242.23 L450.74 241.97 Z" stroke="rgb(0, 0, 0)" stroke-width="0" fill-rule="evenodd" stroke-linejoin="miter" fill="rgb(0, 0, 0)" shape-rendering="geometricPrecision" /></g><g id="WedgeBegin"><path d="M502.88 229.55 L502.88 229.55 L502.65 229.27 L503.07 228.81 L516.34 224.39 L516.74 226.3 L517.14 228.21 Z" stroke="rgb(0, 0, 0)" stroke-width="0" fill-rule="evenodd" stroke-linejoin="miter" fill="rgb(0, 0, 0)" shape-rendering="geometricPrecision" /></g><g id="Solid"><path d="M516.8 226.59 L516.8 226.59 L516.74 226.3 L516.68 226.01 L524.47 224.36 L524.53 224.66 L524.6 224.95 Z" stroke="rgb(0, 0, 0)" stroke-width="0" fill-rule="evenodd" stroke-linejoin="miter" fill="rgb(0, 0, 0)" shape-rendering="geometricPrecision" /><line x1="517.17" y1="228.33" x2="524.96" y2="226.69" stroke="rgb(0, 0, 0)" stroke-width="0.6" shape-rendering="auto" /><line x1="516.31" y1="224.27" x2="524.11" y2="222.63" stroke="rgb(0, 0, 0)" stroke-width="0.6" shape-rendering="auto" /></g><g id="Solid"><path d="M492.73 230.96 L492.73 230.96 L492.68 230.67 L492.64 230.37 L502.41 229 L502.65 229.27 L502.22 229.63 Z" stroke="rgb(0, 0, 0)" stroke-width="0" fill-rule="evenodd" stroke-linejoin="miter" fill="rgb(0, 0, 0)" shape-rendering="geometricPrecision" /></g><g id="Solid"><path d="M482.52 217.97 L482.52 217.97 L482.88 218.05 L483.24 218.13 L487.41 227.52 L487.14 227.64 L486.86 227.76 Z" stroke="rgb(0, 0, 0)" stroke-width="0" fill-rule="evenodd" stroke-linejoin="miter" fill="rgb(0, 0, 0)" shape-rendering="geometricPrecision" /></g><g id="Solid"><path d="M442.02 225.83 L442.02 225.83 L442.24 226.03 L442.47 226.22 L437.29 232.1 L437.06 231.9 L436.84 231.7 Z" stroke="rgb(0, 0, 0)" stroke-width="0" fill-rule="evenodd" stroke-linejoin="miter" fill="rgb(0, 0, 0)" shape-rendering="geometricPrecision" /></g><g id="Solid"><path d="M430.6 233.85 L430.6 233.85 L430.53 234.14 L430.47 234.43 L420.38 232.3 L420.27 231.97 L420.5 231.71 Z" stroke="rgb(0, 0, 0)" stroke-width="0" fill-rule="evenodd" stroke-linejoin="miter" fill="rgb(0, 0, 0)" shape-rendering="geometricPrecision" /></g><g id="Solid"><path d="M415.6 218.53 L415.6 218.53 L415.83 218.27 L416.17 218.35 L420.5 231.71 L420.27 231.97 L419.93 231.9 Z" stroke="rgb(0, 0, 0)" stroke-width="0" fill-rule="evenodd" stroke-linejoin="miter" fill="rgb(0, 0, 0)" shape-rendering="geometricPrecision" /></g><g id="Solid"><path d="M401.85 215.59 L401.85 215.59 L401.74 215.26 L401.98 215 L415.73 217.94 L415.83 218.27 L415.6 218.53 Z" stroke="rgb(0, 0, 0)" stroke-width="0" fill-rule="evenodd" stroke-linejoin="miter" fill="rgb(0, 0, 0)" shape-rendering="geometricPrecision" /><line x1="402.66" y1="218.11" x2="413.82" y2="220.49" stroke="rgb(0, 0, 0)" stroke-width="0.6" shape-rendering="auto" /></g><g id="Solid"><path d="M392.44 226.03 L392.44 226.03 L392.1 225.96 L392 225.62 L401.41 215.18 L401.74 215.26 L401.85 215.59 Z" stroke="rgb(0, 0, 0)" stroke-width="0" fill-rule="evenodd" stroke-linejoin="miter" fill="rgb(0, 0, 0)" shape-rendering="geometricPrecision" /></g><g id="Solid"><path d="M396.77 239.4 L396.77 239.4 L396.54 239.66 L396.2 239.58 L391.86 226.21 L392.1 225.96 L392.44 226.03 Z" stroke="rgb(0, 0, 0)" stroke-width="0" fill-rule="evenodd" stroke-linejoin="miter" fill="rgb(0, 0, 0)" shape-rendering="geometricPrecision" /><line x1="398.54" y1="237.44" x2="395.03" y2="226.58" stroke="rgb(0, 0, 0)" stroke-width="0.6" shape-rendering="auto" /></g><g id="Solid"><path d="M410.51 242.33 L410.51 242.33 L410.62 242.66 L410.38 242.92 L396.64 239.99 L396.54 239.66 L396.77 239.4 Z" stroke="rgb(0, 0, 0)" stroke-width="0" fill-rule="evenodd" stroke-linejoin="miter" fill="rgb(0, 0, 0)" shape-rendering="geometricPrecision" /></g><g id="Solid"><path d="M419.93 231.9 L419.93 231.9 L420.27 231.97 L420.38 232.3 L410.95 242.74 L410.62 242.66 L410.51 242.33 Z" stroke="rgb(0, 0, 0)" stroke-width="0" fill-rule="evenodd" stroke-linejoin="miter" fill="rgb(0, 0, 0)" shape-rendering="geometricPrecision" /><line x1="417.34" y1="231.34" x2="409.7" y2="239.81" stroke="rgb(0, 0, 0)" stroke-width="0.6" shape-rendering="auto" /></g><g id="Solid"><path d="M410.38 242.92 L410.38 242.92 L410.62 242.66 L410.95 242.74 L413.65 252.78 L413.36 252.85 L413.07 252.93 Z" stroke="rgb(0, 0, 0)" stroke-width="0" fill-rule="evenodd" stroke-linejoin="miter" fill="rgb(0, 0, 0)" shape-rendering="geometricPrecision" /></g><g id="Solid"><path d="M396.2 239.58 L396.2 239.58 L396.54 239.66 L396.64 239.99 L389.74 246.87 L389.53 246.66 L389.32 246.45 Z" stroke="rgb(0, 0, 0)" stroke-width="0" fill-rule="evenodd" stroke-linejoin="miter" fill="rgb(0, 0, 0)" shape-rendering="geometricPrecision" /></g><g id="Solid"><path d="M392 225.62 L392 225.62 L392.1 225.96 L391.86 226.21 L381.67 223.47 L381.75 223.18 L381.82 222.89 Z" stroke="rgb(0, 0, 0)" stroke-width="0" fill-rule="evenodd" stroke-linejoin="miter" fill="rgb(0, 0, 0)" shape-rendering="geometricPrecision" /></g><g id="Solid"><path d="M401.98 215 L401.98 215 L401.74 215.26 L401.41 215.18 L398.9 205.82 L399.19 205.75 L399.48 205.67 Z" stroke="rgb(0, 0, 0)" stroke-width="0" fill-rule="evenodd" stroke-linejoin="miter" fill="rgb(0, 0, 0)" shape-rendering="geometricPrecision" /></g><g id="Solid"><path d="M416.17 218.35 L416.17 218.35 L415.83 218.27 L415.73 217.94 L422.66 211.01 L422.87 211.22 L423.08 211.44 Z" stroke="rgb(0, 0, 0)" stroke-width="0" fill-rule="evenodd" stroke-linejoin="miter" fill="rgb(0, 0, 0)" shape-rendering="geometricPrecision" /></g><g id="Solid"><line x1="441.58" y1="222.84" x2="437.71" y2="222.02" stroke="rgb(0, 0, 0)" stroke-width="0.6" shape-rendering="auto" /><path d="M441.83 221.67 L441.83 221.67 L441.95 221.08 L438.08 220.26 L437.96 220.85 Z" stroke="rgb(0, 0, 0)" stroke-width="0" fill-rule="evenodd" stroke-linejoin="miter" fill="rgb(0, 0, 0)" shape-rendering="geometricPrecision" /><path d="M441.52 223.14 L441.52 223.14 L441.64 222.55 L437.77 221.73 L437.65 222.31 Z" stroke="rgb(0, 0, 0)" stroke-width="0" fill-rule="evenodd" stroke-linejoin="miter" fill="rgb(0, 0, 0)" shape-rendering="geometricPrecision" /></g><g id="Solid"><line x1="445.62" y1="185.7" x2="438.35" y2="184.15" stroke="rgb(0, 0, 0)" stroke-width="0.6" shape-rendering="auto" /><path d="M446.07 183.99 L446.07 183.99 L446.53 183.47 L438.84 181.83 L438.72 182.41 Z" stroke="rgb(0, 0, 0)" stroke-width="0" fill-rule="evenodd" stroke-linejoin="miter" fill="rgb(0, 0, 0)" shape-rendering="geometricPrecision" /><path d="M445.98 186.09 L445.98 186.09 L445.76 185.43 L438.41 183.86 L438.28 184.44 Z" stroke="rgb(0, 0, 0)" stroke-width="0" fill-rule="evenodd" stroke-linejoin="miter" fill="rgb(0, 0, 0)" shape-rendering="geometricPrecision" /></g><g id="Solid"><path d="M457.26 136.44 L457.26 136.44 L457.5 136.2 L457.83 136.29 L461.47 149.86 L461.23 150.1 L460.9 150.01 Z" stroke="rgb(0, 0, 0)" stroke-width="0" fill-rule="evenodd" stroke-linejoin="miter" fill="rgb(0, 0, 0)" shape-rendering="geometricPrecision" /></g><g id="Solid"><path d="M467.47 125.8 L467.47 125.8 L467.68 126.01 L467.89 126.22 L457.83 136.29 L457.5 136.2 L457.66 135.62 Z" stroke="rgb(0, 0, 0)" stroke-width="0" fill-rule="evenodd" stroke-linejoin="miter" fill="rgb(0, 0, 0)" shape-rendering="geometricPrecision" /></g><g id="Solid"><path d="M457.08 135.78 L457.08 135.78 L457.5 136.2 L457.26 136.44 L447.17 133.74 L447.25 133.45 L447.32 133.16 Z" stroke="rgb(0, 0, 0)" stroke-width="0" fill-rule="evenodd" stroke-linejoin="miter" fill="rgb(0, 0, 0)" shape-rendering="geometricPrecision" /></g><g id="Solid"><path d="M457.66 135.62 L457.66 135.62 L457.5 136.2 L457.08 135.78 L454.65 126.72 L454.94 126.65 L455.23 126.57 Z" stroke="rgb(0, 0, 0)" stroke-width="0" fill-rule="evenodd" stroke-linejoin="miter" fill="rgb(0, 0, 0)" shape-rendering="geometricPrecision" /></g><g id="Solid"><path d="M475.56 153.83 L475.56 153.83 L475.14 153.83 L475.05 153.5 L485.11 143.44 L485.32 143.65 L485.53 143.86 Z" stroke="rgb(0, 0, 0)" stroke-width="0" fill-rule="evenodd" stroke-linejoin="miter" fill="rgb(0, 0, 0)" shape-rendering="geometricPrecision" /></g><g id="Solid"><path d="M474.77 154.04 L474.77 154.04 L475.14 153.83 L475.3 154.41 L472.74 163.93 L472.45 163.85 L472.16 163.78 Z" stroke="rgb(0, 0, 0)" stroke-width="0" fill-rule="evenodd" stroke-linejoin="miter" fill="rgb(0, 0, 0)" shape-rendering="geometricPrecision" /></g><g id="Solid"><path d="M475.3 154.41 L475.3 154.41 L475.14 153.83 L475.56 153.83 L482.48 160.75 L482.27 160.96 L482.06 161.17 Z" stroke="rgb(0, 0, 0)" stroke-width="0" fill-rule="evenodd" stroke-linejoin="miter" fill="rgb(0, 0, 0)" shape-rendering="geometricPrecision" /></g></g></g></svg>