<?xml version="1.0"?><svg xmlns="http://www.w3.org/2000/svg" xmlns:xlink="http://www.w3.org/1999/xlink" viewBox="180.57 41.59 300.91 358.82" preserveAspectRatio="xMidYMid" width="100%" height="100%"><clipPath id="127"><rect x="0.37" y="0.37" width="768.86" height="522.46" /></clipPath><g id="drawing"><rect x="180.57" y="41.59" width="100%" height="100%" fill="rgb(250, 250, 250)" /><g id="page" clip-path="url(#127)"><g id="Rectangle"><path d="M394.45 45.65 L394.45 45.65 L397.45 45.65 L397.45 96.65 L283.45 96.65 L283.45 93.65 L394.45 93.65 " stroke="rgb(244, 244, 255)" stroke-width="0" fill-rule="evenodd" stroke-linejoin="bevel" fill="rgb(244, 244, 255)" shape-rendering="geometricPrecision" /><path d="M280.45 42.7 L280.45 42.7 L394.47 42.7 L394.47 93.66 L280.45 93.66 Z" stroke="rgb(242, 242, 255)" stroke-width="0" fill-rule="evenodd" stroke-linejoin="miter" fill="rgb(242, 242, 255)" shape-rendering="geometricPrecision" /><path d="M280.45 42.7 L280.45 42.7 L394.47 42.7 L394.47 93.66 L280.45 93.66 Z" stroke="rgb(209, 211, 255)" stroke-width="0.74" fill-rule="evenodd" stroke-linejoin="miter" fill="none" shape-rendering="geometricPrecision" /></g><g><text xml:space="preserve" text-anchor="middle" text-rendering="geometricPrecision"><tspan x="338.96" y="66.98" font-family="Arial" font-size="12" fill="rgb(0, 0, 0)">How do you pay </tspan><tspan x="338.96" y="80.49" font-family="Arial" font-size="12" fill="rgb(0, 0, 0)">your energy bill?</tspan></text></g><g id="Rectangle"><path d="M329.85 119.95 L329.85 119.95 L332.75 119.95 L332.75 146.75 L210.25 146.75 L210.25 143.75 L329.85 143.75 " stroke="rgb(192, 192, 192)" stroke-width="0" fill-rule="evenodd" stroke-linejoin="bevel" fill="rgb(192, 192, 192)" shape-rendering="geometricPrecision" /><path d="M207.29 117.01 L207.29 117.01 L329.81 117.01 L329.81 143.79 L207.29 143.79 Z" stroke="rgb(0, 0, 0)" stroke-width="0.74" fill-rule="evenodd" stroke-linejoin="miter" fill="none" shape-rendering="geometricPrecision" /></g><g><text xml:space="preserve" text-anchor="middle" text-rendering="geometricPrecision"><tspan x="268.05" y="135.48" font-family="Arial" font-size="12" fill="rgb(0, 0, 0)">Direct Debit</tspan></text></g><g id="Rectangle"><path d="M330.05 182.95 L330.05 182.95 L332.95 182.95 L332.95 233.25 L211.75 233.25 L211.75 230.35 L330.05 230.35 " stroke="rgb(192, 192, 192)" stroke-width="0" fill-rule="evenodd" stroke-linejoin="bevel" fill="rgb(192, 192, 192)" shape-rendering="geometricPrecision" /><path d="M208.75 179.98 L208.75 179.98 L330.01 179.98 L330.01 230.32 L208.75 230.32 Z" stroke="rgb(0, 0, 0)" stroke-width="0.74" fill-rule="evenodd" stroke-linejoin="miter" fill="none" shape-rendering="geometricPrecision" /></g><g><text xml:space="preserve" text-anchor="middle" text-rendering="geometricPrecision"><tspan x="271.07" y="196.47" font-family="Arial" font-size="12" fill="rgb(0, 0, 0)">Standard credit and </tspan><tspan x="271.07" y="209.81" font-family="Arial" font-size="12" fill="rgb(0, 0, 0)">payment card </tspan><tspan x="271.07" y="223.15" font-family="Arial" font-size="12" fill="rgb(0, 0, 0)">customers</tspan></text></g><g id="Rectangle"><path d="M328.45 264.25 L328.45 264.25 L331.45 264.25 L331.45 300.65 L210.45 300.65 L210.45 297.75 L328.45 297.75 " stroke="rgb(192, 192, 192)" stroke-width="0" fill-rule="evenodd" stroke-linejoin="bevel" fill="rgb(192, 192, 192)" shape-rendering="geometricPrecision" /><path d="M207.5 261.29 L207.5 261.29 L328.48 261.29 L328.48 297.71 L207.5 297.71 Z" stroke="rgb(0, 0, 0)" stroke-width="0.74" fill-rule="evenodd" stroke-linejoin="miter" fill="none" shape-rendering="geometricPrecision" /></g><g><text xml:space="preserve" text-anchor="middle" text-rendering="geometricPrecision"><tspan x="269.49" y="278.3" font-family="Arial" font-size="12" fill="rgb(0, 0, 0)">"Smart" </tspan><tspan x="269.49" y="291.41" font-family="Arial" font-size="12" fill="rgb(0, 0, 0)">payment meter</tspan></text></g><g id="Rectangle"><path d="M328.55 345.95 L328.55 345.95 L331.55 345.95 L331.55 382.45 L210.55 382.45 L210.55 379.45 L328.55 379.45 " stroke="rgb(192, 192, 192)" stroke-width="0" fill-rule="evenodd" stroke-linejoin="bevel" fill="rgb(192, 192, 192)" shape-rendering="geometricPrecision" /><path d="M207.57 343.03 L207.57 343.03 L328.55 343.03 L328.55 379.45 L207.57 379.45 Z" stroke="rgb(0, 0, 0)" stroke-width="0.74" fill-rule="evenodd" stroke-linejoin="miter" fill="none" shape-rendering="geometricPrecision" /></g><g><text xml:space="preserve" text-anchor="middle" text-rendering="geometricPrecision"><tspan x="269.56" y="360.04" font-family="Arial" font-size="12" fill="rgb(0, 0, 0)">Traditional </tspan><tspan x="269.56" y="373.15" font-family="Arial" font-size="12" fill="rgb(0, 0, 0)">payment meter</tspan></text></g><g id="Rectangle"><path d="M475.85 113.95 L475.85 113.95 L478.85 113.95 L478.85 155.25 L353.25 155.25 L353.25 152.25 L475.85 152.25 " stroke="rgb(192, 192, 192)" stroke-width="0" fill-rule="evenodd" stroke-linejoin="bevel" fill="rgb(192, 192, 192)" shape-rendering="geometricPrecision" /><path d="M350.3 110.97 L350.3 110.97 L475.88 110.97 L475.88 152.27 L350.3 152.27 Z" stroke="rgb(0, 0, 0)" stroke-width="0.74" fill-rule="evenodd" stroke-dasharray="2.61" stroke-linejoin="miter" fill="none" shape-rendering="geometricPrecision" /></g><g><text xml:space="preserve" text-anchor="middle" text-rendering="geometricPrecision"><tspan x="414.59" y="130.07" font-family="Arial" font-weight="bold" font-size="12" fill="rgb(0, 0, 0)">Automatic</tspan><tspan x="414.59" y="140.72" font-family="Arial" font-size="12" fill="rgb(0, 0, 0)">deductions from bill</tspan></text></g><g id="Rectangle"><path d="M474.65 182.05 L474.65 182.05 L477.65 182.05 L477.65 235.55 L353.55 235.55 L353.55 232.55 L474.65 232.55 " stroke="rgb(192, 192, 192)" stroke-width="0" fill-rule="evenodd" stroke-linejoin="bevel" fill="rgb(192, 192, 192)" shape-rendering="geometricPrecision" /><path d="M350.57 179.13 L350.57 179.13 L474.69 179.13 L474.69 232.57 L350.57 232.57 Z" stroke="rgb(0, 0, 0)" stroke-width="0.74" fill-rule="evenodd" stroke-dasharray="2.61" stroke-linejoin="miter" fill="none" shape-rendering="geometricPrecision" /></g><g><text xml:space="preserve" text-anchor="middle" text-rendering="geometricPrecision"><tspan x="414.13" y="197.35" font-family="Arial" font-weight="bold" font-size="12" fill="rgb(0, 0, 0)">Automatic</tspan><tspan x="414.13" y="207.83" font-family="Arial" font-size="12" fill="rgb(0, 0, 0)">credit added to </tspan><tspan x="414.13" y="218.3" font-family="Arial" font-size="12" fill="rgb(0, 0, 0)">customers account</tspan></text></g><g id="Rectangle"><path d="M473.15 264.05 L473.15 264.05 L476.15 264.05 L476.15 306.15 L350.55 306.15 L350.55 303.15 L473.15 303.15 " stroke="rgb(192, 192, 192)" stroke-width="0" fill-rule="evenodd" stroke-linejoin="bevel" fill="rgb(192, 192, 192)" shape-rendering="geometricPrecision" /><path d="M347.57 261.14 L347.57 261.14 L473.15 261.14 L473.15 303.18 L347.57 303.18 Z" stroke="rgb(0, 0, 0)" stroke-width="0.74" fill-rule="evenodd" stroke-dasharray="2.61" stroke-linejoin="miter" fill="none" shape-rendering="geometricPrecision" /></g><g><text xml:space="preserve" text-anchor="middle" text-rendering="geometricPrecision"><tspan x="411.86" y="280.6" font-family="Arial" font-weight="bold" font-size="12" fill="rgb(0, 0, 0)">Automatic</tspan><tspan x="411.86" y="293.54" font-family="Arial" font-size="12" fill="rgb(0, 0, 0)">top-ups on account</tspan></text></g><g id="Rectangle"><path d="M477.45 329.35 L477.45 329.35 L480.35 329.35 L480.35 399.35 L351.05 399.35 L351.05 396.35 L477.45 396.35 " stroke="rgb(192, 192, 192)" stroke-width="0" fill-rule="evenodd" stroke-linejoin="bevel" fill="rgb(192, 192, 192)" shape-rendering="geometricPrecision" /><path d="M348.07 326.43 L348.07 326.43 L477.41 326.43 L477.41 396.35 L348.07 396.35 Z" stroke="rgb(0, 0, 0)" stroke-width="0.74" fill-rule="evenodd" stroke-dasharray="2.61" stroke-linejoin="miter" fill="none" shape-rendering="geometricPrecision" /></g><g><text xml:space="preserve" text-anchor="middle" text-rendering="geometricPrecision"><tspan x="414.24" y="345.43" font-family="Arial" font-weight="bold" font-size="12" fill="rgb(0, 0, 0)">Voucher</tspan><tspan x="414.24" y="358.95" font-family="Arial" font-size="12" fill="rgb(0, 0, 0)">to be cashed in at </tspan><tspan x="414.24" y="372.47" font-family="Arial" font-size="12" fill="rgb(0, 0, 0)">top-up centre </tspan><tspan x="414.24" y="385.99" font-family="Arial" font-size="12" fill="rgb(0, 0, 0)">(e.g. Post Office)</tspan></text></g><line x1="181.31" y1="66.61" x2="279.87" y2="66.61" stroke="rgb(0, 0, 0)" stroke-width="0.74" shape-rendering="auto" /><line x1="181.31" y1="361.49" x2="181.31" y2="66.27" stroke="rgb(0, 0, 0)" stroke-width="0.74" shape-rendering="auto" /><line x1="206.96" y1="281.52" x2="181.31" y2="281.52" stroke="rgb(0, 0, 0)" stroke-width="0.74" shape-rendering="auto" /><g id="Arrow"><line x1="341.34" y1="280.21" x2="328.9" y2="280.21" stroke="rgb(0, 0, 0)" stroke-width="0.74" shape-rendering="auto" /><path d="M346.81 280.21 L339.41 278.36 C340.77 279.4 340.77 281.02 339.41 282.06 Z" stroke="rgb(0, 0, 0)" stroke-width="0" fill-rule="evenodd" stroke-linejoin="miter" stroke-miterlimit="8.55347506801678" fill="rgb(0, 0, 0)" shape-rendering="geometricPrecision" /></g><line x1="206.96" y1="130.57" x2="181.31" y2="130.57" stroke="rgb(0, 0, 0)" stroke-width="0.74" shape-rendering="auto" /><g id="Arrow"><line x1="342.72" y1="130.39" x2="330.28" y2="130.39" stroke="rgb(0, 0, 0)" stroke-width="0.74" shape-rendering="auto" /><path d="M348.19 130.39 L340.79 128.54 C342.15 129.58 342.15 131.2 340.79 132.24 Z" stroke="rgb(0, 0, 0)" stroke-width="0" fill-rule="evenodd" stroke-linejoin="miter" stroke-miterlimit="8.55347506801678" fill="rgb(0, 0, 0)" shape-rendering="geometricPrecision" /></g><line x1="208.51" y1="205.61" x2="181.31" y2="205.61" stroke="rgb(0, 0, 0)" stroke-width="0.74" shape-rendering="auto" /><line x1="206.96" y1="361.06" x2="181.31" y2="361.06" stroke="rgb(0, 0, 0)" stroke-width="0.74" shape-rendering="auto" /><g id="Arrow"><line x1="341.34" y1="361.74" x2="328.9" y2="361.74" stroke="rgb(0, 0, 0)" stroke-width="0.74" shape-rendering="auto" /><path d="M346.81 361.74 L339.41 359.89 C340.77 360.93 340.77 362.55 339.41 363.59 Z" stroke="rgb(0, 0, 0)" stroke-width="0" fill-rule="evenodd" stroke-linejoin="miter" stroke-miterlimit="8.55347506801678" fill="rgb(0, 0, 0)" shape-rendering="geometricPrecision" /></g><g id="Arrow"><line x1="343.34" y1="202.8" x2="330.9" y2="202.8" stroke="rgb(0, 0, 0)" stroke-width="0.74" shape-rendering="auto" /><path d="M348.82 202.8 L341.42 200.95 C342.78 201.99 342.78 203.61 341.42 204.65 Z" stroke="rgb(0, 0, 0)" stroke-width="0" fill-rule="evenodd" stroke-linejoin="miter" stroke-miterlimit="8.55347506801678" fill="rgb(0, 0, 0)" shape-rendering="geometricPrecision" /></g><g id="Arrow"><line x1="230.32" y1="66.61" x2="236.33" y2="66.61" stroke="rgb(0, 0, 0)" stroke-width="0.74" shape-rendering="auto" /><path d="M224.85 66.61 L232.25 68.46 C230.89 67.42 230.89 65.8 232.25 64.76 Z" stroke="rgb(0, 0, 0)" stroke-width="0" fill-rule="evenodd" stroke-linejoin="miter" stroke-miterlimit="8.5534750680169" fill="rgb(0, 0, 0)" shape-rendering="geometricPrecision" /></g></g></g></svg>