<?xml version="1.0"?><svg xmlns="http://www.w3.org/2000/svg" xmlns:xlink="http://www.w3.org/1999/xlink" viewBox="180.61 41.62 300.84 358.73" preserveAspectRatio="xMidYMid" width="100%" height="100%"><clipPath id="105"><rect x="0.375" y="0.375" width="768.85" height="522.45" /></clipPath><g id="drawing"><rect x="180.61" y="41.62" width="100%" height="100%" fill="rgb(255, 255, 255)" /><g id="page" clip-path="url(#105)"><g id="Rectangle"><path d="M321.25 45.75 L321.25 45.75 L324.25 45.75 L324.25 96.65 L210.35 96.65 L210.35 93.65 L321.25 93.65 " stroke="rgb(244, 244, 255)" stroke-width="0" fill-rule="evenodd" stroke-linejoin="bevel" fill="rgb(244, 244, 255)" shape-rendering="geometricPrecision" /><path d="M207.32 42.74 L207.32 42.74 L321.3 42.74 L321.3 93.68 L207.32 93.68 Z" stroke="rgb(242, 242, 255)" stroke-width="0" fill-rule="evenodd" stroke-linejoin="miter" fill="rgb(242, 242, 255)" shape-rendering="geometricPrecision" /><path d="M207.32 42.74 L207.32 42.74 L321.3 42.74 L321.3 93.68 L207.32 93.68 Z" stroke="rgb(209, 211, 255)" stroke-width="0.75" fill-rule="evenodd" stroke-linejoin="miter" fill="none" shape-rendering="geometricPrecision" /></g><g><text xml:space="preserve" text-anchor="middle" text-rendering="geometricPrecision"><tspan x="265.81" y="67.01" font-family="Arial" font-size="12" fill="rgb(0, 0, 0)">How do you pay </tspan><tspan x="265.81" y="80.52" font-family="Arial" font-size="12" fill="rgb(0, 0, 0)">your energy bill?</tspan></text></g><g id="Rectangle"><path d="M329.75 120.05 L329.75 120.05 L332.75 120.05 L332.75 146.75 L210.35 146.75 L210.35 143.75 L329.75 143.75 " stroke="rgb(247, 254, 255)" stroke-width="0" fill-rule="evenodd" stroke-linejoin="bevel" fill="rgb(247, 254, 255)" shape-rendering="geometricPrecision" /><path d="M207.34 117.02 L207.34 117.02 L329.8 117.02 L329.8 143.78 L207.34 143.78 Z" stroke="rgb(246, 254, 255)" stroke-width="0" fill-rule="evenodd" stroke-linejoin="miter" fill="rgb(246, 254, 255)" shape-rendering="geometricPrecision" /><path d="M207.34 117.02 L207.34 117.02 L329.8 117.02 L329.8 143.78 L207.34 143.78 Z" stroke="rgb(222, 250, 254)" stroke-width="0.75" fill-rule="evenodd" stroke-linejoin="miter" fill="none" shape-rendering="geometricPrecision" /></g><g><text xml:space="preserve" text-anchor="middle" text-rendering="geometricPrecision"><tspan x="268.06" y="135.47" font-family="Arial" font-size="12" fill="rgb(0, 0, 0)">Direct Debit</tspan></text></g><g id="Rectangle"><path d="M329.95 182.95 L329.95 182.95 L332.95 182.95 L332.95 233.25 L211.75 233.25 L211.75 230.25 L329.95 230.25 " stroke="rgb(247, 254, 255)" stroke-width="0" fill-rule="evenodd" stroke-linejoin="bevel" fill="rgb(247, 254, 255)" shape-rendering="geometricPrecision" /><path d="M208.79 179.94 L208.79 179.94 L329.99 179.94 L329.99 230.28 L208.79 230.28 Z" stroke="rgb(246, 254, 255)" stroke-width="0" fill-rule="evenodd" stroke-linejoin="miter" fill="rgb(246, 254, 255)" shape-rendering="geometricPrecision" /><path d="M208.79 179.94 L208.79 179.94 L329.99 179.94 L329.99 230.28 L208.79 230.28 Z" stroke="rgb(222, 250, 254)" stroke-width="0.75" fill-rule="evenodd" stroke-linejoin="miter" fill="none" shape-rendering="geometricPrecision" /></g><g><text xml:space="preserve" text-anchor="middle" text-rendering="geometricPrecision"><tspan x="271.08" y="196.44" font-family="Arial" font-size="12" fill="rgb(0, 0, 0)">Standard credit and </tspan><tspan x="271.08" y="209.78" font-family="Arial" font-size="12" fill="rgb(0, 0, 0)">payment card </tspan><tspan x="271.08" y="223.12" font-family="Arial" font-size="12" fill="rgb(0, 0, 0)">customers</tspan></text></g><g id="Rectangle"><path d="M328.45 264.25 L328.45 264.25 L331.45 264.25 L331.45 300.65 L210.55 300.65 L210.55 297.65 L328.45 297.65 " stroke="rgb(247, 254, 255)" stroke-width="0" fill-rule="evenodd" stroke-linejoin="bevel" fill="rgb(247, 254, 255)" shape-rendering="geometricPrecision" /><path d="M207.54 261.25 L207.54 261.25 L328.46 261.25 L328.46 297.63 L207.54 297.63 Z" stroke="rgb(246, 254, 255)" stroke-width="0" fill-rule="evenodd" stroke-linejoin="miter" fill="rgb(246, 254, 255)" shape-rendering="geometricPrecision" /><path d="M207.54 261.25 L207.54 261.25 L328.46 261.25 L328.46 297.63 L207.54 297.63 Z" stroke="rgb(222, 250, 254)" stroke-width="0.75" fill-rule="evenodd" stroke-linejoin="miter" fill="none" shape-rendering="geometricPrecision" /></g><g><text xml:space="preserve" text-anchor="middle" text-rendering="geometricPrecision"><tspan x="269.5" y="278.24" font-family="Arial" font-size="12" fill="rgb(0, 0, 0)">"Smart" </tspan><tspan x="269.5" y="291.35" font-family="Arial" font-size="12" fill="rgb(0, 0, 0)">payment meters</tspan></text></g><g id="Rectangle"><path d="M328.55 345.95 L328.55 345.95 L331.55 345.95 L331.55 382.35 L210.65 382.35 L210.65 379.35 L328.55 379.35 " stroke="rgb(247, 254, 255)" stroke-width="0" fill-rule="evenodd" stroke-linejoin="bevel" fill="rgb(247, 254, 255)" shape-rendering="geometricPrecision" /><path d="M207.62 342.95 L207.62 342.95 L328.54 342.95 L328.54 379.33 L207.62 379.33 Z" stroke="rgb(246, 254, 255)" stroke-width="0" fill-rule="evenodd" stroke-linejoin="miter" fill="rgb(246, 254, 255)" shape-rendering="geometricPrecision" /><path d="M207.62 342.95 L207.62 342.95 L328.54 342.95 L328.54 379.33 L207.62 379.33 Z" stroke="rgb(222, 250, 254)" stroke-width="0.75" fill-rule="evenodd" stroke-linejoin="miter" fill="none" shape-rendering="geometricPrecision" /></g><g><text xml:space="preserve" text-anchor="middle" text-rendering="geometricPrecision"><tspan x="269.58" y="359.94" font-family="Arial" font-size="12" fill="rgb(0, 0, 0)">Traditional </tspan><tspan x="269.58" y="373.05" font-family="Arial" font-size="12" fill="rgb(0, 0, 0)">payment meter</tspan></text></g><g id="Rectangle"><path d="M475.75 113.95 L475.75 113.95 L478.75 113.95 L478.75 155.25 L353.25 155.25 L353.25 152.25 L475.75 152.25 " stroke="rgb(192, 192, 192)" stroke-width="0" fill-rule="evenodd" stroke-linejoin="bevel" fill="rgb(192, 192, 192)" shape-rendering="geometricPrecision" /><path d="M350.27 110.98 L350.27 110.98 L475.79 110.98 L475.79 152.26 L350.27 152.26 Z" stroke="rgb(0, 0, 0)" stroke-width="0.75" fill-rule="evenodd" stroke-dasharray="2.6" stroke-linejoin="miter" fill="none" shape-rendering="geometricPrecision" /></g><g><text xml:space="preserve" text-anchor="middle" text-rendering="geometricPrecision"><tspan x="414.53" y="130.44" font-family="Arial" font-weight="bold" font-size="12" fill="rgb(0, 0, 0)">Automatic</tspan><tspan x="414.53" y="141.09" font-family="Arial" font-size="12" fill="rgb(0, 0, 0)">deductions from bill</tspan></text></g><g id="Rectangle"><path d="M474.65 182.15 L474.65 182.15 L477.65 182.15 L477.65 235.55 L353.55 235.55 L353.55 232.55 L474.65 232.55 " stroke="rgb(192, 192, 192)" stroke-width="0" fill-rule="evenodd" stroke-linejoin="bevel" fill="rgb(192, 192, 192)" shape-rendering="geometricPrecision" /><path d="M350.53 179.11 L350.53 179.11 L474.61 179.11 L474.61 232.53 L350.53 232.53 Z" stroke="rgb(0, 0, 0)" stroke-width="0.75" fill-rule="evenodd" stroke-dasharray="2.6" stroke-linejoin="miter" fill="none" shape-rendering="geometricPrecision" /></g><g><text xml:space="preserve" text-anchor="middle" text-rendering="geometricPrecision"><tspan x="414.07" y="197.32" font-family="Arial" font-weight="bold" font-size="12" fill="rgb(0, 0, 0)">Automatic</tspan><tspan x="414.07" y="207.8" font-family="Arial" font-size="12" fill="rgb(0, 0, 0)">credit added to </tspan><tspan x="414.07" y="218.27" font-family="Arial" font-size="12" fill="rgb(0, 0, 0)">customers account</tspan></text></g><g id="Rectangle"><path d="M473.05 264.05 L473.05 264.05 L476.05 264.05 L476.05 306.05 L350.55 306.05 L350.55 303.05 L473.05 303.05 " stroke="rgb(192, 192, 192)" stroke-width="0" fill-rule="evenodd" stroke-linejoin="bevel" fill="rgb(192, 192, 192)" shape-rendering="geometricPrecision" /><path d="M347.55 261.08 L347.55 261.08 L473.07 261.08 L473.07 303.1 L347.55 303.1 Z" stroke="rgb(0, 0, 0)" stroke-width="0.75" fill-rule="evenodd" stroke-dasharray="2.6" stroke-linejoin="miter" fill="none" shape-rendering="geometricPrecision" /></g><g><text xml:space="preserve" text-anchor="middle" text-rendering="geometricPrecision"><tspan x="411.81" y="280.54" font-family="Arial" font-weight="bold" font-size="12" fill="rgb(0, 0, 0)">Automatic</tspan><tspan x="411.81" y="293.48" font-family="Arial" font-size="12" fill="rgb(0, 0, 0)">top-ups on account</tspan></text></g><g id="Rectangle"><path d="M477.35 329.35 L477.35 329.35 L480.35 329.35 L480.35 399.25 L351.05 399.25 L351.05 396.25 L477.35 396.25 " stroke="rgb(192, 192, 192)" stroke-width="0" fill-rule="evenodd" stroke-linejoin="bevel" fill="rgb(192, 192, 192)" shape-rendering="geometricPrecision" /><path d="M348.05 326.36 L348.05 326.36 L477.33 326.36 L477.33 396.22 L348.05 396.22 Z" stroke="rgb(0, 0, 0)" stroke-width="0.75" fill-rule="evenodd" stroke-dasharray="2.6" stroke-linejoin="miter" fill="none" shape-rendering="geometricPrecision" /></g><g><text xml:space="preserve" text-anchor="middle" text-rendering="geometricPrecision"><tspan x="414.19" y="345.33" font-family="Arial" font-weight="bold" font-size="12" fill="rgb(0, 0, 0)">Voucher</tspan><tspan x="414.19" y="358.85" font-family="Arial" font-size="12" fill="rgb(0, 0, 0)">to be cashed in at </tspan><tspan x="414.19" y="372.37" font-family="Arial" font-size="12" fill="rgb(0, 0, 0)">top-up centre </tspan><tspan x="414.19" y="385.89" font-family="Arial" font-size="12" fill="rgb(0, 0, 0)">(e.g. Post Office)</tspan></text></g><line x1="181.36" y1="66.67" x2="206.69" y2="66.67" stroke="rgb(0, 0, 0)" stroke-width="0.75" shape-rendering="auto" /><line x1="181.36" y1="361.39" x2="181.36" y2="66.3" stroke="rgb(0, 0, 0)" stroke-width="0.75" shape-rendering="auto" /><line x1="207" y1="281.45" x2="181.36" y2="281.45" stroke="rgb(0, 0, 0)" stroke-width="0.75" shape-rendering="auto" /><g id="Arrow"><line x1="341.23" y1="280.14" x2="328.89" y2="280.14" stroke="rgb(0, 0, 0)" stroke-width="0.75" shape-rendering="auto" /><path d="M346.79 280.14 L339.29 278.26 C340.66 279.32 340.66 280.96 339.29 282.02 Z" stroke="rgb(0, 0, 0)" stroke-width="0" fill-rule="evenodd" stroke-linejoin="miter" stroke-miterlimit="8.66906256893602" fill="rgb(0, 0, 0)" shape-rendering="geometricPrecision" /></g><line x1="207" y1="130.57" x2="181.36" y2="130.57" stroke="rgb(0, 0, 0)" stroke-width="0.75" shape-rendering="auto" /><g id="Arrow"><line x1="342.61" y1="130.39" x2="330.26" y2="130.39" stroke="rgb(0, 0, 0)" stroke-width="0.75" shape-rendering="auto" /><path d="M348.17 130.39 L340.67 128.52 C342.04 129.57 342.04 131.21 340.67 132.26 Z" stroke="rgb(0, 0, 0)" stroke-width="0" fill-rule="evenodd" stroke-linejoin="miter" stroke-miterlimit="8.66906256893602" fill="rgb(0, 0, 0)" shape-rendering="geometricPrecision" /></g><line x1="208.55" y1="205.57" x2="181.36" y2="205.57" stroke="rgb(0, 0, 0)" stroke-width="0.75" shape-rendering="auto" /><line x1="207" y1="360.95" x2="181.36" y2="360.95" stroke="rgb(0, 0, 0)" stroke-width="0.75" shape-rendering="auto" /><g id="Arrow"><line x1="341.23" y1="361.64" x2="328.89" y2="361.64" stroke="rgb(0, 0, 0)" stroke-width="0.75" shape-rendering="auto" /><path d="M346.79 361.64 L339.29 359.76 C340.66 360.82 340.66 362.46 339.29 363.52 Z" stroke="rgb(0, 0, 0)" stroke-width="0" fill-rule="evenodd" stroke-linejoin="miter" stroke-miterlimit="8.66906256893602" fill="rgb(0, 0, 0)" shape-rendering="geometricPrecision" /></g><g id="Arrow"><line x1="343.23" y1="202.76" x2="330.89" y2="202.76" stroke="rgb(0, 0, 0)" stroke-width="0.75" shape-rendering="auto" /><path d="M348.79 202.76 L341.29 200.88 C342.66 201.94 342.66 203.58 341.29 204.64 Z" stroke="rgb(0, 0, 0)" stroke-width="0" fill-rule="evenodd" stroke-linejoin="miter" stroke-miterlimit="8.66906256893602" fill="rgb(0, 0, 0)" shape-rendering="geometricPrecision" /></g></g></g></svg>