<?xml version="1.0"?><svg xmlns="http://www.w3.org/2000/svg" xmlns:xlink="http://www.w3.org/1999/xlink" viewBox="99.78 36.72 118.77 477.48" preserveAspectRatio="xMidYMid" width="100%" height="100%"><clipPath id="37"><rect x="0.375" y="0.375" width="768.85" height="522.45" /></clipPath><g id="drawing"><rect x="99.78" y="36.72" width="100%" height="100%" fill="rgb(255, 255, 255)" /><g id="page" clip-path="url(#37)"><g id="Rectangle"><path d="M214.65 485.45 L214.65 485.45 L217.65 485.45 L217.65 513.25 L103.65 513.25 L103.65 510.25 L214.65 510.25 " stroke="rgb(244, 244, 255)" stroke-width="0" fill-rule="evenodd" stroke-linejoin="bevel" fill="rgb(244, 244, 255)" shape-rendering="geometricPrecision" /><path d="M100.69 482.5 L100.69 482.5 L214.65 482.5 L214.65 510.3 L100.69 510.3 Z" stroke="rgb(242, 242, 255)" stroke-width="0" fill-rule="evenodd" stroke-linejoin="miter" fill="rgb(242, 242, 255)" shape-rendering="geometricPrecision" /><path d="M100.69 482.5 L100.69 482.5 L214.65 482.5 L214.65 510.3 L100.69 510.3 Z" stroke="rgb(209, 211, 255)" stroke-width="0.75" fill-rule="evenodd" stroke-linejoin="miter" fill="none" shape-rendering="geometricPrecision" /></g><g id="Rectangle"><path d="M214.65 403.05 L214.65 403.05 L217.65 403.05 L217.65 430.85 L103.65 430.85 L103.65 427.85 L214.65 427.85 " stroke="rgb(244, 244, 255)" stroke-width="0" fill-rule="evenodd" stroke-linejoin="bevel" fill="rgb(244, 244, 255)" shape-rendering="geometricPrecision" /><path d="M100.69 400.09 L100.69 400.09 L214.65 400.09 L214.65 427.87 L100.69 427.87 Z" stroke="rgb(242, 242, 255)" stroke-width="0" fill-rule="evenodd" stroke-linejoin="miter" fill="rgb(242, 242, 255)" shape-rendering="geometricPrecision" /><path d="M100.69 400.09 L100.69 400.09 L214.65 400.09 L214.65 427.87 L100.69 427.87 Z" stroke="rgb(209, 211, 255)" stroke-width="0.75" fill-rule="evenodd" stroke-linejoin="miter" fill="none" shape-rendering="geometricPrecision" /></g><g id="Rectangle"><path d="M214.65 319.55 L214.65 319.55 L217.65 319.55 L217.65 347.35 L103.65 347.35 L103.65 344.35 L214.65 344.35 " stroke="rgb(244, 244, 255)" stroke-width="0" fill-rule="evenodd" stroke-linejoin="bevel" fill="rgb(244, 244, 255)" shape-rendering="geometricPrecision" /><path d="M100.69 316.6 L100.69 316.6 L214.65 316.6 L214.65 344.4 L100.69 344.4 Z" stroke="rgb(242, 242, 255)" stroke-width="0" fill-rule="evenodd" stroke-linejoin="miter" fill="rgb(242, 242, 255)" shape-rendering="geometricPrecision" /><path d="M100.69 316.6 L100.69 316.6 L214.65 316.6 L214.65 344.4 L100.69 344.4 Z" stroke="rgb(209, 211, 255)" stroke-width="0.75" fill-rule="evenodd" stroke-linejoin="miter" fill="none" shape-rendering="geometricPrecision" /></g><g id="Rectangle"><path d="M214.65 220.85 L214.65 220.85 L217.65 220.85 L217.65 248.65 L103.65 248.65 L103.65 245.65 L214.65 245.65 " stroke="rgb(244, 255, 255)" stroke-width="0" fill-rule="evenodd" stroke-linejoin="bevel" fill="rgb(244, 255, 255)" shape-rendering="geometricPrecision" /><path d="M100.69 217.9 L100.69 217.9 L214.65 217.9 L214.65 245.7 L100.69 245.7 Z" stroke="rgb(242, 255, 255)" stroke-width="0" fill-rule="evenodd" stroke-linejoin="miter" fill="rgb(242, 255, 255)" shape-rendering="geometricPrecision" /><path d="M100.69 217.9 L100.69 217.9 L214.65 217.9 L214.65 245.7 L100.69 245.7 Z" stroke="rgb(209, 255, 255)" stroke-width="0.75" fill-rule="evenodd" stroke-linejoin="miter" fill="none" shape-rendering="geometricPrecision" /></g><g id="Rectangle"><path d="M214.65 138.45 L214.65 138.45 L217.65 138.45 L217.65 166.25 L103.65 166.25 L103.65 163.25 L214.65 163.25 " stroke="rgb(244, 255, 255)" stroke-width="0" fill-rule="evenodd" stroke-linejoin="bevel" fill="rgb(244, 255, 255)" shape-rendering="geometricPrecision" /><path d="M100.69 135.49 L100.69 135.49 L214.65 135.49 L214.65 163.27 L100.69 163.27 Z" stroke="rgb(242, 255, 255)" stroke-width="0" fill-rule="evenodd" stroke-linejoin="miter" fill="rgb(242, 255, 255)" shape-rendering="geometricPrecision" /><path d="M100.69 135.49 L100.69 135.49 L214.65 135.49 L214.65 163.27 L100.69 163.27 Z" stroke="rgb(209, 255, 255)" stroke-width="0.75" fill-rule="evenodd" stroke-linejoin="miter" fill="none" shape-rendering="geometricPrecision" /></g><g id="Rectangle"><path d="M214.65 54.95 L214.65 54.95 L217.65 54.95 L217.65 82.75 L103.65 82.75 L103.65 79.75 L214.65 79.75 " stroke="rgb(244, 255, 255)" stroke-width="0" fill-rule="evenodd" stroke-linejoin="bevel" fill="rgb(244, 255, 255)" shape-rendering="geometricPrecision" /><path d="M100.69 52 L100.69 52 L214.65 52 L214.65 79.8 L100.69 79.8 Z" stroke="rgb(242, 255, 255)" stroke-width="0" fill-rule="evenodd" stroke-linejoin="miter" fill="rgb(242, 255, 255)" shape-rendering="geometricPrecision" /><path d="M100.69 52 L100.69 52 L214.65 52 L214.65 79.8 L100.69 79.8 Z" stroke="rgb(209, 255, 255)" stroke-width="0.75" fill-rule="evenodd" stroke-linejoin="miter" fill="none" shape-rendering="geometricPrecision" /></g><g><text xml:space="preserve" text-anchor="middle" text-rendering="geometricPrecision"><tspan x="159.17" y="71.28" font-family="Arial" font-size="12" fill="rgb(0, 0, 0)">October: </tspan><tspan font-family="Arial" font-weight="bold" font-size="12" fill="rgb(0, 0, 0)">£</tspan><tspan font-family="Arial" font-weight="bold" font-size="12" fill="rgb(0, 0, 0)">66</tspan></text></g><g id="Arrow"><line x1="157.21" y1="120.44" x2="157.21" y2="91.88" stroke="rgb(0, 0, 0)" stroke-width="0.75" shape-rendering="auto" /><path d="M157.21 126 L159.08 118.5 C158.03 119.87 156.39 119.88 155.33 118.5 Z" stroke="rgb(0, 0, 0)" stroke-width="0" fill-rule="evenodd" stroke-linejoin="miter" stroke-miterlimit="8.66906256893615" fill="rgb(0, 0, 0)" shape-rendering="geometricPrecision" /></g><g><text xml:space="preserve" text-anchor="middle" text-rendering="geometricPrecision"><tspan x="159.17" y="154.75" font-family="Arial" font-size="12" fill="rgb(0, 0, 0)">November: </tspan><tspan font-family="Arial" font-weight="bold" font-size="12" fill="rgb(0, 0, 0)">£</tspan><tspan font-family="Arial" font-weight="bold" font-size="12" fill="rgb(0, 0, 0)">66</tspan></text></g><g id="Arrow"><line x1="157.21" y1="202.86" x2="157.21" y2="174.3" stroke="rgb(0, 0, 0)" stroke-width="0.75" shape-rendering="auto" /><path d="M157.21 208.42 L159.08 200.92 C158.03 202.29 156.39 202.3 155.33 200.92 Z" stroke="rgb(0, 0, 0)" stroke-width="0" fill-rule="evenodd" stroke-linejoin="miter" stroke-miterlimit="8.66906256893615" fill="rgb(0, 0, 0)" shape-rendering="geometricPrecision" /></g><g><text xml:space="preserve" text-anchor="middle" text-rendering="geometricPrecision"><tspan x="159.17" y="237.18" font-family="Arial" font-size="12" fill="rgb(0, 0, 0)">December: </tspan><tspan font-family="Arial" font-weight="bold" font-size="12" fill="rgb(0, 0, 0)">£</tspan><tspan font-family="Arial" font-weight="bold" font-size="12" fill="rgb(0, 0, 0)">67</tspan></text></g><g><text xml:space="preserve" text-anchor="middle" text-rendering="geometricPrecision"><tspan x="159.17" y="335.88" font-family="Arial" font-size="12" fill="rgb(0, 0, 0)">January: </tspan><tspan font-family="Arial" font-weight="bold" font-size="12" fill="rgb(0, 0, 0)">£</tspan><tspan font-family="Arial" font-weight="bold" font-size="12" fill="rgb(0, 0, 0)">67</tspan></text></g><g id="Arrow"><line x1="157.21" y1="385.04" x2="157.21" y2="356.47" stroke="rgb(0, 0, 0)" stroke-width="0.75" shape-rendering="auto" /><path d="M157.21 390.6 L159.08 383.1 C158.03 384.47 156.39 384.48 155.33 383.1 Z" stroke="rgb(0, 0, 0)" stroke-width="0" fill-rule="evenodd" stroke-linejoin="miter" stroke-miterlimit="8.66906256893615" fill="rgb(0, 0, 0)" shape-rendering="geometricPrecision" /></g><g><text xml:space="preserve" text-anchor="middle" text-rendering="geometricPrecision"><tspan x="159.17" y="419.35" font-family="Arial" font-size="12" fill="rgb(0, 0, 0)">November: </tspan><tspan font-family="Arial" font-weight="bold" font-size="12" fill="rgb(0, 0, 0)">£</tspan><tspan font-family="Arial" font-weight="bold" font-size="12" fill="rgb(0, 0, 0)">67</tspan></text></g><g id="Arrow"><line x1="157.21" y1="467.46" x2="157.21" y2="438.9" stroke="rgb(0, 0, 0)" stroke-width="0.75" shape-rendering="auto" /><path d="M157.21 473.02 L159.08 465.52 C158.03 466.89 156.39 466.9 155.33 465.52 Z" stroke="rgb(0, 0, 0)" stroke-width="0" fill-rule="evenodd" stroke-linejoin="miter" stroke-miterlimit="8.66906256893615" fill="rgb(0, 0, 0)" shape-rendering="geometricPrecision" /></g><g><text xml:space="preserve" text-anchor="middle" text-rendering="geometricPrecision"><tspan x="159.17" y="501.78" font-family="Arial" font-size="12" fill="rgb(0, 0, 0)">December: </tspan><tspan font-family="Arial" font-weight="bold" font-size="12" fill="rgb(0, 0, 0)">£</tspan><tspan font-family="Arial" font-weight="bold" font-size="12" fill="rgb(0, 0, 0)">67</tspan></text></g><g id="Arrow"><line x1="157.21" y1="284.76" x2="157.21" y2="256.2" stroke="rgb(0, 0, 0)" stroke-width="0.75" shape-rendering="auto" /><path d="M157.21 290.32 L159.08 282.82 C158.03 284.19 156.39 284.2 155.33 282.82 Z" stroke="rgb(0, 0, 0)" stroke-width="0" fill-rule="evenodd" stroke-linejoin="miter" stroke-miterlimit="8.66906256893615" fill="rgb(0, 0, 0)" shape-rendering="geometricPrecision" /></g><g><text xml:space="preserve" text-anchor="start" text-rendering="geometricPrecision"><tspan x="146.71" y="45.67" font-family="Arial" font-size="10" fill="rgb(0, 0, 0)">2022</tspan></text></g><g><text xml:space="preserve" text-anchor="start" text-rendering="geometricPrecision"><tspan x="146.71" y="312.37" font-family="Arial" font-size="10" fill="rgb(0, 0, 0)">2022</tspan></text></g></g></g></svg>