<?xml version="1.0"?><svg xmlns="http://www.w3.org/2000/svg" xmlns:xlink="http://www.w3.org/1999/xlink" viewBox="240.14 162.34 316.95 224.77" preserveAspectRatio="xMidYMid" width="100%" height="100%"><clipPath id="229"><rect x="0.37" y="0.37" width="768.86" height="522.46" /></clipPath><g id="drawing"><rect x="240.14" y="162.34" width="100%" height="100%" fill="rgb(250, 250, 250)" /><g id="page" clip-path="url(#229)"><line x1="264.51" y1="313.11" x2="242.16" y2="313.11" stroke="rgb(0, 0, 0)" stroke-width="0.74" shape-rendering="auto" /><g id="Rectangle"><path d="M532.65 303.35 L532.65 303.35 L535.65 303.35 L535.65 330.15 L413.15 330.15 L413.15 327.15 L532.65 327.15 " stroke="rgb(192, 192, 192)" stroke-width="0" fill-rule="evenodd" stroke-linejoin="bevel" fill="rgb(192, 192, 192)" shape-rendering="geometricPrecision" /><path d="M410.17 300.38 L410.17 300.38 L532.69 300.38 L532.69 327.16 L410.17 327.16 Z" stroke="rgb(0, 0, 0)" stroke-width="0.74" fill-rule="evenodd" stroke-linejoin="miter" fill="none" shape-rendering="geometricPrecision" /></g><g><text xml:space="preserve" text-anchor="middle" text-rendering="geometricPrecision"><tspan x="470.92" y="318.85" font-family="Arial" font-size="12" fill="rgb(0, 0, 0)">January </tspan><tspan font-family="Arial" font-weight="bold" font-size="12" fill="rgb(0, 0, 0)">£</tspan><tspan font-family="Arial" font-weight="bold" font-size="12" fill="rgb(0, 0, 0)">67</tspan></text></g><line x1="387.66" y1="314.23" x2="410.01" y2="314.23" stroke="rgb(0, 0, 0)" stroke-width="0.74" shape-rendering="auto" /><g id="Rectangle"><path d="M387.15 303.35 L387.15 303.35 L390.15 303.35 L390.15 330.15 L267.65 330.15 L267.65 327.15 L387.15 327.15 " stroke="rgb(192, 192, 192)" stroke-width="0" fill-rule="evenodd" stroke-linejoin="bevel" fill="rgb(192, 192, 192)" shape-rendering="geometricPrecision" /><path d="M264.67 300.38 L264.67 300.38 L387.19 300.38 L387.19 327.16 L264.67 327.16 Z" stroke="rgb(0, 0, 0)" stroke-width="0.74" fill-rule="evenodd" stroke-linejoin="miter" fill="none" shape-rendering="geometricPrecision" /></g><g><text xml:space="preserve" text-anchor="middle" text-rendering="geometricPrecision"><tspan x="325.42" y="318.85" font-family="Arial" font-size="12" fill="rgb(0, 0, 0)">December </tspan><tspan font-family="Arial" font-weight="bold" font-size="12" fill="rgb(0, 0, 0)">£</tspan><tspan font-family="Arial" font-weight="bold" font-size="12" fill="rgb(0, 0, 0)">67</tspan></text></g><line x1="532.68" y1="314.11" x2="555.24" y2="314.11" stroke="rgb(0, 0, 0)" stroke-width="0.74" shape-rendering="auto" /><line x1="555.24" y1="370.65" x2="555.24" y2="313.73" stroke="rgb(0, 0, 0)" stroke-width="0.74" shape-rendering="auto" /><g id="Arrow"><line x1="555.24" y1="343.98" x2="555.24" y2="337.92" stroke="rgb(0, 0, 0)" stroke-width="0.74" shape-rendering="auto" /><path d="M555.24 349.46 L557.09 342.06 C556.05 343.42 554.43 343.42 553.39 342.06 Z" stroke="rgb(0, 0, 0)" stroke-width="0" fill-rule="evenodd" stroke-linejoin="miter" stroke-miterlimit="8.55347506801665" fill="rgb(0, 0, 0)" shape-rendering="geometricPrecision" /></g><g><text xml:space="preserve" text-anchor="middle" text-rendering="geometricPrecision"><tspan x="474.38" y="296.75" font-family="Arial" font-style="italic" font-size="10" fill="rgb(0, 0, 0)">2023</tspan></text></g><g id="Rectangle"><path d="M454.45 166.15 L454.45 166.15 L457.45 166.15 L457.45 217.15 L343.45 217.15 L343.45 214.15 L454.45 214.15 " stroke="rgb(244, 244, 255)" stroke-width="0" fill-rule="evenodd" stroke-linejoin="bevel" fill="rgb(244, 244, 255)" shape-rendering="geometricPrecision" /><path d="M340.45 163.2 L340.45 163.2 L454.47 163.2 L454.47 214.16 L340.45 214.16 Z" stroke="rgb(242, 242, 255)" stroke-width="0" fill-rule="evenodd" stroke-linejoin="miter" fill="rgb(242, 242, 255)" shape-rendering="geometricPrecision" /><path d="M340.45 163.2 L340.45 163.2 L454.47 163.2 L454.47 214.16 L340.45 214.16 Z" stroke="rgb(209, 211, 255)" stroke-width="0.74" fill-rule="evenodd" stroke-linejoin="miter" fill="none" shape-rendering="geometricPrecision" /></g><g><text xml:space="preserve" text-anchor="middle" text-rendering="geometricPrecision"><tspan x="397.46" y="187.48" font-family="Arial" font-size="12" fill="rgb(0, 0, 0)">How much will you </tspan><tspan x="397.46" y="200.82" font-family="Arial" font-size="12" fill="rgb(0, 0, 0)">be paid this winter</tspan></text></g><line x1="454.37" y1="187.61" x2="554.56" y2="187.61" stroke="rgb(0, 0, 0)" stroke-width="0.74" shape-rendering="auto" /><line x1="554.99" y1="257.22" x2="554.99" y2="187.4" stroke="rgb(0, 0, 0)" stroke-width="0.74" shape-rendering="auto" /><line x1="532.64" y1="256.85" x2="554.99" y2="256.85" stroke="rgb(0, 0, 0)" stroke-width="0.74" shape-rendering="auto" /><g id="Arrow"><line x1="554.99" y1="222.6" x2="554.99" y2="216.55" stroke="rgb(0, 0, 0)" stroke-width="0.74" shape-rendering="auto" /><path d="M554.99 228.08 L556.84 220.68 C555.8 222.04 554.18 222.04 553.14 220.68 Z" stroke="rgb(0, 0, 0)" stroke-width="0" fill-rule="evenodd" stroke-linejoin="miter" stroke-miterlimit="8.55347506801668" fill="rgb(0, 0, 0)" shape-rendering="geometricPrecision" /></g><g id="Rectangle"><path d="M532.65 244.85 L532.65 244.85 L535.65 244.85 L535.65 271.65 L413.15 271.65 L413.15 268.65 L532.65 268.65 " stroke="rgb(192, 192, 192)" stroke-width="0" fill-rule="evenodd" stroke-linejoin="bevel" fill="rgb(192, 192, 192)" shape-rendering="geometricPrecision" /><path d="M410.17 241.88 L410.17 241.88 L532.69 241.88 L532.69 268.66 L410.17 268.66 Z" stroke="rgb(0, 0, 0)" stroke-width="0.74" fill-rule="evenodd" stroke-linejoin="miter" fill="none" shape-rendering="geometricPrecision" /></g><g><text xml:space="preserve" text-anchor="middle" text-rendering="geometricPrecision"><tspan x="470.92" y="260.35" font-family="Arial" font-size="12" fill="rgb(0, 0, 0)">October </tspan><tspan font-family="Arial" font-weight="bold" font-size="12" fill="rgb(0, 0, 0)">£</tspan><tspan font-family="Arial" font-weight="bold" font-size="12" fill="rgb(0, 0, 0)">66</tspan></text></g><line x1="387.66" y1="255.73" x2="410.01" y2="255.73" stroke="rgb(0, 0, 0)" stroke-width="0.74" shape-rendering="auto" /><g id="Rectangle"><path d="M387.15 244.85 L387.15 244.85 L390.15 244.85 L390.15 271.65 L267.65 271.65 L267.65 268.65 L387.15 268.65 " stroke="rgb(192, 192, 192)" stroke-width="0" fill-rule="evenodd" stroke-linejoin="bevel" fill="rgb(192, 192, 192)" shape-rendering="geometricPrecision" /><path d="M264.67 241.88 L264.67 241.88 L387.19 241.88 L387.19 268.66 L264.67 268.66 Z" stroke="rgb(0, 0, 0)" stroke-width="0.74" fill-rule="evenodd" stroke-linejoin="miter" fill="none" shape-rendering="geometricPrecision" /></g><g><text xml:space="preserve" text-anchor="middle" text-rendering="geometricPrecision"><tspan x="325.42" y="260.35" font-family="Arial" font-size="12" fill="rgb(0, 0, 0)">November </tspan><tspan font-family="Arial" font-weight="bold" font-size="12" fill="rgb(0, 0, 0)">£</tspan><tspan font-family="Arial" font-weight="bold" font-size="12" fill="rgb(0, 0, 0)">66</tspan></text></g><line x1="264.98" y1="255.98" x2="242.43" y2="255.98" stroke="rgb(0, 0, 0)" stroke-width="0.74" shape-rendering="auto" /><line x1="242.43" y1="312.53" x2="242.43" y2="255.61" stroke="rgb(0, 0, 0)" stroke-width="0.74" shape-rendering="auto" /><g id="Arrow"><line x1="242.49" y1="284.36" x2="242.49" y2="278.3" stroke="rgb(0, 0, 0)" stroke-width="0.74" shape-rendering="auto" /><path d="M242.49 289.83 L244.34 282.43 C243.3 283.79 241.68 283.79 240.64 282.43 Z" stroke="rgb(0, 0, 0)" stroke-width="0" fill-rule="evenodd" stroke-linejoin="miter" stroke-miterlimit="8.5534750680169" fill="rgb(0, 0, 0)" shape-rendering="geometricPrecision" /></g><line x1="533.16" y1="370.36" x2="555.51" y2="370.36" stroke="rgb(0, 0, 0)" stroke-width="0.74" shape-rendering="auto" /><g id="Rectangle"><path d="M532.65 359.45 L532.65 359.45 L535.65 359.45 L535.65 386.25 L413.15 386.25 L413.15 383.25 L532.65 383.25 " stroke="rgb(192, 192, 192)" stroke-width="0" fill-rule="evenodd" stroke-linejoin="bevel" fill="rgb(192, 192, 192)" shape-rendering="geometricPrecision" /><path d="M410.17 356.51 L410.17 356.51 L532.69 356.51 L532.69 383.29 L410.17 383.29 Z" stroke="rgb(0, 0, 0)" stroke-width="0.74" fill-rule="evenodd" stroke-linejoin="miter" fill="none" shape-rendering="geometricPrecision" /></g><g><text xml:space="preserve" text-anchor="middle" text-rendering="geometricPrecision"><tspan x="470.92" y="374.98" font-family="Arial" font-size="12" fill="rgb(0, 0, 0)">February </tspan><tspan font-family="Arial" font-weight="bold" font-size="12" fill="rgb(0, 0, 0)">£</tspan><tspan font-family="Arial" font-weight="bold" font-size="12" fill="rgb(0, 0, 0)">67</tspan></text></g><line x1="387.66" y1="370.36" x2="410.01" y2="370.36" stroke="rgb(0, 0, 0)" stroke-width="0.74" shape-rendering="auto" /><g id="Rectangle"><path d="M387.15 359.45 L387.15 359.45 L390.15 359.45 L390.15 386.25 L267.65 386.25 L267.65 383.25 L387.15 383.25 " stroke="rgb(192, 192, 192)" stroke-width="0" fill-rule="evenodd" stroke-linejoin="bevel" fill="rgb(192, 192, 192)" shape-rendering="geometricPrecision" /><path d="M264.67 356.51 L264.67 356.51 L387.19 356.51 L387.19 383.29 L264.67 383.29 Z" stroke="rgb(0, 0, 0)" stroke-width="0.74" fill-rule="evenodd" stroke-linejoin="miter" fill="none" shape-rendering="geometricPrecision" /></g><g><text xml:space="preserve" text-anchor="middle" text-rendering="geometricPrecision"><tspan x="325.42" y="374.98" font-family="Arial" font-size="12" fill="rgb(0, 0, 0)">March </tspan><tspan font-family="Arial" font-weight="bold" font-size="12" fill="rgb(0, 0, 0)">£</tspan><tspan font-family="Arial" font-weight="bold" font-size="12" fill="rgb(0, 0, 0)">67</tspan></text></g></g></g></svg>