<?xml version="1.0"?><svg xmlns="http://www.w3.org/2000/svg" xmlns:xlink="http://www.w3.org/1999/xlink" viewBox="128.27 278.69 150.17 99.31" preserveAspectRatio="xMidYMid" width="100%" height="100%"><clipPath id="305"><rect x="0.565" y="0.565" width="768.47" height="522.07" /></clipPath><g id="drawing"><rect x="128.27" y="278.69" width="100%" height="100%" fill="rgb(255, 255, 255)" /><g id="page" clip-path="url(#305)"><g><text xml:space="preserve" text-anchor="start" text-rendering="geometricPrecision"><tspan x="171.58" y="334.63" font-family="Arial" font-size="12" fill="rgb(200, 29, 177)">N</tspan></text></g><g id="Solid"><path d="M151.64 344.57 L151.64 344.57 L151.36 344.08 L151.08 343.59 L170.92 332.14 L171.2 332.63 L171.48 333.12 Z" stroke="rgb(0, 0, 0)" stroke-width="0" fill-rule="evenodd" stroke-linejoin="miter" fill="rgb(0, 0, 0)" shape-rendering="geometricPrecision" /></g><g id="Solid"><path d="M180.32 333.11 L180.32 333.11 L180.6 332.62 L180.88 332.13 L200.46 343.43 L200.46 344.08 L199.9 344.41 Z" stroke="rgb(0, 0, 0)" stroke-width="0" fill-rule="evenodd" stroke-linejoin="miter" fill="rgb(0, 0, 0)" shape-rendering="geometricPrecision" /></g><g id="Solid"><path d="M201.03 344.41 L201.03 344.41 L200.46 344.08 L200.46 343.43 L224.45 329.58 L225.01 329.91 L225.01 330.56 Z" stroke="rgb(0, 0, 0)" stroke-width="0" fill-rule="evenodd" stroke-linejoin="miter" fill="rgb(0, 0, 0)" shape-rendering="geometricPrecision" /></g><g id="Solid"><path d="M225.01 330.56 L225.01 330.56 L225.01 329.91 L225.58 329.58 L248.81 343 L249.55 344.08 L250.29 345.16 Z" stroke="rgb(0, 0, 0)" stroke-width="0" fill-rule="evenodd" stroke-linejoin="miter" fill="rgb(0, 0, 0)" shape-rendering="geometricPrecision" /></g><g><text xml:space="preserve" text-anchor="start" text-rendering="geometricPrecision"><tspan x="269.78" y="334.63" font-family="Arial" font-weight="bold" font-size="12" fill="rgb(0, 0, 0)">H</tspan></text></g><g id="Bold"><path d="M250.29 345.16 L250.29 345.16 L249.55 344.08 L248.81 343 L268.75 331.49 L269.4 332.62 L270.05 333.75 Z" stroke="rgb(200, 29, 177)" stroke-width="0" fill-rule="evenodd" stroke-linejoin="miter" fill="rgb(200, 29, 177)" shape-rendering="geometricPrecision" /></g><g id="Solid"><path d="M176.48 324.6 L176.48 324.6 L175.91 324.6 L175.35 324.6 L175.34 301.56 L175.91 301.56 L176.48 301.56 Z" stroke="rgb(0, 0, 0)" stroke-width="0" fill-rule="evenodd" stroke-linejoin="miter" fill="rgb(0, 0, 0)" shape-rendering="geometricPrecision" /></g><g><text xml:space="preserve" text-anchor="start" text-rendering="geometricPrecision"><tspan x="196.13" y="377.15" font-family="Arial" font-size="12" fill="rgb(0, 0, 0)">R</tspan><tspan font-family="Arial" dy="-4.89" font-size="9" fill="rgb(0, 0, 0)">2</tspan></text></g><g id="Solid"><path d="M199.9 344.41 L199.9 344.41 L200.46 344.08 L201.03 344.41 L201.03 367.1 L200.46 367.1 L199.9 367.1 Z" stroke="rgb(0, 0, 0)" stroke-width="0" fill-rule="evenodd" stroke-linejoin="miter" fill="rgb(0, 0, 0)" shape-rendering="geometricPrecision" /></g><g><text xml:space="preserve" text-anchor="start" text-rendering="geometricPrecision"><tspan x="220.68" y="306.28" font-family="Arial" font-size="12" fill="rgb(0, 0, 0)">R</tspan><tspan font-family="Arial" dy="-4.89" font-size="9" fill="rgb(0, 0, 0)">1</tspan></text></g><g id="Solid"><path d="M225.58 329.58 L225.58 329.58 L225.01 329.91 L224.45 329.58 L224.45 307.8 L225.01 307.8 L225.58 307.8 Z" stroke="rgb(0, 0, 0)" stroke-width="0" fill-rule="evenodd" stroke-linejoin="miter" fill="rgb(0, 0, 0)" shape-rendering="geometricPrecision" /></g><path d="M171.93 298.97 C161.12 290.41 145.39 292.24 136.83 303.05 C128.27 313.86 130.1 329.59 140.91 338.15 C142.97 339.78 145.3 341.09 147.76 342 " stroke="rgb(0, 0, 0)" stroke-width="1.13" fill-rule="evenodd" stroke-dasharray="2.61" stroke-linejoin="bevel" fill="none" shape-rendering="geometricPrecision" /></g></g></svg>