<?xml version="1.0"?><svg xmlns="http://www.w3.org/2000/svg" xmlns:xlink="http://www.w3.org/1999/xlink" viewBox="16.38 266.43 735.4 161.67" preserveAspectRatio="xMidYMid" width="100%" height="100%"><clipPath id="380"><rect x="0.565" y="0.565" width="768.47" height="522.07" /></clipPath><g id="drawing"><rect x="16.38" y="266.43" width="100%" height="100%" fill="rgb(255, 255, 255)" /><g id="page" clip-path="url(#380)"><g><text xml:space="preserve" text-anchor="start" text-rendering="geometricPrecision"><tspan x="58.33" y="349.61" font-family="Arial" font-size="12" fill="rgb(0, 0, 0)">N</tspan></text></g><g id="Solid"><path d="M38.39 359.55 L38.39 359.55 L38.11 359.06 L37.83 358.57 L57.72 347.09 L58 347.58 L58.28 348.07 Z" stroke="rgb(0, 0, 0)" stroke-width="0" fill-rule="evenodd" stroke-linejoin="miter" fill="rgb(0, 0, 0)" shape-rendering="geometricPrecision" /></g><g id="Solid"><path d="M67.12 348.11 L67.12 348.11 L67.4 347.63 L67.68 347.14 L87.21 358.41 L87.21 359.06 L87.21 359.71 Z" stroke="rgb(0, 0, 0)" stroke-width="0" fill-rule="evenodd" stroke-linejoin="miter" fill="rgb(0, 0, 0)" shape-rendering="geometricPrecision" /></g><g id="Solid"><path d="M87.21 359.71 L87.21 359.71 L87.21 359.06 L87.21 358.41 L111.76 344.24 L111.76 344.89 L111.76 345.54 Z" stroke="rgb(0, 0, 0)" stroke-width="0" fill-rule="evenodd" stroke-linejoin="miter" fill="rgb(0, 0, 0)" shape-rendering="geometricPrecision" /></g><g id="Solid"><path d="M111.76 345.54 L111.76 345.54 L111.76 344.89 L111.76 344.24 L136.58 358.57 L136.3 359.06 L136.02 359.55 Z" stroke="rgb(0, 0, 0)" stroke-width="0" fill-rule="evenodd" stroke-linejoin="miter" fill="rgb(0, 0, 0)" shape-rendering="geometricPrecision" /></g><g id="Solid"><path d="M63.23 339.6 L63.23 339.6 L62.66 339.6 L62.1 339.6 L62.1 316.54 L62.66 316.54 L63.22 316.54 Z" stroke="rgb(0, 0, 0)" stroke-width="0" fill-rule="evenodd" stroke-linejoin="miter" fill="rgb(0, 0, 0)" shape-rendering="geometricPrecision" /></g><g id="Arrow"><line x1="490.76" y1="338.25" x2="347.68" y2="338.25" stroke="rgb(0, 0, 0)" stroke-width="1.13" shape-rendering="auto" /><path d="M499.65 338.25 L488.35 335.42 C490.2 337.01 490.2 339.49 488.35 341.08 Z" stroke="rgb(0, 0, 0)" stroke-width="0" fill-rule="evenodd" stroke-linejoin="miter" stroke-miterlimit="13.0613876038638" fill="rgb(0, 0, 0)" shape-rendering="geometricPrecision" /></g><g id="Solid"><path d="M261.81 311.77 L261.81 311.77 L262.38 312.1 L262.95 312.43 L262.95 340.11 L262.38 340.44 L261.82 340.11 Z" stroke="rgb(0, 0, 0)" stroke-width="0" fill-rule="evenodd" stroke-linejoin="miter" fill="rgb(0, 0, 0)" shape-rendering="geometricPrecision" /><line x1="267.48" y1="315.04" x2="267.48" y2="337.5" stroke="rgb(0, 0, 0)" stroke-width="1.13" shape-rendering="auto" /></g><g id="Solid"><path d="M262.38 341.09 L262.38 341.09 L262.38 340.44 L262.95 340.11 L286.93 353.97 L286.93 354.62 L286.93 355.27 Z" stroke="rgb(0, 0, 0)" stroke-width="0" fill-rule="evenodd" stroke-linejoin="miter" fill="rgb(0, 0, 0)" shape-rendering="geometricPrecision" /></g><g id="Solid"><path d="M286.93 355.27 L286.93 355.27 L286.93 354.62 L286.93 353.97 L310.91 340.11 L311.47 340.44 L312.03 340.77 Z" stroke="rgb(0, 0, 0)" stroke-width="0" fill-rule="evenodd" stroke-linejoin="miter" fill="rgb(0, 0, 0)" shape-rendering="geometricPrecision" /><line x1="286.93" y1="348.73" x2="306.37" y2="337.5" stroke="rgb(0, 0, 0)" stroke-width="1.13" shape-rendering="auto" /></g><g id="Solid"><path d="M312.03 340.77 L312.03 340.77 L311.47 340.44 L310.91 340.11 L310.91 312.43 L311.47 312.1 L312.03 311.77 Z" stroke="rgb(0, 0, 0)" stroke-width="0" fill-rule="evenodd" stroke-linejoin="miter" fill="rgb(0, 0, 0)" shape-rendering="geometricPrecision" /></g><g id="Solid"><path d="M312.03 311.77 L312.03 311.77 L311.47 312.1 L310.91 312.43 L286.93 298.57 L286.93 297.92 L286.93 297.27 Z" stroke="rgb(0, 0, 0)" stroke-width="0" fill-rule="evenodd" stroke-linejoin="miter" fill="rgb(0, 0, 0)" shape-rendering="geometricPrecision" /><line x1="306.37" y1="315.04" x2="286.93" y2="303.81" stroke="rgb(0, 0, 0)" stroke-width="1.13" shape-rendering="auto" /></g><g id="Solid"><path d="M286.93 297.27 L286.93 297.27 L286.93 297.92 L286.93 298.57 L262.95 312.43 L262.38 312.1 L261.81 311.77 Z" stroke="rgb(0, 0, 0)" stroke-width="0" fill-rule="evenodd" stroke-linejoin="miter" fill="rgb(0, 0, 0)" shape-rendering="geometricPrecision" /></g><g id="Solid"><path d="M261.82 340.11 L261.82 340.11 L262.38 340.44 L262.38 341.09 L242.38 352.64 L242.1 352.15 L241.82 351.67 Z" stroke="rgb(0, 0, 0)" stroke-width="0" fill-rule="evenodd" stroke-linejoin="miter" fill="rgb(0, 0, 0)" shape-rendering="geometricPrecision" /></g><g><text xml:space="preserve" text-anchor="start" text-rendering="geometricPrecision"><tspan x="233.83" y="359.34" font-family="Arial" font-size="12" fill="rgb(0, 0, 0)">B</tspan></text></g><g id="Solid"><path d="M233.78 351.63 L233.78 351.63 L233.5 352.12 L233.22 352.61 L218.32 344 L218.6 343.51 L218.88 343.02 Z" stroke="rgb(0, 0, 0)" stroke-width="0" fill-rule="evenodd" stroke-linejoin="miter" fill="rgb(0, 0, 0)" shape-rendering="geometricPrecision" /></g><g><text xml:space="preserve" text-anchor="end" text-rendering="geometricPrecision"><tspan x="217.95" y="345.17" font-family="Arial" font-size="12" fill="rgb(0, 0, 0)">HO</tspan></text></g><g><text xml:space="preserve" text-anchor="start" text-rendering="geometricPrecision"><tspan x="233.15" y="387.69" font-family="Arial" font-size="12" fill="rgb(0, 0, 0)">OH</tspan></text></g><g id="Solid"><path d="M237.27 360.9 L237.27 360.9 L237.83 360.9 L238.4 360.9 L238.4 377.5 L237.83 377.5 L237.27 377.5 Z" stroke="rgb(0, 0, 0)" stroke-width="0" fill-rule="evenodd" stroke-linejoin="miter" fill="rgb(0, 0, 0)" shape-rendering="geometricPrecision" /></g><g><text xml:space="preserve" text-anchor="middle" text-rendering="geometricPrecision"><tspan x="421.18" y="310.5" font-family="Arial" font-size="12" fill="rgb(0, 0, 0)">Pd(OAc)</tspan><tspan font-family="Arial" dy="2.72" font-size="9" fill="rgb(0, 0, 0)">2</tspan><tspan font-family="Arial" dy="-2.72" font-size="12" fill="rgb(0, 0, 0)"> (10 mol%)</tspan><tspan x="421.18" y="328.85" font-family="Arial" font-style="italic" font-size="12" fill="rgb(0, 0, 0)">N</tspan><tspan font-family="Arial" font-size="12" fill="rgb(0, 0, 0)">-acetyl </tspan><tspan font-family="Arial" font-style="italic" font-size="12" fill="rgb(0, 0, 0)">tert</tspan><tspan font-family="Arial" font-size="12" fill="rgb(0, 0, 0)">-leucine (25 mol%)</tspan></text></g><g><text xml:space="preserve" text-anchor="middle" text-rendering="geometricPrecision"><tspan x="421.18" y="358.5" font-family="Arial" font-size="12" fill="rgb(0, 0, 0)">Ag</tspan><tspan font-family="Arial" dy="2.72" font-size="9" fill="rgb(0, 0, 0)">2</tspan><tspan font-family="Arial" dy="-2.72" font-size="12" fill="rgb(0, 0, 0)">CO</tspan><tspan font-family="Arial" dy="2.72" font-size="9" fill="rgb(0, 0, 0)">3</tspan><tspan font-family="Arial" dy="-2.72" font-size="12" fill="rgb(0, 0, 0)"> (2.5 eq.)</tspan><tspan x="421.18" y="376.85" font-family="Arial" font-size="12" fill="rgb(0, 0, 0)">Benzoquinone (2 eq.)</tspan><tspan x="421.18" y="395.2" font-family="Arial" font-size="12" fill="rgb(0, 0, 0)">Air, NMP, 50 °</tspan><tspan font-family="Arial" font-size="12" fill="rgb(0, 0, 0)">C</tspan></text></g><g><text xml:space="preserve" text-anchor="start" text-rendering="geometricPrecision"><tspan x="563.83" y="355.31" font-family="Arial" font-size="12" fill="rgb(0, 0, 0)">N</tspan></text></g><g id="Solid"><path d="M543.89 365.25 L543.89 365.25 L543.61 364.76 L543.33 364.27 L563.22 352.79 L563.5 353.28 L563.78 353.77 Z" stroke="rgb(0, 0, 0)" stroke-width="0" fill-rule="evenodd" stroke-linejoin="miter" fill="rgb(0, 0, 0)" shape-rendering="geometricPrecision" /></g><g id="Solid"><path d="M572.62 353.81 L572.62 353.81 L572.9 353.33 L573.18 352.84 L592.71 364.11 L592.71 364.76 L592.71 365.41 Z" stroke="rgb(0, 0, 0)" stroke-width="0" fill-rule="evenodd" stroke-linejoin="miter" fill="rgb(0, 0, 0)" shape-rendering="geometricPrecision" /></g><g id="Solid"><path d="M592.71 365.41 L592.71 365.41 L592.71 364.76 L592.71 364.11 L617.26 349.94 L617.26 350.59 L617.26 351.24 Z" stroke="rgb(0, 0, 0)" stroke-width="0" fill-rule="evenodd" stroke-linejoin="miter" fill="rgb(0, 0, 0)" shape-rendering="geometricPrecision" /></g><g id="Solid"><path d="M617.26 351.24 L617.26 351.24 L617.26 350.59 L617.26 349.94 L641.06 363.68 L641.8 364.76 L642.54 365.84 Z" stroke="rgb(0, 0, 0)" stroke-width="0" fill-rule="evenodd" stroke-linejoin="miter" fill="rgb(0, 0, 0)" shape-rendering="geometricPrecision" /></g><g id="Solid"><path d="M568.73 345.3 L568.73 345.3 L568.16 345.3 L567.6 345.3 L567.6 322.24 L568.16 322.24 L568.72 322.24 Z" stroke="rgb(0, 0, 0)" stroke-width="0" fill-rule="evenodd" stroke-linejoin="miter" fill="rgb(0, 0, 0)" shape-rendering="geometricPrecision" /></g><g id="Bold"><path d="M642.54 365.84 L642.54 365.84 L641.8 364.76 L641.06 363.68 L665.79 349.41 L666.35 350.59 L667.09 351.67 Z" stroke="rgb(200, 29, 177)" stroke-width="0" fill-rule="evenodd" stroke-linejoin="miter" fill="rgb(200, 29, 177)" shape-rendering="geometricPrecision" /></g><g id="Solid"><path d="M667.09 351.67 L667.09 351.67 L666.35 350.59 L666.92 350.26 L690.9 364.11 L690.9 364.76 L690.9 365.41 Z" stroke="rgb(0, 0, 0)" stroke-width="0" fill-rule="evenodd" stroke-linejoin="miter" fill="rgb(0, 0, 0)" shape-rendering="geometricPrecision" /><line x1="671.45" y1="347.64" x2="690.9" y2="358.87" stroke="rgb(0, 0, 0)" stroke-width="1.13" shape-rendering="auto" /></g><g id="Solid"><path d="M690.9 365.41 L690.9 365.41 L690.9 364.76 L690.9 364.11 L714.89 350.26 L715.45 350.59 L716.01 350.92 Z" stroke="rgb(0, 0, 0)" stroke-width="0" fill-rule="evenodd" stroke-linejoin="miter" fill="rgb(0, 0, 0)" shape-rendering="geometricPrecision" /></g><g id="Solid"><path d="M716.01 350.92 L716.01 350.92 L715.45 350.59 L714.89 350.26 L714.89 322.57 L715.45 322.24 L716.01 321.91 Z" stroke="rgb(0, 0, 0)" stroke-width="0" fill-rule="evenodd" stroke-linejoin="miter" fill="rgb(0, 0, 0)" shape-rendering="geometricPrecision" /><line x1="710.35" y1="347.64" x2="710.35" y2="325.19" stroke="rgb(0, 0, 0)" stroke-width="1.13" shape-rendering="auto" /></g><g id="Solid"><path d="M716.01 321.91 L716.01 321.91 L715.45 322.24 L714.89 322.57 L690.9 308.72 L690.9 308.07 L690.9 307.42 Z" stroke="rgb(0, 0, 0)" stroke-width="0" fill-rule="evenodd" stroke-linejoin="miter" fill="rgb(0, 0, 0)" shape-rendering="geometricPrecision" /></g><g id="Solid"><path d="M690.9 307.42 L690.9 307.42 L690.9 308.07 L690.9 308.72 L666.92 322.57 L666.35 322.24 L665.78 321.91 Z" stroke="rgb(0, 0, 0)" stroke-width="0" fill-rule="evenodd" stroke-linejoin="miter" fill="rgb(0, 0, 0)" shape-rendering="geometricPrecision" /><line x1="690.9" y1="313.96" x2="671.45" y2="325.19" stroke="rgb(0, 0, 0)" stroke-width="1.13" shape-rendering="auto" /></g><g id="Solid"><path d="M665.78 321.91 L665.78 321.91 L666.35 322.24 L666.92 322.57 L666.92 350.26 L666.35 350.59 L665.79 349.41 Z" stroke="rgb(0, 0, 0)" stroke-width="0" fill-rule="evenodd" stroke-linejoin="miter" fill="rgb(0, 0, 0)" shape-rendering="geometricPrecision" /></g><g id="Charge367"><line x1="162.11" y1="344.88" x2="172.89" y2="344.88" stroke="rgb(0, 0, 0)" stroke-width="0.904" shape-rendering="auto" /><line x1="167.5" y1="339.49" x2="167.5" y2="350.27" stroke="rgb(0, 0, 0)" stroke-width="0.904" shape-rendering="auto" /></g><g id="Rectangle"><path d="M745.95 272.25 L745.95 272.25 L750.45 272.25 L750.45 426.75 L22.25 426.75 L22.25 422.25 L745.95 422.25 " stroke="rgb(192, 192, 192)" stroke-width="0" fill-rule="evenodd" stroke-linejoin="bevel" fill="rgb(192, 192, 192)" shape-rendering="geometricPrecision" /><path d="M17.69 267.75 L17.69 267.75 L745.93 267.75 L745.93 422.25 L17.69 422.25 Z" stroke="rgb(0, 0, 0)" stroke-width="1.13" fill-rule="evenodd" stroke-linejoin="miter" fill="none" shape-rendering="geometricPrecision" /></g></g></g></svg>