<svg width="378" height="378" xmlns="http://www.w3.org/2000/svg" xmlns:xlink="http://www.w3.org/1999/xlink" overflow="hidden"><defs><clipPath id="clip0"><rect x="0" y="0" width="378" height="378"/></clipPath></defs><g clip-path="url(#clip0)"><rect x="0" y="0" width="378" height="378" fill="#FFFFFF"/><rect x="73" y="226" width="64" height="77" fill="#94A8FF"/><rect x="178" y="149" width="61" height="154" fill="#2E54FF"/><rect x="280" y="50" width="61" height="253" fill="#002EFA"/><path d="M360.326 356.062 70.3333 356.062 70.3333 65.9375 61.5417 65.9375 61.5417 364.854 360.326 364.854 360.326 356.062Z" transform="matrix(1.06161 0 0 1 -35 -22)"/><path d="M360.458 65.9375 290.125 65.9375 290.125 329.688 360.458 329.688ZM351.667 320.896 298.917 320.896 298.917 74.7292 351.667 74.7292Z" transform="matrix(1.06161 0 0 1 -35 -22)"/><path d="M193.417 329.688 263.75 329.688 263.75 162.646 193.417 162.646ZM202.208 171.438 254.958 171.438 254.958 320.896 202.208 320.896Z" transform="matrix(1.06161 0 0 1 -35 -22)"/><path d="M96.7083 329.688 167.042 329.688 167.042 241.771 96.7083 241.771ZM105.5 250.563 158.25 250.563 158.25 320.896 105.5 320.896Z" transform="matrix(1.06161 0 0 1 -35 -22)"/><path d="M99.8162 209.712 228.522 81.0064C228.539 80.9893 228.567 80.9897 228.584 81.0069 228.592 81.0152 228.597 81.0258 228.597 81.0372L228.597 123.083 237.388 123.083 237.388 65.9375 180.361 65.9375 180.361 74.7292 222.262 74.7292C222.286 74.7296 222.306 74.7494 222.306 74.7736 222.305 74.785 222.301 74.796 222.293 74.8039L93.6005 203.496Z" transform="matrix(1.06161 0 0 1 -35 -22)"/><path d="M145.969 35.2228 145.969 35.2228C141.5 43.2159 136.493 51.0187 132.562 59.2021 127.916 68.8721 125.797 79.3654 120.272 88.715 118.193 92.2318 113.153 93.9444 110.216 97.0155 107.525 99.8295 106.293 103.484 103.512 106.238 98.7918 110.914 92.2945 114.281 87.8704 119.15 86.7531 120.38 85.9597 121.866 84.5185 122.839 81.7992 124.676 78.5597 125.914 75.5802 127.451 74.3115 129.022 71.3797 132.763 69.9938 133.907 67.9371 135.605 65.5247 136.981 63.2901 138.518 62.5452 140.363 62.109 142.313 61.0556 144.052 59.8545 146.035 57.9397 147.671 56.5864 149.585 53.8827 153.412 52.9222 155.764 51 159.731 51.3724 165.572 51.5522 171.423 52.1173 177.254 52.2807 178.941 53.1147 183.512 54.3519 185.554 54.9524 186.546 55.7126 187.48 56.5864 188.321 60.1989 191.8 60.4539 191.679 64.4074 193.855 65.1523 194.777 65.6925 195.838 66.642 196.622 70.2838 199.628 78.0766 202.582 82.284 203.078L90.1049 204C96.5808 203.236 103.073 202.798 109.099 200.311 110.3 199.815 110.441 198.372 111.333 197.544 113.433 195.594 116.036 194.029 118.037 192.01 130.181 179.759 106.112 198.165 130.327 178.176 135.28 174.088 136.477 173.329 141.5 167.109 142.245 166.187 143.092 165.315 143.735 164.342 145.33 161.928 146.356 159.252 148.204 156.964 149.372 155.517 151.302 154.595 152.673 153.275 155.777 150.285 158.749 147.201 161.611 144.052 162.728 142.822 163.956 141.656 164.963 140.363 167.312 137.347 169.465 134.23 171.667 131.14 173.189 129.004 174.013 126.437 176.136 124.684L179.488 121.917C179.583 121.682 182.566 111.543 186.191 112.694 190.616 114.099 191.846 119.542 196.247 120.995 204.351 123.671 199.905 122.385 209.654 124.684 215.986 123.762 222.838 124.189 228.648 121.917 230.763 121.09 231.953 109.316 232 109.005 231.255 102.242 230.198 95.4969 229.765 88.715 229.08 77.9656 229.856 67.1533 228.648 56.4352 228.353 53.8199 227.491 50.9591 225.296 49.057 207.811 33.9021 212.336 40.6091 199.599 34.3005 198.002 33.5097 196.825 32.1698 195.13 31.5337 192.661 30.6075 189.897 30.3567 187.309 29.6891 172.682 25.9162 182.074 27.3644 167.198 26 161.448 26.791 161.543 26.4823 157.142 27.8446 155.264 28.4259 153.275 28.8374 151.556 29.6891 148.351 31.2762 146.9 34.3005 145.969 35.2228Z" fill="#FFFFFF" fill-rule="evenodd"/><path d="M338.798 327 362.798 339 338.798 351Z"/><path d="M12-7.18916 0.000104987 16.8109-12-7.18901Z" transform="matrix(1 0 0 -1 35 42.8109)"/></g></svg>